<?xml version="1.0" encoding="utf-8"?>
<svg xmlns="http://www.w3.org/2000/svg" xmlns:xlink="http://www.w3.org/1999/xlink" width="672" height="480" viewBox="0 0 2688 1920">
<defs>
  <clipPath id="clip570">
    <rect x="0" y="0" width="2688" height="1920"/>
  </clipPath>
</defs>
<path clip-path="url(#clip570)" d="M0 1920 L2688 1920 L2688 0 L0 0  Z" fill="#ffffff" fill-rule="evenodd" fill-opacity="1"/>
<defs>
  <clipPath id="clip571">
    <rect x="1555" y="797" width="1091" height="924"/>
  </clipPath>
</defs>
<path clip-path="url(#clip570)" d="M210.238 1734.12 L2640.76 1734.12 L2640.76 47.2441 L210.238 47.2441  Z" fill="#ffffff" fill-rule="evenodd" fill-opacity="1"/>
<defs>
  <clipPath id="clip572">
    <rect x="210" y="47" width="2432" height="1688"/>
  </clipPath>
</defs>
<polyline clip-path="url(#clip572)" style="stroke:#000000; stroke-linecap:round; stroke-linejoin:round; stroke-width:2; stroke-opacity:0.1; fill:none" points="210.238,1734.12 210.238,47.2441 "/>
<polyline clip-path="url(#clip572)" style="stroke:#000000; stroke-linecap:round; stroke-linejoin:round; stroke-width:2; stroke-opacity:0.1; fill:none" points="615.324,1734.12 615.324,47.2441 "/>
<polyline clip-path="url(#clip572)" style="stroke:#000000; stroke-linecap:round; stroke-linejoin:round; stroke-width:2; stroke-opacity:0.1; fill:none" points="1020.41,1734.12 1020.41,47.2441 "/>
<polyline clip-path="url(#clip572)" style="stroke:#000000; stroke-linecap:round; stroke-linejoin:round; stroke-width:2; stroke-opacity:0.1; fill:none" points="1425.5,1734.12 1425.5,47.2441 "/>
<polyline clip-path="url(#clip572)" style="stroke:#000000; stroke-linecap:round; stroke-linejoin:round; stroke-width:2; stroke-opacity:0.1; fill:none" points="1830.58,1734.12 1830.58,47.2441 "/>
<polyline clip-path="url(#clip572)" style="stroke:#000000; stroke-linecap:round; stroke-linejoin:round; stroke-width:2; stroke-opacity:0.1; fill:none" points="2235.67,1734.12 2235.67,47.2441 "/>
<polyline clip-path="url(#clip572)" style="stroke:#000000; stroke-linecap:round; stroke-linejoin:round; stroke-width:2; stroke-opacity:0.1; fill:none" points="2640.76,1734.12 2640.76,47.2441 "/>
<polyline clip-path="url(#clip572)" style="stroke:#000000; stroke-linecap:round; stroke-linejoin:round; stroke-width:2; stroke-opacity:0.1; fill:none" points="210.238,1454.09 2640.76,1454.09 "/>
<polyline clip-path="url(#clip572)" style="stroke:#000000; stroke-linecap:round; stroke-linejoin:round; stroke-width:2; stroke-opacity:0.1; fill:none" points="210.238,1066.94 2640.76,1066.94 "/>
<polyline clip-path="url(#clip572)" style="stroke:#000000; stroke-linecap:round; stroke-linejoin:round; stroke-width:2; stroke-opacity:0.1; fill:none" points="210.238,679.797 2640.76,679.797 "/>
<polyline clip-path="url(#clip572)" style="stroke:#000000; stroke-linecap:round; stroke-linejoin:round; stroke-width:2; stroke-opacity:0.1; fill:none" points="210.238,292.651 2640.76,292.651 "/>
<polyline clip-path="url(#clip570)" style="stroke:#000000; stroke-linecap:round; stroke-linejoin:round; stroke-width:4; stroke-opacity:1; fill:none" points="210.238,1734.12 2640.76,1734.12 "/>
<polyline clip-path="url(#clip570)" style="stroke:#000000; stroke-linecap:round; stroke-linejoin:round; stroke-width:4; stroke-opacity:1; fill:none" points="210.238,1734.12 210.238,1715.22 "/>
<polyline clip-path="url(#clip570)" style="stroke:#000000; stroke-linecap:round; stroke-linejoin:round; stroke-width:4; stroke-opacity:1; fill:none" points="615.324,1734.12 615.324,1715.22 "/>
<polyline clip-path="url(#clip570)" style="stroke:#000000; stroke-linecap:round; stroke-linejoin:round; stroke-width:4; stroke-opacity:1; fill:none" points="1020.41,1734.12 1020.41,1715.22 "/>
<polyline clip-path="url(#clip570)" style="stroke:#000000; stroke-linecap:round; stroke-linejoin:round; stroke-width:4; stroke-opacity:1; fill:none" points="1425.5,1734.12 1425.5,1715.22 "/>
<polyline clip-path="url(#clip570)" style="stroke:#000000; stroke-linecap:round; stroke-linejoin:round; stroke-width:4; stroke-opacity:1; fill:none" points="1830.58,1734.12 1830.58,1715.22 "/>
<polyline clip-path="url(#clip570)" style="stroke:#000000; stroke-linecap:round; stroke-linejoin:round; stroke-width:4; stroke-opacity:1; fill:none" points="2235.67,1734.12 2235.67,1715.22 "/>
<polyline clip-path="url(#clip570)" style="stroke:#000000; stroke-linecap:round; stroke-linejoin:round; stroke-width:4; stroke-opacity:1; fill:none" points="2640.76,1734.12 2640.76,1715.22 "/>
<path clip-path="url(#clip570)" d="M210.238 1767.34 Q206.627 1767.34 204.798 1770.9 Q202.993 1774.45 202.993 1781.58 Q202.993 1788.68 204.798 1792.25 Q206.627 1795.79 210.238 1795.79 Q213.872 1795.79 215.678 1792.25 Q217.506 1788.68 217.506 1781.58 Q217.506 1774.45 215.678 1770.9 Q213.872 1767.34 210.238 1767.34 M210.238 1763.64 Q216.048 1763.64 219.104 1768.24 Q222.182 1772.83 222.182 1781.58 Q222.182 1790.3 219.104 1794.91 Q216.048 1799.49 210.238 1799.49 Q204.428 1799.49 201.349 1794.91 Q198.293 1790.3 198.293 1781.58 Q198.293 1772.83 201.349 1768.24 Q204.428 1763.64 210.238 1763.64 Z" fill="#000000" fill-rule="nonzero" fill-opacity="1" /><path clip-path="url(#clip570)" d="M594.097 1794.89 L610.417 1794.89 L610.417 1798.82 L588.472 1798.82 L588.472 1794.89 Q591.135 1792.13 595.718 1787.5 Q600.324 1782.85 601.505 1781.51 Q603.75 1778.98 604.63 1777.25 Q605.533 1775.49 605.533 1773.8 Q605.533 1771.04 603.588 1769.31 Q601.667 1767.57 598.565 1767.57 Q596.366 1767.57 593.912 1768.34 Q591.482 1769.1 588.704 1770.65 L588.704 1765.93 Q591.528 1764.79 593.982 1764.21 Q596.435 1763.64 598.472 1763.64 Q603.843 1763.64 607.037 1766.32 Q610.232 1769.01 610.232 1773.5 Q610.232 1775.63 609.421 1777.55 Q608.634 1779.45 606.528 1782.04 Q605.949 1782.71 602.847 1785.93 Q599.746 1789.12 594.097 1794.89 Z" fill="#000000" fill-rule="nonzero" fill-opacity="1" /><path clip-path="url(#clip570)" d="M630.232 1767.34 Q626.62 1767.34 624.792 1770.9 Q622.986 1774.45 622.986 1781.58 Q622.986 1788.68 624.792 1792.25 Q626.62 1795.79 630.232 1795.79 Q633.866 1795.79 635.671 1792.25 Q637.5 1788.68 637.5 1781.58 Q637.5 1774.45 635.671 1770.9 Q633.866 1767.34 630.232 1767.34 M630.232 1763.64 Q636.042 1763.64 639.097 1768.24 Q642.176 1772.83 642.176 1781.58 Q642.176 1790.3 639.097 1794.91 Q636.042 1799.49 630.232 1799.49 Q624.421 1799.49 621.343 1794.91 Q618.287 1790.3 618.287 1781.58 Q618.287 1772.83 621.343 1768.24 Q624.421 1763.64 630.232 1763.64 Z" fill="#000000" fill-rule="nonzero" fill-opacity="1" /><path clip-path="url(#clip570)" d="M1008.58 1768.34 L996.776 1786.78 L1008.58 1786.78 L1008.58 1768.34 M1007.36 1764.26 L1013.23 1764.26 L1013.23 1786.78 L1018.17 1786.78 L1018.17 1790.67 L1013.23 1790.67 L1013.23 1798.82 L1008.58 1798.82 L1008.58 1790.67 L992.98 1790.67 L992.98 1786.16 L1007.36 1764.26 Z" fill="#000000" fill-rule="nonzero" fill-opacity="1" /><path clip-path="url(#clip570)" d="M1035.9 1767.34 Q1032.29 1767.34 1030.46 1770.9 Q1028.65 1774.45 1028.65 1781.58 Q1028.65 1788.68 1030.46 1792.25 Q1032.29 1795.79 1035.9 1795.79 Q1039.53 1795.79 1041.34 1792.25 Q1043.17 1788.68 1043.17 1781.58 Q1043.17 1774.45 1041.34 1770.9 Q1039.53 1767.34 1035.9 1767.34 M1035.9 1763.64 Q1041.71 1763.64 1044.76 1768.24 Q1047.84 1772.83 1047.84 1781.58 Q1047.84 1790.3 1044.76 1794.91 Q1041.71 1799.49 1035.9 1799.49 Q1030.09 1799.49 1027.01 1794.91 Q1023.95 1790.3 1023.95 1781.58 Q1023.95 1772.83 1027.01 1768.24 Q1030.09 1763.64 1035.9 1763.64 Z" fill="#000000" fill-rule="nonzero" fill-opacity="1" /><path clip-path="url(#clip570)" d="M1410.9 1779.68 Q1407.75 1779.68 1405.9 1781.83 Q1404.07 1783.98 1404.07 1787.73 Q1404.07 1791.46 1405.9 1793.64 Q1407.75 1795.79 1410.9 1795.79 Q1414.05 1795.79 1415.88 1793.64 Q1417.73 1791.46 1417.73 1787.73 Q1417.73 1783.98 1415.88 1781.83 Q1414.05 1779.68 1410.9 1779.68 M1420.18 1765.02 L1420.18 1769.28 Q1418.43 1768.45 1416.62 1768.01 Q1414.84 1767.57 1413.08 1767.57 Q1408.45 1767.57 1405.99 1770.7 Q1403.56 1773.82 1403.22 1780.14 Q1404.58 1778.13 1406.64 1777.06 Q1408.7 1775.97 1411.18 1775.97 Q1416.39 1775.97 1419.4 1779.15 Q1422.43 1782.29 1422.43 1787.73 Q1422.43 1793.06 1419.28 1796.27 Q1416.13 1799.49 1410.9 1799.49 Q1404.91 1799.49 1401.74 1794.91 Q1398.56 1790.3 1398.56 1781.58 Q1398.56 1773.38 1402.45 1768.52 Q1406.34 1763.64 1412.89 1763.64 Q1414.65 1763.64 1416.43 1763.98 Q1418.24 1764.33 1420.18 1765.02 Z" fill="#000000" fill-rule="nonzero" fill-opacity="1" /><path clip-path="url(#clip570)" d="M1440.49 1767.34 Q1436.87 1767.34 1435.05 1770.9 Q1433.24 1774.45 1433.24 1781.58 Q1433.24 1788.68 1435.05 1792.25 Q1436.87 1795.79 1440.49 1795.79 Q1444.12 1795.79 1445.93 1792.25 Q1447.75 1788.68 1447.75 1781.58 Q1447.75 1774.45 1445.93 1770.9 Q1444.12 1767.34 1440.49 1767.34 M1440.49 1763.64 Q1446.3 1763.64 1449.35 1768.24 Q1452.43 1772.83 1452.43 1781.58 Q1452.43 1790.3 1449.35 1794.91 Q1446.3 1799.49 1440.49 1799.49 Q1434.68 1799.49 1431.6 1794.91 Q1428.54 1790.3 1428.54 1781.58 Q1428.54 1772.83 1431.6 1768.24 Q1434.68 1763.64 1440.49 1763.64 Z" fill="#000000" fill-rule="nonzero" fill-opacity="1" /><path clip-path="url(#clip570)" d="M1815.46 1782.41 Q1812.12 1782.41 1810.2 1784.19 Q1808.3 1785.97 1808.3 1789.1 Q1808.3 1792.22 1810.2 1794.01 Q1812.12 1795.79 1815.46 1795.79 Q1818.79 1795.79 1820.71 1794.01 Q1822.63 1792.2 1822.63 1789.1 Q1822.63 1785.97 1820.71 1784.19 Q1818.81 1782.41 1815.46 1782.41 M1810.78 1780.42 Q1807.77 1779.68 1806.08 1777.62 Q1804.41 1775.56 1804.41 1772.59 Q1804.41 1768.45 1807.35 1766.04 Q1810.32 1763.64 1815.46 1763.64 Q1820.62 1763.64 1823.56 1766.04 Q1826.5 1768.45 1826.5 1772.59 Q1826.5 1775.56 1824.81 1777.62 Q1823.14 1779.68 1820.16 1780.42 Q1823.53 1781.21 1825.41 1783.5 Q1827.31 1785.79 1827.31 1789.1 Q1827.31 1794.12 1824.23 1796.81 Q1821.17 1799.49 1815.46 1799.49 Q1809.74 1799.49 1806.66 1796.81 Q1803.6 1794.12 1803.6 1789.1 Q1803.6 1785.79 1805.5 1783.5 Q1807.4 1781.21 1810.78 1780.42 M1809.07 1773.03 Q1809.07 1775.72 1810.73 1777.22 Q1812.42 1778.73 1815.46 1778.73 Q1818.47 1778.73 1820.16 1777.22 Q1821.87 1775.72 1821.87 1773.03 Q1821.87 1770.35 1820.16 1768.84 Q1818.47 1767.34 1815.46 1767.34 Q1812.42 1767.34 1810.73 1768.84 Q1809.07 1770.35 1809.07 1773.03 Z" fill="#000000" fill-rule="nonzero" fill-opacity="1" /><path clip-path="url(#clip570)" d="M1845.62 1767.34 Q1842.01 1767.34 1840.18 1770.9 Q1838.37 1774.45 1838.37 1781.58 Q1838.37 1788.68 1840.18 1792.25 Q1842.01 1795.79 1845.62 1795.79 Q1849.25 1795.79 1851.06 1792.25 Q1852.89 1788.68 1852.89 1781.58 Q1852.89 1774.45 1851.06 1770.9 Q1849.25 1767.34 1845.62 1767.34 M1845.62 1763.64 Q1851.43 1763.64 1854.48 1768.24 Q1857.56 1772.83 1857.56 1781.58 Q1857.56 1790.3 1854.48 1794.91 Q1851.43 1799.49 1845.62 1799.49 Q1839.81 1799.49 1836.73 1794.91 Q1833.67 1790.3 1833.67 1781.58 Q1833.67 1772.83 1836.73 1768.24 Q1839.81 1763.64 1845.62 1763.64 Z" fill="#000000" fill-rule="nonzero" fill-opacity="1" /><path clip-path="url(#clip570)" d="M2195.28 1794.89 L2202.92 1794.89 L2202.92 1768.52 L2194.6 1770.19 L2194.6 1765.93 L2202.87 1764.26 L2207.54 1764.26 L2207.54 1794.89 L2215.18 1794.89 L2215.18 1798.82 L2195.28 1798.82 L2195.28 1794.89 Z" fill="#000000" fill-rule="nonzero" fill-opacity="1" /><path clip-path="url(#clip570)" d="M2234.63 1767.34 Q2231.02 1767.34 2229.19 1770.9 Q2227.38 1774.45 2227.38 1781.58 Q2227.38 1788.68 2229.19 1792.25 Q2231.02 1795.79 2234.63 1795.79 Q2238.26 1795.79 2240.07 1792.25 Q2241.9 1788.68 2241.9 1781.58 Q2241.9 1774.45 2240.07 1770.9 Q2238.26 1767.34 2234.63 1767.34 M2234.63 1763.64 Q2240.44 1763.64 2243.49 1768.24 Q2246.57 1772.83 2246.57 1781.58 Q2246.57 1790.3 2243.49 1794.91 Q2240.44 1799.49 2234.63 1799.49 Q2228.82 1799.49 2225.74 1794.91 Q2222.68 1790.3 2222.68 1781.58 Q2222.68 1772.83 2225.74 1768.24 Q2228.82 1763.64 2234.63 1763.64 Z" fill="#000000" fill-rule="nonzero" fill-opacity="1" /><path clip-path="url(#clip570)" d="M2264.79 1767.34 Q2261.18 1767.34 2259.35 1770.9 Q2257.54 1774.45 2257.54 1781.58 Q2257.54 1788.68 2259.35 1792.25 Q2261.18 1795.79 2264.79 1795.79 Q2268.42 1795.79 2270.23 1792.25 Q2272.06 1788.68 2272.06 1781.58 Q2272.06 1774.45 2270.23 1770.9 Q2268.42 1767.34 2264.79 1767.34 M2264.79 1763.64 Q2270.6 1763.64 2273.66 1768.24 Q2276.73 1772.83 2276.73 1781.58 Q2276.73 1790.3 2273.66 1794.91 Q2270.6 1799.49 2264.79 1799.49 Q2258.98 1799.49 2255.9 1794.91 Q2252.85 1790.3 2252.85 1781.58 Q2252.85 1772.83 2255.9 1768.24 Q2258.98 1763.64 2264.79 1763.64 Z" fill="#000000" fill-rule="nonzero" fill-opacity="1" /><path clip-path="url(#clip570)" d="M2600.36 1794.89 L2608 1794.89 L2608 1768.52 L2599.69 1770.19 L2599.69 1765.93 L2607.96 1764.26 L2612.63 1764.26 L2612.63 1794.89 L2620.27 1794.89 L2620.27 1798.82 L2600.36 1798.82 L2600.36 1794.89 Z" fill="#000000" fill-rule="nonzero" fill-opacity="1" /><path clip-path="url(#clip570)" d="M2633.74 1794.89 L2650.06 1794.89 L2650.06 1798.82 L2628.12 1798.82 L2628.12 1794.89 Q2630.78 1792.13 2635.36 1787.5 Q2639.97 1782.85 2641.15 1781.51 Q2643.39 1778.98 2644.27 1777.25 Q2645.18 1775.49 2645.18 1773.8 Q2645.18 1771.04 2643.23 1769.31 Q2641.31 1767.57 2638.21 1767.57 Q2636.01 1767.57 2633.56 1768.34 Q2631.13 1769.1 2628.35 1770.65 L2628.35 1765.93 Q2631.17 1764.79 2633.63 1764.21 Q2636.08 1763.64 2638.12 1763.64 Q2643.49 1763.64 2646.68 1766.32 Q2649.88 1769.01 2649.88 1773.5 Q2649.88 1775.63 2649.07 1777.55 Q2648.28 1779.45 2646.17 1782.04 Q2645.59 1782.71 2642.49 1785.93 Q2639.39 1789.12 2633.74 1794.89 Z" fill="#000000" fill-rule="nonzero" fill-opacity="1" /><path clip-path="url(#clip570)" d="M2669.88 1767.34 Q2666.27 1767.34 2664.44 1770.9 Q2662.63 1774.45 2662.63 1781.58 Q2662.63 1788.68 2664.44 1792.25 Q2666.27 1795.79 2669.88 1795.79 Q2673.51 1795.79 2675.32 1792.25 Q2677.14 1788.68 2677.14 1781.58 Q2677.14 1774.45 2675.32 1770.9 Q2673.51 1767.34 2669.88 1767.34 M2669.88 1763.64 Q2675.69 1763.64 2678.74 1768.24 Q2681.82 1772.83 2681.82 1781.58 Q2681.82 1790.3 2678.74 1794.91 Q2675.69 1799.49 2669.88 1799.49 Q2664.07 1799.49 2660.99 1794.91 Q2657.93 1790.3 2657.93 1781.58 Q2657.93 1772.83 2660.99 1768.24 Q2664.07 1763.64 2669.88 1763.64 Z" fill="#000000" fill-rule="nonzero" fill-opacity="1" /><path clip-path="url(#clip570)" d="M1384.29 1843.43 Q1384.29 1844.33 1383.87 1844.56 Q1383.45 1844.75 1382.29 1844.75 L1376.11 1844.75 L1371.22 1864.2 Q1370.83 1865.91 1370.83 1867.36 Q1370.83 1868.97 1371.31 1869.68 Q1371.83 1870.38 1372.89 1870.38 Q1374.98 1870.38 1377.24 1868.48 Q1379.52 1866.58 1381.46 1861.95 Q1381.71 1861.33 1381.84 1861.21 Q1382 1861.04 1382.42 1861.04 Q1383.23 1861.04 1383.23 1861.69 Q1383.23 1861.91 1382.78 1862.94 Q1382.36 1863.98 1381.42 1865.49 Q1380.52 1867 1379.33 1868.42 Q1378.17 1869.84 1376.4 1870.87 Q1374.63 1871.87 1372.73 1871.87 Q1370.06 1871.87 1368.35 1870.16 Q1366.67 1868.45 1366.67 1865.78 Q1366.67 1864.91 1367.35 1862.14 Q1368.03 1859.34 1371.7 1844.75 L1365.87 1844.75 Q1365.06 1844.75 1364.74 1844.72 Q1364.45 1844.68 1364.23 1844.52 Q1364.03 1844.33 1364.03 1843.94 Q1364.03 1843.33 1364.29 1843.07 Q1364.55 1842.78 1364.87 1842.75 Q1365.22 1842.69 1366.03 1842.69 L1372.21 1842.69 L1374.79 1832.22 Q1375.05 1831.19 1375.69 1830.61 Q1376.37 1830 1376.75 1829.93 Q1377.14 1829.84 1377.43 1829.84 Q1378.3 1829.84 1378.82 1830.32 Q1379.33 1830.77 1379.33 1831.61 Q1379.33 1832.06 1376.63 1842.69 L1382.42 1842.69 Q1383.16 1842.69 1383.45 1842.72 Q1383.78 1842.75 1384.03 1842.91 Q1384.29 1843.07 1384.29 1843.43 Z" fill="#000000" fill-rule="nonzero" fill-opacity="1" /><path clip-path="url(#clip570)" d="M1402.13 1854.64 Q1402.13 1843.49 1406.28 1834.51 Q1408.06 1830.74 1410.54 1827.58 Q1413.02 1824.43 1414.66 1823.04 Q1416.3 1821.66 1416.75 1821.66 Q1417.4 1821.66 1417.43 1822.3 Q1417.43 1822.62 1416.56 1823.43 Q1405.93 1834.25 1405.96 1854.64 Q1405.96 1875.09 1416.3 1885.49 Q1417.43 1886.62 1417.43 1886.97 Q1417.43 1887.61 1416.75 1887.61 Q1416.3 1887.61 1414.72 1886.29 Q1413.14 1884.97 1410.7 1881.95 Q1408.25 1878.92 1406.48 1875.22 Q1402.13 1866.23 1402.13 1854.64 Z" fill="#000000" fill-rule="nonzero" fill-opacity="1" /><path clip-path="url(#clip570)" d="M1456.13 1861.69 Q1456.13 1861.95 1455.84 1862.94 Q1455.55 1863.94 1454.84 1865.49 Q1454.16 1867.04 1453.23 1868.45 Q1452.3 1869.84 1450.75 1870.87 Q1449.24 1871.87 1447.5 1871.87 Q1445.18 1871.87 1443.63 1870.32 Q1442.09 1868.77 1442.09 1866.46 Q1442.09 1866.13 1442.12 1865.81 Q1442.15 1865.49 1442.18 1865.3 Q1442.22 1865.07 1442.31 1864.72 Q1442.44 1864.33 1442.47 1864.17 Q1442.54 1864.01 1442.7 1863.52 Q1442.89 1863.01 1442.96 1862.82 Q1447.05 1852.38 1447.05 1848.03 Q1447.05 1843.43 1443.47 1843.43 Q1440.28 1843.43 1437.13 1845.75 Q1435.68 1846.91 1434.29 1848.97 Q1432.91 1851.03 1432.65 1851.8 Q1432.36 1853.48 1431.94 1854.76 Q1431.75 1855.67 1430.81 1859.18 L1429.37 1865.13 L1428.11 1870.13 Q1427.85 1870.84 1427.14 1871.35 Q1426.43 1871.87 1425.66 1871.87 Q1425.02 1871.87 1424.37 1871.42 Q1423.76 1871 1423.76 1870 Q1423.76 1869.48 1424.02 1868.55 L1433.58 1830.55 L1433.78 1829.26 Q1433.78 1828.87 1433.62 1828.68 Q1433.49 1828.45 1432.71 1828.29 Q1431.97 1828.13 1430.49 1828.13 Q1429.88 1828.13 1429.59 1828.1 Q1429.33 1828.07 1429.11 1827.9 Q1428.88 1827.71 1428.88 1827.33 Q1428.88 1826.78 1429.11 1826.49 Q1429.37 1826.17 1429.56 1826.1 Q1429.75 1826.04 1430.14 1826 Q1430.69 1825.97 1432.52 1825.81 Q1434.36 1825.62 1435.94 1825.49 Q1437.51 1825.36 1438.19 1825.36 Q1438.58 1825.36 1438.77 1825.55 Q1438.99 1825.71 1439.03 1825.91 L1439.06 1826.07 L1433.91 1847.04 Q1438 1841.98 1443.66 1841.98 Q1447.34 1841.98 1449.3 1843.88 Q1451.27 1845.75 1451.27 1849.03 Q1451.27 1852.8 1447.24 1863.52 Q1446.05 1866.52 1446.05 1868.23 Q1446.05 1869.35 1446.4 1869.87 Q1446.79 1870.38 1447.63 1870.38 Q1448.91 1870.38 1450.04 1869.64 Q1451.2 1868.87 1452.01 1867.61 Q1452.81 1866.33 1453.36 1865.04 Q1453.94 1863.72 1454.36 1862.24 Q1454.61 1861.43 1454.74 1861.24 Q1454.9 1861.04 1455.36 1861.04 Q1456.13 1861.04 1456.13 1861.69 Z" fill="#000000" fill-rule="nonzero" fill-opacity="1" /><path clip-path="url(#clip570)" d="M1461.63 1886.97 Q1461.63 1886.65 1462.47 1885.84 Q1473.1 1875.02 1473.1 1854.64 Q1473.1 1834.19 1462.89 1823.85 Q1461.63 1822.66 1461.63 1822.3 Q1461.63 1821.66 1462.28 1821.66 Q1462.73 1821.66 1464.31 1822.98 Q1465.92 1824.3 1468.33 1827.33 Q1470.78 1830.35 1472.58 1834.06 Q1476.93 1843.04 1476.93 1854.64 Q1476.93 1865.78 1472.78 1874.76 Q1471.01 1878.53 1468.53 1881.69 Q1466.05 1884.84 1464.4 1886.23 Q1462.76 1887.61 1462.28 1887.61 Q1461.63 1887.61 1461.63 1886.97 Z" fill="#000000" fill-rule="nonzero" fill-opacity="1" /><polyline clip-path="url(#clip570)" style="stroke:#000000; stroke-linecap:round; stroke-linejoin:round; stroke-width:4; stroke-opacity:1; fill:none" points="210.238,1734.12 210.238,47.2441 "/>
<polyline clip-path="url(#clip570)" style="stroke:#000000; stroke-linecap:round; stroke-linejoin:round; stroke-width:4; stroke-opacity:1; fill:none" points="210.238,1454.09 229.135,1454.09 "/>
<polyline clip-path="url(#clip570)" style="stroke:#000000; stroke-linecap:round; stroke-linejoin:round; stroke-width:4; stroke-opacity:1; fill:none" points="210.238,1066.94 229.135,1066.94 "/>
<polyline clip-path="url(#clip570)" style="stroke:#000000; stroke-linecap:round; stroke-linejoin:round; stroke-width:4; stroke-opacity:1; fill:none" points="210.238,679.797 229.135,679.797 "/>
<polyline clip-path="url(#clip570)" style="stroke:#000000; stroke-linecap:round; stroke-linejoin:round; stroke-width:4; stroke-opacity:1; fill:none" points="210.238,292.651 229.135,292.651 "/>
<path clip-path="url(#clip570)" d="M149.015 1436.81 L167.372 1436.81 L167.372 1440.74 L153.298 1440.74 L153.298 1449.22 Q154.316 1448.87 155.335 1448.71 Q156.353 1448.52 157.372 1448.52 Q163.159 1448.52 166.538 1451.69 Q169.918 1454.86 169.918 1460.28 Q169.918 1465.86 166.446 1468.96 Q162.973 1472.04 156.654 1472.04 Q154.478 1472.04 152.21 1471.67 Q149.964 1471.3 147.557 1470.56 L147.557 1465.86 Q149.64 1466.99 151.862 1467.55 Q154.085 1468.1 156.561 1468.1 Q160.566 1468.1 162.904 1466 Q165.242 1463.89 165.242 1460.28 Q165.242 1456.67 162.904 1454.56 Q160.566 1452.46 156.561 1452.46 Q154.686 1452.46 152.811 1452.87 Q150.96 1453.29 149.015 1454.17 L149.015 1436.81 Z" fill="#000000" fill-rule="nonzero" fill-opacity="1" /><path clip-path="url(#clip570)" d="M118.622 1080.29 L126.261 1080.29 L126.261 1053.92 L117.951 1055.59 L117.951 1051.33 L126.214 1049.66 L130.89 1049.66 L130.89 1080.29 L138.529 1080.29 L138.529 1084.22 L118.622 1084.22 L118.622 1080.29 Z" fill="#000000" fill-rule="nonzero" fill-opacity="1" /><path clip-path="url(#clip570)" d="M157.973 1052.74 Q154.362 1052.74 152.534 1056.31 Q150.728 1059.85 150.728 1066.98 Q150.728 1074.08 152.534 1077.65 Q154.362 1081.19 157.973 1081.19 Q161.608 1081.19 163.413 1077.65 Q165.242 1074.08 165.242 1066.98 Q165.242 1059.85 163.413 1056.31 Q161.608 1052.74 157.973 1052.74 M157.973 1049.04 Q163.784 1049.04 166.839 1053.64 Q169.918 1058.23 169.918 1066.98 Q169.918 1075.7 166.839 1080.31 Q163.784 1084.89 157.973 1084.89 Q152.163 1084.89 149.085 1080.31 Q146.029 1075.7 146.029 1066.98 Q146.029 1058.23 149.085 1053.64 Q152.163 1049.04 157.973 1049.04 Z" fill="#000000" fill-rule="nonzero" fill-opacity="1" /><path clip-path="url(#clip570)" d="M119.617 693.142 L127.256 693.142 L127.256 666.776 L118.946 668.443 L118.946 664.184 L127.21 662.517 L131.886 662.517 L131.886 693.142 L139.525 693.142 L139.525 697.077 L119.617 697.077 L119.617 693.142 Z" fill="#000000" fill-rule="nonzero" fill-opacity="1" /><path clip-path="url(#clip570)" d="M149.015 662.517 L167.372 662.517 L167.372 666.452 L153.298 666.452 L153.298 674.924 Q154.316 674.577 155.335 674.415 Q156.353 674.23 157.372 674.23 Q163.159 674.23 166.538 677.401 Q169.918 680.572 169.918 685.989 Q169.918 691.568 166.446 694.669 Q162.973 697.748 156.654 697.748 Q154.478 697.748 152.21 697.378 Q149.964 697.007 147.557 696.267 L147.557 691.568 Q149.64 692.702 151.862 693.257 Q154.085 693.813 156.561 693.813 Q160.566 693.813 162.904 691.707 Q165.242 689.6 165.242 685.989 Q165.242 682.378 162.904 680.271 Q160.566 678.165 156.561 678.165 Q154.686 678.165 152.811 678.582 Q150.96 678.998 149.015 679.878 L149.015 662.517 Z" fill="#000000" fill-rule="nonzero" fill-opacity="1" /><path clip-path="url(#clip570)" d="M121.839 305.996 L138.159 305.996 L138.159 309.931 L116.214 309.931 L116.214 305.996 Q118.876 303.241 123.46 298.612 Q128.066 293.959 129.247 292.616 Q131.492 290.093 132.372 288.357 Q133.275 286.598 133.275 284.908 Q133.275 282.154 131.33 280.417 Q129.409 278.681 126.307 278.681 Q124.108 278.681 121.654 279.445 Q119.224 280.209 116.446 281.76 L116.446 277.038 Q119.27 275.904 121.724 275.325 Q124.177 274.746 126.214 274.746 Q131.585 274.746 134.779 277.431 Q137.974 280.117 137.974 284.607 Q137.974 286.737 137.163 288.658 Q136.376 290.556 134.27 293.149 Q133.691 293.82 130.589 297.038 Q127.488 300.232 121.839 305.996 Z" fill="#000000" fill-rule="nonzero" fill-opacity="1" /><path clip-path="url(#clip570)" d="M157.973 278.45 Q154.362 278.45 152.534 282.015 Q150.728 285.556 150.728 292.686 Q150.728 299.792 152.534 303.357 Q154.362 306.899 157.973 306.899 Q161.608 306.899 163.413 303.357 Q165.242 299.792 165.242 292.686 Q165.242 285.556 163.413 282.015 Q161.608 278.45 157.973 278.45 M157.973 274.746 Q163.784 274.746 166.839 279.353 Q169.918 283.936 169.918 292.686 Q169.918 301.413 166.839 306.019 Q163.784 310.602 157.973 310.602 Q152.163 310.602 149.085 306.019 Q146.029 301.413 146.029 292.686 Q146.029 283.936 149.085 279.353 Q152.163 274.746 157.973 274.746 Z" fill="#000000" fill-rule="nonzero" fill-opacity="1" /><path clip-path="url(#clip570)" d="M14.1184 1169.91 L14.1184 1129.71 L19.5293 1129.71 L19.5293 1146.58 L61.6384 1146.58 L61.6384 1153.04 L19.5293 1153.04 L19.5293 1169.91 L14.1184 1169.91 Z" fill="#000000" fill-rule="nonzero" fill-opacity="1" /><path clip-path="url(#clip570)" d="M42.3504 1104.35 L45.2149 1104.35 L45.2149 1131.27 Q51.2623 1130.89 54.4452 1127.64 Q57.5962 1124.37 57.5962 1118.54 Q57.5962 1115.17 56.7687 1112.02 Q55.9411 1108.83 54.2861 1105.71 L59.8242 1105.71 Q61.161 1108.87 61.8612 1112.18 Q62.5615 1115.49 62.5615 1118.89 Q62.5615 1127.42 57.5962 1132.42 Q52.631 1137.38 44.1646 1137.38 Q35.4117 1137.38 30.2873 1132.67 Q25.1311 1127.93 25.1311 1119.91 Q25.1311 1112.72 29.7781 1108.55 Q34.3932 1104.35 42.3504 1104.35 M40.6316 1110.2 Q35.8255 1110.27 32.9609 1112.91 Q30.0964 1115.52 30.0964 1119.85 Q30.0964 1124.75 32.8654 1127.71 Q35.6345 1130.64 40.6634 1131.08 L40.6316 1110.2 Z" fill="#000000" fill-rule="nonzero" fill-opacity="1" /><path clip-path="url(#clip570)" d="M32.8336 1066.98 Q28.8869 1064.78 27.009 1061.73 Q25.1311 1058.67 25.1311 1054.53 Q25.1311 1048.96 29.046 1045.94 Q32.9291 1042.92 40.1224 1042.92 L61.6384 1042.92 L61.6384 1048.8 L40.3133 1048.8 Q35.1889 1048.8 32.7063 1050.62 Q30.2237 1052.43 30.2237 1056.16 Q30.2237 1060.71 33.2474 1063.35 Q36.2711 1065.99 41.491 1065.99 L61.6384 1065.99 L61.6384 1071.88 L40.3133 1071.88 Q35.1571 1071.88 32.7063 1073.69 Q30.2237 1075.51 30.2237 1079.3 Q30.2237 1083.78 33.2792 1086.43 Q36.3029 1089.07 41.491 1089.07 L61.6384 1089.07 L61.6384 1094.96 L25.9905 1094.96 L25.9905 1089.07 L31.5287 1089.07 Q28.2503 1087.06 26.6907 1084.26 Q25.1311 1081.46 25.1311 1077.61 Q25.1311 1073.73 27.1045 1071.02 Q29.0779 1068.28 32.8336 1066.98 Z" fill="#000000" fill-rule="nonzero" fill-opacity="1" /><path clip-path="url(#clip570)" d="M56.2912 1025.57 L75.1974 1025.57 L75.1974 1031.46 L25.9905 1031.46 L25.9905 1025.57 L31.4013 1025.57 Q28.2185 1023.72 26.6907 1020.92 Q25.1311 1018.09 25.1311 1014.18 Q25.1311 1007.68 30.2873 1003.64 Q35.4436 999.566 43.8463 999.566 Q52.249 999.566 57.4052 1003.64 Q62.5615 1007.68 62.5615 1014.18 Q62.5615 1018.09 61.0337 1020.92 Q59.4741 1023.72 56.2912 1025.57 M43.8463 1005.65 Q37.3851 1005.65 33.7248 1008.32 Q30.0327 1010.96 30.0327 1015.61 Q30.0327 1020.25 33.7248 1022.93 Q37.3851 1025.57 43.8463 1025.57 Q50.3075 1025.57 53.9996 1022.93 Q57.6599 1020.25 57.6599 1015.61 Q57.6599 1010.96 53.9996 1008.32 Q50.3075 1005.65 43.8463 1005.65 Z" fill="#000000" fill-rule="nonzero" fill-opacity="1" /><path clip-path="url(#clip570)" d="M42.3504 959.367 L45.2149 959.367 L45.2149 986.293 Q51.2623 985.912 54.4452 982.665 Q57.5962 979.387 57.5962 973.562 Q57.5962 970.188 56.7687 967.037 Q55.9411 963.854 54.2861 960.735 L59.8242 960.735 Q61.161 963.886 61.8612 967.196 Q62.5615 970.507 62.5615 973.912 Q62.5615 982.442 57.5962 987.439 Q52.631 992.405 44.1646 992.405 Q35.4117 992.405 30.2873 987.694 Q25.1311 982.951 25.1311 974.931 Q25.1311 967.737 29.7781 963.568 Q34.3932 959.367 42.3504 959.367 M40.6316 965.223 Q35.8255 965.287 32.9609 967.928 Q30.0964 970.538 30.0964 974.867 Q30.0964 979.769 32.8654 982.729 Q35.6345 985.657 40.6634 986.102 L40.6316 965.223 Z" fill="#000000" fill-rule="nonzero" fill-opacity="1" /><path clip-path="url(#clip570)" d="M31.465 929.098 Q30.8921 930.084 30.6375 931.262 Q30.351 932.408 30.351 933.808 Q30.351 938.773 33.5975 941.447 Q36.8122 944.089 42.8596 944.089 L61.6384 944.089 L61.6384 949.977 L25.9905 949.977 L25.9905 944.089 L31.5287 944.089 Q28.2821 942.243 26.7225 939.283 Q25.1311 936.323 25.1311 932.089 Q25.1311 931.485 25.2266 930.753 Q25.2903 930.021 25.4494 929.129 L31.465 929.098 Z" fill="#000000" fill-rule="nonzero" fill-opacity="1" /><path clip-path="url(#clip570)" d="M43.719 906.754 Q43.719 913.852 45.3422 916.589 Q46.9655 919.326 50.8804 919.326 Q53.9996 919.326 55.8457 917.289 Q57.6599 915.22 57.6599 911.687 Q57.6599 906.818 54.2224 903.889 Q50.7531 900.929 45.0239 900.929 L43.719 900.929 L43.719 906.754 M41.3 895.073 L61.6384 895.073 L61.6384 900.929 L56.2276 900.929 Q59.4741 902.935 61.0337 905.926 Q62.5615 908.918 62.5615 913.247 Q62.5615 918.721 59.5059 921.968 Q56.4186 925.183 51.2623 925.183 Q45.2467 925.183 42.1912 921.172 Q39.1357 917.13 39.1357 909.141 L39.1357 900.929 L38.5628 900.929 Q34.5205 900.929 32.3244 903.603 Q30.0964 906.245 30.0964 911.051 Q30.0964 914.106 30.8284 917.003 Q31.5605 919.899 33.0246 922.573 L27.6137 922.573 Q26.3724 919.358 25.7677 916.334 Q25.1311 913.311 25.1311 910.446 Q25.1311 902.712 29.1415 898.892 Q33.1519 895.073 41.3 895.073 Z" fill="#000000" fill-rule="nonzero" fill-opacity="1" /><path clip-path="url(#clip570)" d="M15.869 877.217 L25.9905 877.217 L25.9905 865.154 L30.542 865.154 L30.542 877.217 L49.8937 877.217 Q54.2542 877.217 55.4955 876.039 Q56.7368 874.83 56.7368 871.17 L56.7368 865.154 L61.6384 865.154 L61.6384 871.17 Q61.6384 877.949 59.124 880.527 Q56.5777 883.105 49.8937 883.105 L30.542 883.105 L30.542 887.402 L25.9905 887.402 L25.9905 883.105 L15.869 883.105 L15.869 877.217 Z" fill="#000000" fill-rule="nonzero" fill-opacity="1" /><path clip-path="url(#clip570)" d="M47.5702 858.056 L25.9905 858.056 L25.9905 852.2 L47.3474 852.2 Q52.4082 852.2 54.9545 850.226 Q57.4689 848.253 57.4689 844.306 Q57.4689 839.564 54.4452 836.827 Q51.4215 834.058 46.2016 834.058 L25.9905 834.058 L25.9905 828.201 L61.6384 828.201 L61.6384 834.058 L56.1639 834.058 Q59.4104 836.19 61.0019 839.023 Q62.5615 841.824 62.5615 845.548 Q62.5615 851.691 58.742 854.873 Q54.9226 858.056 47.5702 858.056 M25.1311 843.32 L25.1311 843.32 Z" fill="#000000" fill-rule="nonzero" fill-opacity="1" /><path clip-path="url(#clip570)" d="M31.465 795.481 Q30.8921 796.468 30.6375 797.646 Q30.351 798.792 30.351 800.192 Q30.351 805.157 33.5975 807.831 Q36.8122 810.473 42.8596 810.473 L61.6384 810.473 L61.6384 816.361 L25.9905 816.361 L25.9905 810.473 L31.5287 810.473 Q28.2821 808.627 26.7225 805.667 Q25.1311 802.706 25.1311 798.473 Q25.1311 797.869 25.2266 797.136 Q25.2903 796.404 25.4494 795.513 L31.465 795.481 Z" fill="#000000" fill-rule="nonzero" fill-opacity="1" /><path clip-path="url(#clip570)" d="M43.719 773.138 Q43.719 780.236 45.3422 782.973 Q46.9655 785.71 50.8804 785.71 Q53.9996 785.71 55.8457 783.673 Q57.6599 781.604 57.6599 778.071 Q57.6599 773.201 54.2224 770.273 Q50.7531 767.313 45.0239 767.313 L43.719 767.313 L43.719 773.138 M41.3 761.457 L61.6384 761.457 L61.6384 767.313 L56.2276 767.313 Q59.4741 769.318 61.0337 772.31 Q62.5615 775.302 62.5615 779.631 Q62.5615 785.105 59.5059 788.352 Q56.4186 791.566 51.2623 791.566 Q45.2467 791.566 42.1912 787.556 Q39.1357 783.514 39.1357 775.525 L39.1357 767.313 L38.5628 767.313 Q34.5205 767.313 32.3244 769.987 Q30.0964 772.629 30.0964 777.435 Q30.0964 780.49 30.8284 783.387 Q31.5605 786.283 33.0246 788.957 L27.6137 788.957 Q26.3724 785.742 25.7677 782.718 Q25.1311 779.694 25.1311 776.83 Q25.1311 769.096 29.1415 765.276 Q33.1519 761.457 41.3 761.457 Z" fill="#000000" fill-rule="nonzero" fill-opacity="1" /><path clip-path="url(#clip570)" d="M12.1769 714.605 Q19.4975 718.87 26.6589 720.939 Q33.8203 723.008 41.1727 723.008 Q48.5251 723.008 55.7502 720.939 Q62.9434 718.838 70.2321 714.605 L70.2321 719.698 Q62.7524 724.472 55.5274 726.859 Q48.3023 729.214 41.1727 729.214 Q34.0749 729.214 26.8817 726.859 Q19.6884 724.504 12.1769 719.698 L12.1769 714.605 Z" fill="#000000" fill-rule="nonzero" fill-opacity="1" /><path clip-path="url(#clip570)" d="M17.365 693.089 Q17.365 695.635 19.1474 697.386 Q20.8979 699.136 23.4442 699.136 Q25.9587 699.136 27.7092 697.386 Q29.428 695.635 29.428 693.089 Q29.428 690.543 27.7092 688.792 Q25.9587 687.042 23.4442 687.042 Q20.9297 687.042 19.1474 688.824 Q17.365 690.575 17.365 693.089 M13.2591 693.089 Q13.2591 691.052 14.0548 689.174 Q14.8187 687.296 16.2828 685.928 Q17.7151 684.463 19.5293 683.731 Q21.3435 682.999 23.4442 682.999 Q27.6456 682.999 30.5738 685.959 Q33.4702 688.888 33.4702 693.153 Q33.4702 697.45 30.6056 700.314 Q27.7411 703.179 23.4442 703.179 Q19.1792 703.179 16.2191 700.25 Q13.2591 697.322 13.2591 693.089 Z" fill="#000000" fill-rule="nonzero" fill-opacity="1" /><path clip-path="url(#clip570)" d="M17.7787 634.811 L24.5582 634.811 Q21.5345 638.057 20.0386 641.75 Q18.5426 645.41 18.5426 649.548 Q18.5426 657.696 23.5397 662.024 Q28.5049 666.353 37.9262 666.353 Q47.3156 666.353 52.3127 662.024 Q57.2779 657.696 57.2779 649.548 Q57.2779 645.41 55.782 641.75 Q54.2861 638.057 51.2623 634.811 L57.9782 634.811 Q60.2698 638.185 61.4156 641.972 Q62.5615 645.728 62.5615 649.93 Q62.5615 660.719 55.973 666.926 Q49.3526 673.133 37.9262 673.133 Q26.4679 673.133 19.8794 666.926 Q13.2591 660.719 13.2591 649.93 Q13.2591 645.664 14.4049 641.909 Q15.5189 638.121 17.7787 634.811 Z" fill="#000000" fill-rule="nonzero" fill-opacity="1" /><path clip-path="url(#clip570)" d="M12.1769 626.058 L12.1769 620.966 Q19.6884 616.191 26.8817 613.836 Q34.0749 611.449 41.1727 611.449 Q48.3023 611.449 55.5274 613.836 Q62.7524 616.191 70.2321 620.966 L70.2321 626.058 Q62.9434 621.825 55.7502 619.756 Q48.5251 617.655 41.1727 617.655 Q33.8203 617.655 26.6589 619.756 Q19.4975 621.825 12.1769 626.058 Z" fill="#000000" fill-rule="nonzero" fill-opacity="1" /><polyline clip-path="url(#clip572)" style="stroke:#009af9; stroke-linecap:round; stroke-linejoin:round; stroke-width:8; stroke-opacity:1; fill:none" points="210.238,679.797 215.301,665.725 220.365,650.646 225.429,634.616 230.492,617.696 235.556,599.954 240.619,581.46 245.683,562.289 250.746,542.522 255.81,522.24 260.874,501.528 265.937,480.472 271.001,459.162 276.064,437.689 281.128,416.146 286.192,394.624 291.255,373.217 296.319,352.018 301.382,331.119 306.446,310.609 311.509,290.577 316.573,271.11 321.637,252.294 326.7,234.21 331.764,216.935 336.827,200.549 341.891,185.127 346.954,170.738 352.018,157.445 357.082,145.306 362.145,134.375 367.209,124.7 372.272,116.322 377.336,109.278 382.4,103.6 387.463,99.3126 392.527,96.4369 397.59,94.9911 402.654,94.9858 407.717,96.4248 412.781,99.3048 417.845,103.616 422.908,109.34 427.972,116.452 433.035,124.923 438.099,134.713 443.163,145.777 448.226,158.072 453.29,171.55 458.353,186.157 463.417,201.835 468.48,218.521 473.544,236.147 478.608,254.641 483.671,273.924 488.735,293.915 493.798,314.527 498.862,335.666 503.925,357.237 508.989,379.146 514.053,401.312 519.116,423.638 524.18,446.031 529.243,468.396 534.307,490.639 539.371,512.669 544.434,534.394 549.498,555.722 554.561,576.566 559.625,596.835 564.688,616.442 569.752,635.299 574.816,653.321 579.879,670.447 584.943,686.612 590.006,701.738 595.07,715.754 600.133,728.595 605.197,740.203 610.261,750.527 615.324,759.524 620.388,767.156 625.451,773.392 630.515,778.209 635.579,781.59 640.642,783.525 645.706,784.011 650.769,783.052 655.833,780.659 660.896,776.846 665.96,771.625 671.024,765.012 676.087,757.03 681.151,747.709 686.214,737.083 691.278,725.196 696.341,712.097 701.405,697.841 706.469,682.49 711.532,666.112 716.596,648.782 721.659,630.582 726.723,611.6 731.787,591.929 736.85,571.651 741.914,550.837 746.977,529.578 752.041,507.964 757.104,486.085 762.168,464.033 767.232,441.899 772.295,419.775 777.359,397.755 782.422,375.932 787.486,354.4 792.549,333.253 797.613,312.586 802.677,292.494 807.74,273.075 812.804,254.409 817.867,236.544 822.931,219.565 827.995,203.554 833.058,188.586 838.122,174.732 843.185,162.054 848.249,150.608 853.312,140.443 858.376,131.601 863.44,124.12 868.503,118.027 873.567,113.346 878.63,110.094 883.694,108.278 888.757,107.902 893.821,108.963 898.885,111.448 903.948,115.34 909.012,120.624 914.075,127.291 919.139,135.321 924.203,144.69 929.266,155.365 934.33,167.306 939.393,180.468 944.457,194.796 949.52,210.231 954.584,226.705 959.648,244.143 964.711,262.466 969.775,281.584 974.838,301.401 979.902,321.816 984.965,342.72 990.029,364.033 995.093,385.699 1000.16,407.626 1005.22,429.718 1010.28,451.884 1015.35,474.03 1020.41,496.065 1025.47,517.897 1030.54,539.436 1035.6,560.591 1040.66,581.273 1045.73,601.393 1050.79,620.863 1055.86,639.594 1060.92,657.501 1065.98,674.496 1071.05,690.5 1076.11,705.494 1081.17,719.416 1086.24,732.188 1091.3,743.745 1096.36,754.025 1101.43,762.978 1106.49,770.559 1111.55,776.732 1116.62,781.47 1121.68,784.751 1126.75,786.565 1131.81,786.907 1136.87,785.78 1141.94,783.196 1147,779.174 1152.06,773.743 1157.13,766.936 1162.19,758.798 1167.25,749.379 1172.32,738.7 1177.38,726.788 1182.45,713.688 1187.51,699.449 1192.57,684.126 1197.64,667.779 1202.7,650.474 1207.76,632.28 1212.83,613.274 1217.89,593.536 1222.95,573.154 1228.02,552.218 1233.08,530.826 1238.14,509.079 1243.21,487.085 1248.27,464.957 1253.34,442.78 1258.4,420.618 1263.46,398.572 1268.53,376.738 1273.59,355.211 1278.65,334.082 1283.72,313.44 1288.78,293.372 1293.84,273.961 1298.91,255.287 1303.97,237.429 1309.03,220.462 1314.1,204.457 1319.16,189.486 1324.23,175.615 1329.29,162.907 1334.35,151.425 1339.42,141.216 1344.48,132.247 1349.54,124.565 1354.61,118.227 1359.67,113.284 1364.73,109.774 1369.8,107.729 1374.86,107.169 1379.92,108.108 1384.99,110.548 1390.05,114.482 1395.12,119.896 1400.18,126.763 1405.24,135.052 1410.31,144.717 1415.37,155.706 1420.43,167.959 1425.5,181.403 1430.56,195.958 1435.62,211.535 1440.69,228.036 1445.75,245.356 1450.81,263.493 1455.88,282.416 1460.94,302.044 1466.01,322.299 1471.07,343.095 1476.13,364.348 1481.2,385.971 1486.26,407.874 1491.32,429.966 1496.39,452.152 1501.45,474.337 1506.51,496.423 1511.58,518.31 1516.64,539.895 1521.7,561.075 1526.77,581.742 1531.83,601.83 1536.9,621.286 1541.96,640.015 1547.02,657.924 1552.09,674.929 1557.15,690.951 1562.21,705.918 1567.28,719.765 1572.34,732.432 1577.4,743.864 1582.47,754.016 1587.53,762.846 1592.59,770.32 1597.66,776.409 1602.72,781.092 1607.79,784.353 1612.85,786.183 1617.91,786.577 1622.98,785.541 1628.04,783.084 1633.1,779.233 1638.17,773.995 1643.23,767.378 1648.29,759.397 1653.36,750.074 1658.42,739.441 1663.49,727.535 1668.55,714.399 1673.61,700.087 1678.68,684.658 1683.74,668.179 1688.8,650.724 1693.87,632.374 1698.93,613.218 1703.99,593.352 1709.06,572.881 1714.12,551.914 1719.18,530.57 1724.25,508.921 1729.31,487.008 1734.38,464.928 1739.44,442.774 1744.5,420.643 1749.57,398.625 1754.63,376.814 1759.69,355.299 1764.76,334.17 1769.82,313.515 1774.88,293.421 1779.95,273.975 1785.01,255.262 1790.07,237.364 1795.14,220.366 1800.2,204.348 1805.27,189.39 1810.33,175.502 1815.39,162.718 1820.46,151.116 1825.52,140.765 1830.58,131.728 1835.65,124.055 1840.71,117.792 1845.77,112.973 1850.84,109.624 1855.9,107.763 1860.96,107.399 1866.03,108.531 1871.09,111.151 1876.16,115.241 1881.22,120.776 1886.28,127.72 1891.35,136.03 1896.41,145.653 1901.47,156.528 1906.54,168.586 1911.6,181.748 1916.66,195.991 1921.73,211.298 1926.79,227.608 1931.85,244.858 1936.92,262.981 1941.98,281.905 1947.05,301.554 1952.11,321.848 1957.17,342.703 1962.24,364.032 1967.3,385.743 1972.36,407.741 1977.43,429.925 1982.49,452.191 1987.55,474.433 1992.62,496.537 1997.68,518.389 2002.74,539.924 2007.81,561.08 2012.87,581.756 2017.94,601.857 2023,621.293 2028.06,639.979 2033.13,657.833 2038.19,674.779 2043.25,690.746 2048.32,705.669 2053.38,719.484 2058.44,732.136 2063.51,743.573 2068.57,753.748 2073.64,762.618 2078.7,770.146 2083.76,776.299 2088.83,781.05 2093.89,784.376 2098.95,786.314 2104.02,786.866 2109.08,786.006 2114.14,783.717 2119.21,779.99 2124.27,774.826 2129.33,768.234 2134.4,760.231 2139.46,750.843 2144.53,740.105 2149.59,728.062 2154.65,714.765 2159.72,700.276 2164.78,684.664 2169.84,668.008 2174.91,650.396 2179.97,631.922 2185.03,612.693 2190.1,592.82 2195.16,572.427 2200.22,551.605 2205.29,530.343 2210.35,508.725 2215.42,486.844 2220.48,464.791 2225.54,442.66 2230.61,420.543 2235.67,398.531 2240.73,376.717 2245.8,355.193 2250.86,334.049 2255.92,313.376 2260.99,293.267 2266.05,273.812 2271.11,255.101 2276.18,237.225 2281.24,220.262 2286.31,204.217 2291.37,189.168 2296.43,175.199 2301.5,162.389 2306.56,150.805 2311.62,140.508 2316.69,131.55 2321.75,123.974 2326.81,117.818 2331.88,113.108 2336.94,109.863 2342,108.097 2347.07,107.81 2352.13,108.999 2357.2,111.649 2362.26,115.74 2367.32,121.242 2372.39,128.117 2377.45,136.319 2382.51,145.794 2387.58,156.485 2392.64,168.386 2397.7,181.465 2402.77,195.673 2407.83,210.959 2412.89,227.265 2417.96,244.527 2423.02,262.678 2428.09,281.645 2433.15,301.35 2438.21,321.71 2443.28,342.636 2448.34,364.036 2453.4,385.81 2458.47,407.855 2463.53,430.064 2468.59,452.321 2473.66,474.509 2478.72,496.547 2483.78,518.386 2488.85,539.926 2493.91,561.07 2498.98,581.724 2504.04,601.798 2509.1,621.207 2514.17,639.87 2519.23,657.707 2524.29,674.646 2529.36,690.615 2534.42,705.549 2539.48,719.386 2544.55,732.066 2549.61,743.536 2554.68,753.744 2559.74,762.644 2564.8,770.193 2569.87,776.354 2574.93,781.117 2579.99,784.462 2585.06,786.368 2590.12,786.822 2595.18,785.817 2600.25,783.355 2605.31,779.444 2610.37,774.102 2615.44,767.351 2620.5,759.223 2625.57,749.756 2630.63,738.997 2635.69,726.998 2640.76,713.822 "/>
<polyline clip-path="url(#clip572)" style="stroke:#e26f46; stroke-linecap:round; stroke-linejoin:round; stroke-width:8; stroke-opacity:1; fill:none" points="210.238,912.084 215.301,909.527 220.365,905.753 225.429,900.803 230.492,894.724 235.556,887.564 240.619,879.375 245.683,870.212 250.746,860.136 255.81,849.207 260.874,837.49 265.937,825.051 271.001,811.958 276.064,798.284 281.128,784.1 286.192,769.481 291.255,754.503 296.319,739.243 301.382,723.777 306.446,708.182 311.509,692.534 316.573,676.912 321.637,661.393 326.7,646.053 331.764,630.966 336.827,616.207 341.891,601.845 346.954,587.95 352.018,574.588 357.082,561.821 362.145,549.711 367.209,538.316 372.272,527.692 377.336,517.893 382.4,508.969 387.463,500.965 392.527,493.919 397.59,487.864 402.654,482.829 407.717,478.84 412.781,475.918 417.845,474.08 422.908,473.337 427.972,473.699 433.035,475.169 438.099,477.746 443.163,481.428 448.226,486.201 453.29,492.044 458.353,498.933 463.417,506.839 468.48,515.731 473.544,525.572 478.608,536.325 483.671,547.948 488.735,560.394 493.798,573.615 498.862,587.557 503.925,602.166 508.989,617.382 514.053,633.14 519.116,649.371 524.18,666.006 529.243,682.973 534.307,700.203 539.371,717.624 544.434,735.164 549.498,752.752 554.561,770.316 559.625,787.781 564.688,805.077 569.752,822.128 574.816,838.861 579.879,855.201 584.943,871.078 590.006,886.427 595.07,901.185 600.133,915.292 605.197,928.692 610.261,941.33 615.324,953.156 620.388,964.122 625.451,974.182 630.515,983.294 635.579,991.419 640.642,998.52 645.706,1004.56 650.769,1009.52 655.833,1013.36 660.896,1016.06 665.96,1017.62 671.024,1018.04 676.087,1017.33 681.151,1015.49 686.214,1012.52 691.278,1008.46 696.341,1003.31 701.405,997.093 706.469,989.842 711.532,981.582 716.596,972.347 721.659,962.175 726.723,951.104 731.787,939.179 736.85,926.449 741.914,912.977 746.977,898.824 752.041,884.057 757.104,868.741 762.168,852.943 767.232,836.73 772.295,820.172 777.359,803.338 782.422,786.297 787.486,769.122 792.549,751.885 797.613,734.657 802.677,717.514 807.74,700.53 812.804,683.782 817.867,667.348 822.931,651.299 827.995,635.703 833.058,620.623 838.122,606.123 843.185,592.262 848.249,579.097 853.312,566.682 858.376,555.068 863.44,544.305 868.503,534.438 873.567,525.511 878.63,517.566 883.694,510.64 888.757,504.769 893.821,499.986 898.885,496.322 903.948,493.796 909.012,492.413 914.075,492.168 919.139,493.054 924.203,495.061 929.266,498.177 934.33,502.385 939.393,507.666 944.457,513.998 949.52,521.354 954.584,529.706 959.648,539.022 964.711,549.267 969.775,560.402 974.838,572.386 979.902,585.174 984.965,598.719 990.029,612.962 995.093,627.827 1000.16,643.245 1005.22,659.145 1010.28,675.456 1015.35,692.107 1020.41,709.027 1025.47,726.145 1030.54,743.39 1035.6,760.689 1040.66,777.972 1045.73,795.167 1050.79,812.202 1055.86,829.004 1060.92,845.502 1065.98,861.623 1071.05,877.293 1076.11,892.431 1081.17,906.972 1086.24,920.858 1091.3,934.037 1096.36,946.456 1101.43,958.068 1106.49,968.827 1111.55,978.691 1116.62,987.621 1121.68,995.579 1126.75,1002.53 1131.81,1008.45 1136.87,1013.31 1141.94,1017.08 1147,1019.73 1152.06,1021.26 1157.13,1021.65 1162.19,1020.87 1167.25,1018.93 1172.32,1015.84 1177.38,1011.63 1182.45,1006.33 1187.51,999.965 1192.57,992.568 1197.64,984.174 1202.7,974.82 1207.76,964.545 1212.83,953.394 1217.89,941.411 1222.95,928.645 1228.02,915.146 1233.08,900.969 1238.14,886.17 1243.21,870.808 1248.27,854.946 1253.34,838.651 1258.4,822.003 1263.46,805.078 1268.53,787.952 1273.59,770.701 1278.65,753.399 1283.72,736.12 1288.78,718.935 1293.84,701.916 1298.91,685.134 1303.97,668.659 1309.03,652.559 1314.1,636.901 1319.16,621.753 1324.23,607.18 1329.29,593.248 1334.35,580.02 1339.42,567.564 1344.48,555.964 1349.54,545.263 1354.61,535.493 1359.67,526.684 1364.73,518.86 1369.8,512.047 1374.86,506.265 1379.92,501.532 1384.99,497.864 1390.05,495.274 1395.12,493.772 1400.18,493.367 1405.24,494.063 1410.31,495.862 1415.37,498.765 1420.43,502.768 1425.5,507.866 1430.56,514.051 1435.62,521.312 1440.69,529.635 1445.75,539.002 1450.81,549.338 1455.88,560.568 1460.94,572.637 1466.01,585.489 1471.07,599.065 1476.13,613.305 1481.2,628.15 1486.26,643.536 1491.32,659.399 1496.39,675.674 1501.45,692.295 1506.51,709.193 1511.58,726.298 1516.64,743.541 1521.7,760.848 1526.77,778.145 1531.83,795.352 1536.9,812.386 1541.96,829.174 1547.02,845.645 1552.09,861.731 1557.15,877.365 1562.21,892.484 1567.28,907.027 1572.34,920.933 1577.4,934.147 1582.47,946.614 1587.53,958.282 1592.59,969.101 1597.66,979.024 1602.72,988.006 1607.79,996.004 1612.85,1002.98 1617.91,1008.89 1622.98,1013.7 1628.04,1017.38 1633.1,1019.92 1638.17,1021.3 1643.23,1021.55 1648.29,1020.67 1653.36,1018.66 1658.42,1015.56 1663.49,1011.36 1668.55,1006.09 1673.61,999.784 1678.68,992.455 1683.74,984.136 1688.8,974.859 1693.87,964.657 1698.93,953.568 1703.99,941.632 1709.06,928.892 1714.12,915.393 1719.18,901.185 1724.25,886.334 1729.31,870.923 1734.38,855.027 1739.44,838.717 1744.5,822.066 1749.57,805.146 1754.63,788.029 1759.69,770.787 1764.76,753.492 1769.82,736.216 1774.88,719.03 1779.95,702.006 1785.01,685.214 1790.07,668.727 1795.14,652.614 1800.2,636.947 1805.27,621.796 1810.33,607.25 1815.39,593.38 1820.46,580.234 1825.52,567.86 1830.58,556.302 1835.65,545.601 1840.71,535.795 1845.77,526.92 1850.84,519.011 1855.9,512.096 1860.96,506.204 1866.03,501.36 1871.09,497.586 1876.16,494.902 1881.22,493.325 1886.28,492.868 1891.35,493.543 1896.41,495.359 1901.47,498.321 1906.54,502.434 1911.6,507.697 1916.66,514.072 1921.73,521.499 1926.79,529.939 1931.85,539.347 1936.92,549.678 1941.98,560.884 1947.05,572.916 1952.11,585.723 1957.17,599.25 1962.24,613.441 1967.3,628.241 1972.36,643.588 1977.43,659.421 1982.49,675.677 1987.55,692.29 1992.62,709.191 1997.68,726.313 2002.74,743.574 2007.81,760.891 2012.87,778.187 2017.94,795.386 2023,812.415 2028.06,829.202 2033.13,845.676 2038.19,861.77 2043.25,877.417 2048.32,892.554 2053.38,907.116 2058.44,921.044 2063.51,934.279 2068.57,946.764 2073.64,958.444 2078.7,969.265 2083.76,979.176 2088.83,988.127 2093.89,996.071 2098.95,1002.95 2104.02,1008.73 2109.08,1013.41 2114.14,1016.99 2119.21,1019.45 2124.27,1020.81 2129.33,1021.06 2134.4,1020.2 2139.46,1018.25 2144.53,1015.21 2149.59,1011.1 2154.65,1005.93 2159.72,999.715 2164.78,992.484 2169.84,984.256 2174.91,975.056 2179.97,964.912 2185.03,953.856 2190.1,941.919 2195.16,929.139 2200.22,915.568 2205.29,901.31 2210.35,886.436 2215.42,871.014 2220.48,855.114 2225.54,838.805 2230.61,822.157 2235.67,805.239 2240.73,788.123 2245.8,770.88 2250.86,753.58 2255.92,736.295 2260.99,719.098 2266.05,702.062 2271.11,685.258 2276.18,668.76 2281.24,652.646 2286.31,637.007 2291.37,621.907 2296.43,607.404 2301.5,593.554 2306.56,580.408 2311.62,568.016 2316.69,556.425 2321.75,545.68 2326.81,535.822 2331.88,526.891 2336.94,518.922 2342,511.951 2347.07,506.007 2352.13,501.12 2357.2,497.315 2362.26,494.616 2367.32,493.044 2372.39,492.616 2377.45,493.348 2382.51,495.252 2387.58,498.335 2392.64,502.558 2397.7,507.883 2402.77,514.279 2407.83,521.709 2412.89,530.137 2417.96,539.522 2423.02,549.822 2428.09,560.994 2433.15,572.99 2438.21,585.761 2443.28,599.256 2448.34,613.422 2453.4,628.202 2458.47,643.539 2463.53,659.372 2468.59,675.638 2473.66,692.272 2478.72,709.2 2483.78,726.335 2488.85,743.6 2493.91,760.917 2498.98,778.21 2504.04,795.407 2509.1,812.433 2514.17,829.219 2519.23,845.695 2524.29,861.792 2529.36,877.445 2534.42,892.588 2539.48,907.158 2544.55,921.092 2549.61,934.331 2554.68,946.816 2559.74,958.488 2564.8,969.292 2569.87,979.174 2574.93,988.094 2579.99,996.019 2585.06,1002.92 2590.12,1008.77 2595.18,1013.54 2600.25,1017.23 2605.31,1019.8 2610.37,1021.26 2615.44,1021.59 2620.5,1020.79 2625.57,1018.87 2630.63,1015.83 2635.69,1011.67 2640.76,1006.41 "/>
<polyline clip-path="url(#clip572)" style="stroke:#808080; stroke-linecap:round; stroke-linejoin:round; stroke-width:4; stroke-opacity:1; fill:none" stroke-dasharray="16, 10" points="210.238,1066.94 216.511,1016.77 222.784,966.932 229.057,917.749 235.33,869.546 239.922,835.061 244.515,801.393 249.107,768.66 253.7,736.978 258.293,706.458 262.885,677.208 267.478,649.331 272.07,622.925 276.663,598.084 281.255,574.894 285.848,553.437 290.44,533.789 295.033,516.02 299.625,500.191 304.218,486.359 308.81,474.572 313.403,464.872 317.996,457.293 322.588,451.861 327.181,448.596 331.773,447.509 336.366,448.605 340.958,451.879 345.551,457.319 350.143,464.907 354.736,474.616 359.328,486.411 363.921,500.252 368.513,516.089 373.106,533.866 377.699,553.521 382.291,574.985 386.564,596.513 390.837,619.476 395.11,643.803 399.383,669.42 403.656,696.25 407.928,724.21 412.201,753.216 416.474,783.178 425.02,845.604 433.566,910.728 442.112,977.757 450.657,1045.87 462.112,1137.43 473.567,1227.44 479.294,1271.25 485.021,1313.94 490.748,1355.28 496.476,1395.03 502.203,1433 507.93,1468.95 513.658,1502.71 519.385,1534.07 525.112,1562.88 530.839,1588.97 536.567,1612.2 542.294,1632.45 547.026,1646.84 551.759,1659.07 556.491,1669.08 561.224,1676.84 565.956,1682.32 570.689,1685.49 575.421,1686.36 580.154,1684.9 584.886,1681.14 589.619,1675.07 594.351,1666.73 599.084,1656.15 603.816,1643.36 608.549,1628.42 613.281,1611.38 618.014,1592.3 622.415,1572.79 626.815,1551.65 631.216,1528.94 635.617,1504.73 640.018,1479.11 644.418,1452.15 648.819,1423.95 653.22,1394.6 662.021,1332.8 670.823,1267.57 679.624,1199.75 688.426,1130.21 699.475,1041.86 710.524,954.026 716.048,910.86 721.573,868.49 727.097,827.131 732.622,786.994 735.384,767.448 738.146,748.284 740.908,729.526 743.67,711.198 749.195,675.926 754.719,642.646 760.244,611.529 765.768,582.733 771.293,556.405 776.817,532.679 781.773,513.71 786.728,497.01 791.684,482.648 796.639,470.682 801.595,461.161 806.55,454.125 811.505,449.603 816.461,447.612 821.416,448.161 826.372,451.248 831.327,456.861 836.283,464.975 841.238,475.558 846.194,488.567 851.149,503.948 856.105,521.638 861.777,544.626 867.449,570.421 873.121,598.884 878.794,629.862 884.466,663.188 890.138,698.684 895.81,736.158 901.482,775.409 907.155,816.227 912.827,858.392 918.499,901.677 924.171,945.85 935.516,1035.91 946.86,1126.63 955.34,1193.72 963.82,1259.28 972.3,1322.54 980.78,1382.73 985.02,1411.44 989.26,1439.12 993.5,1465.69 997.74,1491.05 1001.98,1515.15 1006.22,1537.9 1010.46,1559.23 1014.7,1579.08 1020.12,1602.23 1025.55,1622.75 1030.97,1640.54 1036.39,1655.51 1041.81,1667.59 1047.24,1676.71 1052.66,1682.85 1058.08,1685.96 1063.51,1686.03 1068.93,1683.06 1074.35,1677.06 1079.78,1668.07 1085.2,1656.12 1090.62,1641.28 1093.33,1632.8 1096.04,1623.62 1098.76,1613.76 1101.47,1603.23 1106.42,1582.31 1111.37,1559.29 1116.32,1534.25 1121.27,1507.3 1126.22,1478.55 1131.17,1448.11 1136.11,1416.11 1141.06,1382.69 1146.01,1347.97 1150.96,1312.1 1155.91,1275.23 1160.86,1237.51 1170.76,1160.13 1180.66,1081.23 1191.93,991.211 1203.19,902.799 1208.83,859.782 1214.46,817.863 1220.09,777.263 1225.73,738.199 1231.36,700.877 1236.99,665.495 1242.63,632.24 1248.26,601.289 1253.89,572.806 1259.53,546.941 1262.34,535.034 1265.16,523.832 1267.98,513.35 1270.79,503.601 1275.26,489.68 1279.72,477.682 1284.19,467.647 1288.66,459.607 1293.12,453.591 1297.59,449.617 1302.05,447.7 1306.52,447.845 1310.98,450.052 1315.45,454.314 1319.91,460.617 1324.38,468.939 1328.85,479.252 1333.31,491.524 1337.78,505.711 1342.24,521.769 1345.02,532.661 1347.79,544.24 1350.56,556.491 1353.34,569.399 1358.89,597.115 1364.43,627.246 1369.98,659.637 1375.53,694.121 1381.08,730.522 1386.63,768.653 1392.17,808.316 1397.72,849.309 1403.27,891.421 1408.82,934.435 1419.91,1022.28 1431.01,1111.05 1439.51,1178.51 1448.01,1244.62 1456.5,1308.6 1465,1369.66 1469.25,1398.87 1473.5,1427.08 1477.75,1454.2 1482,1480.15 1486.24,1504.86 1490.49,1528.25 1494.74,1550.25 1498.99,1570.78 1501.99,1584.35 1504.98,1597.15 1507.98,1609.15 1510.97,1620.33 1513.97,1630.69 1516.96,1640.2 1519.96,1648.85 1522.95,1656.64 1525.95,1663.53 1528.94,1669.54 1531.94,1674.64 1534.93,1678.83 1537.93,1682.1 1540.92,1684.45 1543.92,1685.88 1546.91,1686.38 1549.91,1685.95 1552.9,1684.59 1555.9,1682.3 1558.89,1679.1 1561.89,1674.98 1564.88,1669.94 1567.88,1664 1570.87,1657.17 1573.87,1649.45 1576.86,1640.86 1579.86,1631.42 1582.85,1621.12 1585.85,1609.99 1588.84,1598.05 1591.84,1585.32 1594.83,1571.8 1599.31,1550.2 1603.79,1526.99 1608.26,1502.23 1612.74,1476.02 1617.22,1448.44 1621.69,1419.58 1626.17,1389.54 1630.65,1358.42 1639.6,1293.36 1648.55,1225.27 1657.5,1155.07 1666.46,1083.69 1676.64,1002.29 1686.82,922.009 1691.91,882.724 1697,844.236 1702.09,806.713 1707.18,770.315 1712.27,735.201 1717.36,701.523 1722.45,669.427 1727.55,639.051 1732.64,610.527 1737.73,583.978 1742.82,559.52 1747.91,537.258 1752.95,517.47 1757.99,500.015 1763.03,484.966 1768.07,472.387 1773.12,462.332 1778.16,454.844 1783.2,449.954 1788.24,447.684 1793.28,448.042 1798.32,451.027 1803.36,456.626 1808.41,464.817 1813.45,475.563 1818.49,488.82 1823.53,504.53 1828.57,522.629 1834.12,545.206 1839.67,570.464 1845.21,598.273 1850.76,628.489 1856.3,660.959 1861.85,695.514 1867.4,731.977 1872.94,770.161 1878.49,809.87 1884.04,850.9 1889.58,893.04 1895.13,936.073 1906.22,1023.93 1917.32,1112.67 1925.79,1179.92 1934.26,1245.81 1942.74,1309.56 1951.21,1370.41 1955.45,1399.51 1959.68,1427.61 1963.92,1454.64 1968.16,1480.5 1972.39,1505.12 1976.63,1528.43 1980.87,1550.35 1985.1,1570.82 1990.45,1594.5 1995.8,1615.65 2001.14,1634.19 2006.49,1650.02 2011.83,1663.07 2017.18,1673.27 2022.53,1680.57 2027.87,1684.95 2033.22,1686.38 2038.57,1684.85 2043.91,1680.37 2049.26,1672.96 2054.6,1662.66 2059.95,1649.51 2065.3,1633.59 2070.64,1614.96 2075.59,1595.4 2080.53,1573.68 2085.48,1549.89 2090.42,1524.13 2095.37,1496.5 2100.31,1467.12 2105.26,1436.1 2110.2,1403.58 2115.15,1369.68 2120.09,1334.55 2125.04,1298.32 2129.98,1261.15 2139.87,1184.58 2149.76,1106.09 2159.96,1024.49 2170.16,943.624 2180.36,864.899 2190.56,789.681 2195.66,753.798 2200.76,719.274 2205.86,686.261 2210.96,654.901 2216.05,625.331 2221.15,597.679 2226.25,572.065 2231.35,548.601 2236.52,527.115 2241.69,508.037 2246.86,491.454 2252.03,477.439 2257.2,466.055 2262.37,457.352 2267.54,451.369 2272.71,448.133 2277.88,447.659 2283.04,449.947 2288.21,454.99 2293.38,462.763 2298.55,473.232 2303.72,486.35 2308.89,502.059 2314.06,520.289 2319.46,541.927 2324.85,566.119 2330.25,592.747 2335.65,621.683 2341.05,652.785 2346.44,685.902 2351.84,720.872 2357.24,757.527 2362.64,795.687 2368.03,835.166 2373.43,875.774 2378.83,917.311 2389.62,1002.36 2400.42,1088.67 2408.92,1156.45 2417.43,1223.14 2425.93,1287.95 2434.43,1350.1 2438.69,1379.93 2442.94,1408.82 2447.19,1436.68 2451.44,1463.42 2455.69,1488.96 2459.94,1513.23 2464.2,1536.16 2468.45,1557.66 2473.29,1580.34 2478.13,1601.01 2482.97,1619.59 2487.81,1636 2492.66,1650.19 2497.5,1662.1 2502.34,1671.67 2507.18,1678.88 2512.02,1683.69 2516.86,1686.09 2521.7,1686.06 2526.55,1683.61 2531.39,1678.74 2536.23,1671.48 2541.07,1661.86 2545.91,1649.9 2550.75,1635.67 2555.59,1619.2 2560.44,1600.58 2565.28,1579.86 2570.12,1557.14 2574.96,1532.5 2579.8,1506.03 2584.64,1477.85 2589.48,1448.06 2594.33,1416.77 2599.17,1384.12 2604.01,1350.23 2613.69,1279.25 2623.37,1204.94 2627.72,1170.83 2632.06,1136.38 2636.41,1101.72 2640.76,1066.94 "/>
<path clip-path="url(#clip570)" d="M291.255 1677.89 L716.574 1677.89 L716.574 1470.53 L291.255 1470.53  Z" fill="#ffffff" fill-rule="evenodd" fill-opacity="1"/>
<polyline clip-path="url(#clip570)" style="stroke:#000000; stroke-linecap:round; stroke-linejoin:round; stroke-width:4; stroke-opacity:1; fill:none" points="291.255,1677.89 716.574,1677.89 716.574,1470.53 291.255,1470.53 291.255,1677.89 "/>
<polyline clip-path="url(#clip570)" style="stroke:#009af9; stroke-linecap:round; stroke-linejoin:round; stroke-width:8; stroke-opacity:1; fill:none" points="318.261,1522.37 480.295,1522.37 "/>
<path clip-path="url(#clip570)" d="M507.301 1505.09 L513.597 1505.09 L528.921 1534 L528.921 1505.09 L533.458 1505.09 L533.458 1539.65 L527.162 1539.65 L511.838 1510.74 L511.838 1539.65 L507.301 1539.65 L507.301 1505.09 Z" fill="#000000" fill-rule="nonzero" fill-opacity="1" /><path clip-path="url(#clip570)" d="M554.361 1526.62 Q549.199 1526.62 547.208 1527.8 Q545.218 1528.98 545.218 1531.82 Q545.218 1534.09 546.699 1535.43 Q548.204 1536.75 550.773 1536.75 Q554.315 1536.75 556.444 1534.25 Q558.597 1531.73 558.597 1527.56 L558.597 1526.62 L554.361 1526.62 M562.856 1524.86 L562.856 1539.65 L558.597 1539.65 L558.597 1535.71 Q557.139 1538.07 554.963 1539.21 Q552.787 1540.32 549.639 1540.32 Q545.657 1540.32 543.296 1538.1 Q540.958 1535.85 540.958 1532.1 Q540.958 1527.73 543.875 1525.5 Q546.815 1523.28 552.625 1523.28 L558.597 1523.28 L558.597 1522.87 Q558.597 1519.93 556.653 1518.33 Q554.731 1516.71 551.236 1516.71 Q549.014 1516.71 546.907 1517.24 Q544.801 1517.77 542.857 1518.84 L542.857 1514.9 Q545.194 1514 547.394 1513.56 Q549.593 1513.1 551.676 1513.1 Q557.301 1513.1 560.079 1516.01 Q562.856 1518.93 562.856 1524.86 Z" fill="#000000" fill-rule="nonzero" fill-opacity="1" /><path clip-path="url(#clip570)" d="M568.574 1513.72 L573.088 1513.72 L581.19 1535.48 L589.291 1513.72 L593.805 1513.72 L584.083 1539.65 L578.296 1539.65 L568.574 1513.72 Z" fill="#000000" fill-rule="nonzero" fill-opacity="1" /><path clip-path="url(#clip570)" d="M621.861 1525.62 L621.861 1527.7 L602.278 1527.7 Q602.555 1532.1 604.916 1534.42 Q607.301 1536.71 611.537 1536.71 Q613.99 1536.71 616.282 1536.11 Q618.597 1535.5 620.865 1534.3 L620.865 1538.33 Q618.574 1539.3 616.166 1539.81 Q613.759 1540.32 611.282 1540.32 Q605.078 1540.32 601.444 1536.71 Q597.833 1533.1 597.833 1526.94 Q597.833 1520.57 601.259 1516.85 Q604.708 1513.1 610.541 1513.1 Q615.773 1513.1 618.805 1516.48 Q621.861 1519.83 621.861 1525.62 M617.602 1524.37 Q617.555 1520.87 615.634 1518.79 Q613.736 1516.71 610.588 1516.71 Q607.023 1516.71 604.87 1518.72 Q602.74 1520.74 602.416 1524.39 L617.602 1524.37 Z" fill="#000000" fill-rule="nonzero" fill-opacity="1" /><path clip-path="url(#clip570)" d="M645.333 1535.71 L652.972 1535.71 L652.972 1509.35 L644.662 1511.01 L644.662 1506.75 L652.925 1505.09 L657.601 1505.09 L657.601 1535.71 L665.24 1535.71 L665.24 1539.65 L645.333 1539.65 L645.333 1535.71 Z" fill="#000000" fill-rule="nonzero" fill-opacity="1" /><polyline clip-path="url(#clip570)" style="stroke:#e26f46; stroke-linecap:round; stroke-linejoin:round; stroke-width:8; stroke-opacity:1; fill:none" points="318.261,1574.21 480.295,1574.21 "/>
<path clip-path="url(#clip570)" d="M507.301 1556.93 L513.597 1556.93 L528.921 1585.84 L528.921 1556.93 L533.458 1556.93 L533.458 1591.49 L527.162 1591.49 L511.838 1562.58 L511.838 1591.49 L507.301 1591.49 L507.301 1556.93 Z" fill="#000000" fill-rule="nonzero" fill-opacity="1" /><path clip-path="url(#clip570)" d="M554.361 1578.46 Q549.199 1578.46 547.208 1579.64 Q545.218 1580.82 545.218 1583.66 Q545.218 1585.93 546.699 1587.27 Q548.204 1588.59 550.773 1588.59 Q554.315 1588.59 556.444 1586.09 Q558.597 1583.57 558.597 1579.4 L558.597 1578.46 L554.361 1578.46 M562.856 1576.7 L562.856 1591.49 L558.597 1591.49 L558.597 1587.55 Q557.139 1589.91 554.963 1591.05 Q552.787 1592.16 549.639 1592.16 Q545.657 1592.16 543.296 1589.94 Q540.958 1587.69 540.958 1583.94 Q540.958 1579.57 543.875 1577.34 Q546.815 1575.12 552.625 1575.12 L558.597 1575.12 L558.597 1574.71 Q558.597 1571.77 556.653 1570.17 Q554.731 1568.55 551.236 1568.55 Q549.014 1568.55 546.907 1569.08 Q544.801 1569.61 542.857 1570.68 L542.857 1566.74 Q545.194 1565.84 547.394 1565.4 Q549.593 1564.94 551.676 1564.94 Q557.301 1564.94 560.079 1567.85 Q562.856 1570.77 562.856 1576.7 Z" fill="#000000" fill-rule="nonzero" fill-opacity="1" /><path clip-path="url(#clip570)" d="M568.574 1565.56 L573.088 1565.56 L581.19 1587.32 L589.291 1565.56 L593.805 1565.56 L584.083 1591.49 L578.296 1591.49 L568.574 1565.56 Z" fill="#000000" fill-rule="nonzero" fill-opacity="1" /><path clip-path="url(#clip570)" d="M621.861 1577.46 L621.861 1579.54 L602.278 1579.54 Q602.555 1583.94 604.916 1586.26 Q607.301 1588.55 611.537 1588.55 Q613.99 1588.55 616.282 1587.95 Q618.597 1587.34 620.865 1586.14 L620.865 1590.17 Q618.574 1591.14 616.166 1591.65 Q613.759 1592.16 611.282 1592.16 Q605.078 1592.16 601.444 1588.55 Q597.833 1584.94 597.833 1578.78 Q597.833 1572.41 601.259 1568.69 Q604.708 1564.94 610.541 1564.94 Q615.773 1564.94 618.805 1568.32 Q621.861 1571.67 621.861 1577.46 M617.602 1576.21 Q617.555 1572.71 615.634 1570.63 Q613.736 1568.55 610.588 1568.55 Q607.023 1568.55 604.87 1570.56 Q602.74 1572.58 602.416 1576.23 L617.602 1576.21 Z" fill="#000000" fill-rule="nonzero" fill-opacity="1" /><path clip-path="url(#clip570)" d="M648.55 1587.55 L664.87 1587.55 L664.87 1591.49 L642.925 1591.49 L642.925 1587.55 Q645.587 1584.8 650.171 1580.17 Q654.777 1575.52 655.958 1574.17 Q658.203 1571.65 659.083 1569.91 Q659.986 1568.15 659.986 1566.46 Q659.986 1563.71 658.041 1561.97 Q656.12 1560.24 653.018 1560.24 Q650.819 1560.24 648.365 1561 Q645.935 1561.77 643.157 1563.32 L643.157 1558.59 Q645.981 1557.46 648.435 1556.88 Q650.888 1556.3 652.925 1556.3 Q658.296 1556.3 661.49 1558.99 Q664.685 1561.67 664.685 1566.16 Q664.685 1568.29 663.874 1570.21 Q663.087 1572.11 660.981 1574.71 Q660.402 1575.38 657.3 1578.59 Q654.199 1581.79 648.55 1587.55 Z" fill="#000000" fill-rule="nonzero" fill-opacity="1" /><polyline clip-path="url(#clip570)" style="stroke:#808080; stroke-linecap:round; stroke-linejoin:round; stroke-width:4; stroke-opacity:1; fill:none" stroke-dasharray="16, 10" points="318.261,1626.05 480.295,1626.05 "/>
<path clip-path="url(#clip570)" d="M507.301 1608.77 L529.153 1608.77 L529.153 1612.7 L511.977 1612.7 L511.977 1622.93 L528.435 1622.93 L528.435 1626.87 L511.977 1626.87 L511.977 1639.39 L529.57 1639.39 L529.57 1643.33 L507.301 1643.33 L507.301 1608.77 Z" fill="#000000" fill-rule="nonzero" fill-opacity="1" /><path clip-path="url(#clip570)" d="M558.62 1617.4 L549.245 1630.02 L559.106 1643.33 L554.083 1643.33 L546.537 1633.14 L538.991 1643.33 L533.968 1643.33 L544.037 1629.76 L534.824 1617.4 L539.847 1617.4 L546.722 1626.64 L553.597 1617.4 L558.62 1617.4 Z" fill="#000000" fill-rule="nonzero" fill-opacity="1" /><path clip-path="url(#clip570)" d="M569.338 1610.04 L569.338 1617.4 L578.111 1617.4 L578.111 1620.71 L569.338 1620.71 L569.338 1634.79 Q569.338 1637.96 570.194 1638.86 Q571.074 1639.76 573.736 1639.76 L578.111 1639.76 L578.111 1643.33 L573.736 1643.33 Q568.805 1643.33 566.93 1641.5 Q565.055 1639.65 565.055 1634.79 L565.055 1620.71 L561.931 1620.71 L561.931 1617.4 L565.055 1617.4 L565.055 1610.04 L569.338 1610.04 Z" fill="#000000" fill-rule="nonzero" fill-opacity="1" /><path clip-path="url(#clip570)" d="M605.889 1629.3 L605.889 1631.38 L586.305 1631.38 Q586.583 1635.78 588.944 1638.1 Q591.329 1640.39 595.565 1640.39 Q598.018 1640.39 600.31 1639.79 Q602.625 1639.18 604.893 1637.98 L604.893 1642.01 Q602.602 1642.98 600.194 1643.49 Q597.787 1644 595.31 1644 Q589.106 1644 585.472 1640.39 Q581.861 1636.78 581.861 1630.62 Q581.861 1624.25 585.287 1620.53 Q588.736 1616.78 594.569 1616.78 Q599.801 1616.78 602.833 1620.16 Q605.889 1623.51 605.889 1629.3 M601.629 1628.05 Q601.583 1624.55 599.662 1622.47 Q597.764 1620.39 594.616 1620.39 Q591.051 1620.39 588.898 1622.4 Q586.768 1624.42 586.444 1628.07 L601.629 1628.05 Z" fill="#000000" fill-rule="nonzero" fill-opacity="1" /><path clip-path="url(#clip570)" d="M627.902 1621.38 Q627.185 1620.97 626.328 1620.78 Q625.495 1620.57 624.476 1620.57 Q620.865 1620.57 618.921 1622.93 Q617 1625.27 617 1629.67 L617 1643.33 L612.717 1643.33 L612.717 1617.4 L617 1617.4 L617 1621.43 Q618.342 1619.07 620.495 1617.93 Q622.648 1616.78 625.726 1616.78 Q626.166 1616.78 626.699 1616.85 Q627.231 1616.89 627.879 1617.01 L627.902 1621.38 Z" fill="#000000" fill-rule="nonzero" fill-opacity="1" /><path clip-path="url(#clip570)" d="M632.37 1617.4 L636.629 1617.4 L636.629 1643.33 L632.37 1643.33 L632.37 1617.4 M632.37 1607.31 L636.629 1607.31 L636.629 1612.7 L632.37 1612.7 L632.37 1607.31 Z" fill="#000000" fill-rule="nonzero" fill-opacity="1" /><path clip-path="url(#clip570)" d="M655.587 1620.39 Q652.162 1620.39 650.171 1623.07 Q648.18 1625.74 648.18 1630.39 Q648.18 1635.04 650.148 1637.73 Q652.138 1640.39 655.587 1640.39 Q658.99 1640.39 660.981 1637.7 Q662.972 1635.02 662.972 1630.39 Q662.972 1625.78 660.981 1623.1 Q658.99 1620.39 655.587 1620.39 M655.587 1616.78 Q661.143 1616.78 664.314 1620.39 Q667.486 1624 667.486 1630.39 Q667.486 1636.75 664.314 1640.39 Q661.143 1644 655.587 1644 Q650.009 1644 646.837 1640.39 Q643.689 1636.75 643.689 1630.39 Q643.689 1624 646.837 1620.39 Q650.009 1616.78 655.587 1616.78 Z" fill="#000000" fill-rule="nonzero" fill-opacity="1" /><path clip-path="url(#clip570)" d="M689.569 1621.38 Q688.851 1620.97 687.995 1620.78 Q687.161 1620.57 686.143 1620.57 Q682.532 1620.57 680.587 1622.93 Q678.666 1625.27 678.666 1629.67 L678.666 1643.33 L674.384 1643.33 L674.384 1617.4 L678.666 1617.4 L678.666 1621.43 Q680.009 1619.07 682.161 1617.93 Q684.314 1616.78 687.393 1616.78 Q687.833 1616.78 688.365 1616.85 Q688.897 1616.89 689.546 1617.01 L689.569 1621.38 Z" fill="#000000" fill-rule="nonzero" fill-opacity="1" /></svg>
