<?xml version="1.0" encoding="utf-8"?>
<svg xmlns="http://www.w3.org/2000/svg" xmlns:xlink="http://www.w3.org/1999/xlink" width="480" height="384" viewBox="0 0 1920 1536">
<defs>
  <clipPath id="clip790">
    <rect x="0" y="0" width="1920" height="1536"/>
  </clipPath>
</defs>
<path clip-path="url(#clip790)" d="M0 1536 L1920 1536 L1920 0 L0 0  Z" fill="#ffffff" fill-rule="evenodd" fill-opacity="1"/>
<defs>
  <clipPath id="clip791">
    <rect x="254" y="47" width="1620" height="1297"/>
  </clipPath>
</defs>
<path clip-path="url(#clip790)" d="M284.894 1343.4 L1872.76 1343.4 L1872.76 47.2441 L284.894 47.2441  Z" fill="#ffffff" fill-rule="evenodd" fill-opacity="1"/>
<defs>
  <clipPath id="clip792">
    <rect x="284" y="47" width="1589" height="1297"/>
  </clipPath>
</defs>
<polyline clip-path="url(#clip792)" style="stroke:#000000; stroke-linecap:round; stroke-linejoin:round; stroke-width:2; stroke-opacity:0.1; fill:none" points="329.834,1343.4 329.834,47.2441 "/>
<polyline clip-path="url(#clip792)" style="stroke:#000000; stroke-linecap:round; stroke-linejoin:round; stroke-width:2; stroke-opacity:0.1; fill:none" points="704.329,1343.4 704.329,47.2441 "/>
<polyline clip-path="url(#clip792)" style="stroke:#000000; stroke-linecap:round; stroke-linejoin:round; stroke-width:2; stroke-opacity:0.1; fill:none" points="1078.82,1343.4 1078.82,47.2441 "/>
<polyline clip-path="url(#clip792)" style="stroke:#000000; stroke-linecap:round; stroke-linejoin:round; stroke-width:2; stroke-opacity:0.1; fill:none" points="1453.32,1343.4 1453.32,47.2441 "/>
<polyline clip-path="url(#clip792)" style="stroke:#000000; stroke-linecap:round; stroke-linejoin:round; stroke-width:2; stroke-opacity:0.1; fill:none" points="1827.82,1343.4 1827.82,47.2441 "/>
<polyline clip-path="url(#clip792)" style="stroke:#000000; stroke-linecap:round; stroke-linejoin:round; stroke-width:2; stroke-opacity:0.1; fill:none" points="284.894,1306.72 1872.76,1306.72 "/>
<polyline clip-path="url(#clip792)" style="stroke:#000000; stroke-linecap:round; stroke-linejoin:round; stroke-width:2; stroke-opacity:0.1; fill:none" points="284.894,1118.89 1872.76,1118.89 "/>
<polyline clip-path="url(#clip792)" style="stroke:#000000; stroke-linecap:round; stroke-linejoin:round; stroke-width:2; stroke-opacity:0.1; fill:none" points="284.894,931.069 1872.76,931.069 "/>
<polyline clip-path="url(#clip792)" style="stroke:#000000; stroke-linecap:round; stroke-linejoin:round; stroke-width:2; stroke-opacity:0.1; fill:none" points="284.894,743.244 1872.76,743.244 "/>
<polyline clip-path="url(#clip792)" style="stroke:#000000; stroke-linecap:round; stroke-linejoin:round; stroke-width:2; stroke-opacity:0.1; fill:none" points="284.894,555.418 1872.76,555.418 "/>
<polyline clip-path="url(#clip792)" style="stroke:#000000; stroke-linecap:round; stroke-linejoin:round; stroke-width:2; stroke-opacity:0.1; fill:none" points="284.894,367.592 1872.76,367.592 "/>
<polyline clip-path="url(#clip792)" style="stroke:#000000; stroke-linecap:round; stroke-linejoin:round; stroke-width:2; stroke-opacity:0.1; fill:none" points="284.894,179.767 1872.76,179.767 "/>
<polyline clip-path="url(#clip790)" style="stroke:#000000; stroke-linecap:round; stroke-linejoin:round; stroke-width:4; stroke-opacity:1; fill:none" points="284.894,1343.4 1872.76,1343.4 "/>
<polyline clip-path="url(#clip790)" style="stroke:#000000; stroke-linecap:round; stroke-linejoin:round; stroke-width:4; stroke-opacity:1; fill:none" points="329.834,1343.4 329.834,1324.51 "/>
<polyline clip-path="url(#clip790)" style="stroke:#000000; stroke-linecap:round; stroke-linejoin:round; stroke-width:4; stroke-opacity:1; fill:none" points="704.329,1343.4 704.329,1324.51 "/>
<polyline clip-path="url(#clip790)" style="stroke:#000000; stroke-linecap:round; stroke-linejoin:round; stroke-width:4; stroke-opacity:1; fill:none" points="1078.82,1343.4 1078.82,1324.51 "/>
<polyline clip-path="url(#clip790)" style="stroke:#000000; stroke-linecap:round; stroke-linejoin:round; stroke-width:4; stroke-opacity:1; fill:none" points="1453.32,1343.4 1453.32,1324.51 "/>
<polyline clip-path="url(#clip790)" style="stroke:#000000; stroke-linecap:round; stroke-linejoin:round; stroke-width:4; stroke-opacity:1; fill:none" points="1827.82,1343.4 1827.82,1324.51 "/>
<path clip-path="url(#clip790)" d="M292.137 1370.48 Q288.526 1370.48 286.697 1374.05 Q284.892 1377.59 284.892 1384.72 Q284.892 1391.83 286.697 1395.39 Q288.526 1398.93 292.137 1398.93 Q295.771 1398.93 297.577 1395.39 Q299.405 1391.83 299.405 1384.72 Q299.405 1377.59 297.577 1374.05 Q295.771 1370.48 292.137 1370.48 M292.137 1366.78 Q297.947 1366.78 301.003 1371.39 Q304.081 1375.97 304.081 1384.72 Q304.081 1393.45 301.003 1398.05 Q297.947 1402.64 292.137 1402.64 Q286.327 1402.64 283.248 1398.05 Q280.193 1393.45 280.193 1384.72 Q280.193 1375.97 283.248 1371.39 Q286.327 1366.78 292.137 1366.78 Z" fill="#000000" fill-rule="nonzero" fill-opacity="1" /><path clip-path="url(#clip790)" d="M312.299 1396.08 L317.183 1396.08 L317.183 1401.96 L312.299 1401.96 L312.299 1396.08 Z" fill="#000000" fill-rule="nonzero" fill-opacity="1" /><path clip-path="url(#clip790)" d="M337.368 1370.48 Q333.757 1370.48 331.928 1374.05 Q330.123 1377.59 330.123 1384.72 Q330.123 1391.83 331.928 1395.39 Q333.757 1398.93 337.368 1398.93 Q341.002 1398.93 342.808 1395.39 Q344.637 1391.83 344.637 1384.72 Q344.637 1377.59 342.808 1374.05 Q341.002 1370.48 337.368 1370.48 M337.368 1366.78 Q343.178 1366.78 346.234 1371.39 Q349.313 1375.97 349.313 1384.72 Q349.313 1393.45 346.234 1398.05 Q343.178 1402.64 337.368 1402.64 Q331.558 1402.64 328.479 1398.05 Q325.424 1393.45 325.424 1384.72 Q325.424 1375.97 328.479 1371.39 Q331.558 1366.78 337.368 1366.78 Z" fill="#000000" fill-rule="nonzero" fill-opacity="1" /><path clip-path="url(#clip790)" d="M367.53 1370.48 Q363.919 1370.48 362.09 1374.05 Q360.285 1377.59 360.285 1384.72 Q360.285 1391.83 362.09 1395.39 Q363.919 1398.93 367.53 1398.93 Q371.164 1398.93 372.97 1395.39 Q374.799 1391.83 374.799 1384.72 Q374.799 1377.59 372.97 1374.05 Q371.164 1370.48 367.53 1370.48 M367.53 1366.78 Q373.34 1366.78 376.396 1371.39 Q379.474 1375.97 379.474 1384.72 Q379.474 1393.45 376.396 1398.05 Q373.34 1402.64 367.53 1402.64 Q361.72 1402.64 358.641 1398.05 Q355.586 1393.45 355.586 1384.72 Q355.586 1375.97 358.641 1371.39 Q361.72 1366.78 367.53 1366.78 Z" fill="#000000" fill-rule="nonzero" fill-opacity="1" /><path clip-path="url(#clip790)" d="M667.13 1370.48 Q663.519 1370.48 661.691 1374.05 Q659.885 1377.59 659.885 1384.72 Q659.885 1391.83 661.691 1395.39 Q663.519 1398.93 667.13 1398.93 Q670.765 1398.93 672.57 1395.39 Q674.399 1391.83 674.399 1384.72 Q674.399 1377.59 672.57 1374.05 Q670.765 1370.48 667.13 1370.48 M667.13 1366.78 Q672.941 1366.78 675.996 1371.39 Q679.075 1375.97 679.075 1384.72 Q679.075 1393.45 675.996 1398.05 Q672.941 1402.64 667.13 1402.64 Q661.32 1402.64 658.242 1398.05 Q655.186 1393.45 655.186 1384.72 Q655.186 1375.97 658.242 1371.39 Q661.32 1366.78 667.13 1366.78 Z" fill="#000000" fill-rule="nonzero" fill-opacity="1" /><path clip-path="url(#clip790)" d="M687.292 1396.08 L692.177 1396.08 L692.177 1401.96 L687.292 1401.96 L687.292 1396.08 Z" fill="#000000" fill-rule="nonzero" fill-opacity="1" /><path clip-path="url(#clip790)" d="M706.389 1398.03 L722.709 1398.03 L722.709 1401.96 L700.764 1401.96 L700.764 1398.03 Q703.426 1395.27 708.01 1390.64 Q712.616 1385.99 713.797 1384.65 Q716.042 1382.13 716.922 1380.39 Q717.825 1378.63 717.825 1376.94 Q717.825 1374.19 715.88 1372.45 Q713.959 1370.71 710.857 1370.71 Q708.658 1370.71 706.204 1371.48 Q703.774 1372.24 700.996 1373.79 L700.996 1369.07 Q703.82 1367.94 706.274 1367.36 Q708.727 1366.78 710.764 1366.78 Q716.135 1366.78 719.329 1369.46 Q722.524 1372.15 722.524 1376.64 Q722.524 1378.77 721.713 1380.69 Q720.926 1382.59 718.82 1385.18 Q718.241 1385.85 715.139 1389.07 Q712.038 1392.26 706.389 1398.03 Z" fill="#000000" fill-rule="nonzero" fill-opacity="1" /><path clip-path="url(#clip790)" d="M732.57 1367.4 L750.926 1367.4 L750.926 1371.34 L736.852 1371.34 L736.852 1379.81 Q737.871 1379.46 738.889 1379.3 Q739.908 1379.12 740.926 1379.12 Q746.713 1379.12 750.093 1382.29 Q753.472 1385.46 753.472 1390.88 Q753.472 1396.45 750 1399.56 Q746.528 1402.64 740.209 1402.64 Q738.033 1402.64 735.764 1402.26 Q733.519 1401.89 731.111 1401.15 L731.111 1396.45 Q733.195 1397.59 735.417 1398.14 Q737.639 1398.7 740.116 1398.7 Q744.121 1398.7 746.459 1396.59 Q748.797 1394.49 748.797 1390.88 Q748.797 1387.26 746.459 1385.16 Q744.121 1383.05 740.116 1383.05 Q738.241 1383.05 736.366 1383.47 Q734.514 1383.89 732.57 1384.76 L732.57 1367.4 Z" fill="#000000" fill-rule="nonzero" fill-opacity="1" /><path clip-path="url(#clip790)" d="M1041.13 1370.48 Q1037.52 1370.48 1035.69 1374.05 Q1033.88 1377.59 1033.88 1384.72 Q1033.88 1391.83 1035.69 1395.39 Q1037.52 1398.93 1041.13 1398.93 Q1044.76 1398.93 1046.57 1395.39 Q1048.4 1391.83 1048.4 1384.72 Q1048.4 1377.59 1046.57 1374.05 Q1044.76 1370.48 1041.13 1370.48 M1041.13 1366.78 Q1046.94 1366.78 1049.99 1371.39 Q1053.07 1375.97 1053.07 1384.72 Q1053.07 1393.45 1049.99 1398.05 Q1046.94 1402.64 1041.13 1402.64 Q1035.32 1402.64 1032.24 1398.05 Q1029.18 1393.45 1029.18 1384.72 Q1029.18 1375.97 1032.24 1371.39 Q1035.32 1366.78 1041.13 1366.78 Z" fill="#000000" fill-rule="nonzero" fill-opacity="1" /><path clip-path="url(#clip790)" d="M1061.29 1396.08 L1066.17 1396.08 L1066.17 1401.96 L1061.29 1401.96 L1061.29 1396.08 Z" fill="#000000" fill-rule="nonzero" fill-opacity="1" /><path clip-path="url(#clip790)" d="M1076.41 1367.4 L1094.76 1367.4 L1094.76 1371.34 L1080.69 1371.34 L1080.69 1379.81 Q1081.71 1379.46 1082.73 1379.3 Q1083.74 1379.12 1084.76 1379.12 Q1090.55 1379.12 1093.93 1382.29 Q1097.31 1385.46 1097.31 1390.88 Q1097.31 1396.45 1093.84 1399.56 Q1090.36 1402.64 1084.04 1402.64 Q1081.87 1402.64 1079.6 1402.26 Q1077.36 1401.89 1074.95 1401.15 L1074.95 1396.45 Q1077.03 1397.59 1079.25 1398.14 Q1081.48 1398.7 1083.95 1398.7 Q1087.96 1398.7 1090.29 1396.59 Q1092.63 1394.49 1092.63 1390.88 Q1092.63 1387.26 1090.29 1385.16 Q1087.96 1383.05 1083.95 1383.05 Q1082.08 1383.05 1080.2 1383.47 Q1078.35 1383.89 1076.41 1384.76 L1076.41 1367.4 Z" fill="#000000" fill-rule="nonzero" fill-opacity="1" /><path clip-path="url(#clip790)" d="M1116.52 1370.48 Q1112.91 1370.48 1111.08 1374.05 Q1109.28 1377.59 1109.28 1384.72 Q1109.28 1391.83 1111.08 1395.39 Q1112.91 1398.93 1116.52 1398.93 Q1120.16 1398.93 1121.96 1395.39 Q1123.79 1391.83 1123.79 1384.72 Q1123.79 1377.59 1121.96 1374.05 Q1120.16 1370.48 1116.52 1370.48 M1116.52 1366.78 Q1122.33 1366.78 1125.39 1371.39 Q1128.47 1375.97 1128.47 1384.72 Q1128.47 1393.45 1125.39 1398.05 Q1122.33 1402.64 1116.52 1402.64 Q1110.71 1402.64 1107.63 1398.05 Q1104.58 1393.45 1104.58 1384.72 Q1104.58 1375.97 1107.63 1371.39 Q1110.71 1366.78 1116.52 1366.78 Z" fill="#000000" fill-rule="nonzero" fill-opacity="1" /><path clip-path="url(#clip790)" d="M1416.12 1370.48 Q1412.51 1370.48 1410.68 1374.05 Q1408.88 1377.59 1408.88 1384.72 Q1408.88 1391.83 1410.68 1395.39 Q1412.51 1398.93 1416.12 1398.93 Q1419.76 1398.93 1421.56 1395.39 Q1423.39 1391.83 1423.39 1384.72 Q1423.39 1377.59 1421.56 1374.05 Q1419.76 1370.48 1416.12 1370.48 M1416.12 1366.78 Q1421.93 1366.78 1424.99 1371.39 Q1428.07 1375.97 1428.07 1384.72 Q1428.07 1393.45 1424.99 1398.05 Q1421.93 1402.64 1416.12 1402.64 Q1410.31 1402.64 1407.23 1398.05 Q1404.18 1393.45 1404.18 1384.72 Q1404.18 1375.97 1407.23 1371.39 Q1410.31 1366.78 1416.12 1366.78 Z" fill="#000000" fill-rule="nonzero" fill-opacity="1" /><path clip-path="url(#clip790)" d="M1436.28 1396.08 L1441.17 1396.08 L1441.17 1401.96 L1436.28 1401.96 L1436.28 1396.08 Z" fill="#000000" fill-rule="nonzero" fill-opacity="1" /><path clip-path="url(#clip790)" d="M1450.17 1367.4 L1472.39 1367.4 L1472.39 1369.39 L1459.85 1401.96 L1454.96 1401.96 L1466.77 1371.34 L1450.17 1371.34 L1450.17 1367.4 Z" fill="#000000" fill-rule="nonzero" fill-opacity="1" /><path clip-path="url(#clip790)" d="M1481.56 1367.4 L1499.92 1367.4 L1499.92 1371.34 L1485.84 1371.34 L1485.84 1379.81 Q1486.86 1379.46 1487.88 1379.3 Q1488.9 1379.12 1489.92 1379.12 Q1495.7 1379.12 1499.08 1382.29 Q1502.46 1385.46 1502.46 1390.88 Q1502.46 1396.45 1498.99 1399.56 Q1495.52 1402.64 1489.2 1402.64 Q1487.02 1402.64 1484.76 1402.26 Q1482.51 1401.89 1480.1 1401.15 L1480.1 1396.45 Q1482.19 1397.59 1484.41 1398.14 Q1486.63 1398.7 1489.11 1398.7 Q1493.11 1398.7 1495.45 1396.59 Q1497.79 1394.49 1497.79 1390.88 Q1497.79 1387.26 1495.45 1385.16 Q1493.11 1383.05 1489.11 1383.05 Q1487.23 1383.05 1485.36 1383.47 Q1483.51 1383.89 1481.56 1384.76 L1481.56 1367.4 Z" fill="#000000" fill-rule="nonzero" fill-opacity="1" /><path clip-path="url(#clip790)" d="M1779.89 1398.03 L1787.53 1398.03 L1787.53 1371.66 L1779.22 1373.33 L1779.22 1369.07 L1787.48 1367.4 L1792.16 1367.4 L1792.16 1398.03 L1799.8 1398.03 L1799.8 1401.96 L1779.89 1401.96 L1779.89 1398.03 Z" fill="#000000" fill-rule="nonzero" fill-opacity="1" /><path clip-path="url(#clip790)" d="M1809.24 1396.08 L1814.12 1396.08 L1814.12 1401.96 L1809.24 1401.96 L1809.24 1396.08 Z" fill="#000000" fill-rule="nonzero" fill-opacity="1" /><path clip-path="url(#clip790)" d="M1834.31 1370.48 Q1830.7 1370.48 1828.87 1374.05 Q1827.06 1377.59 1827.06 1384.72 Q1827.06 1391.83 1828.87 1395.39 Q1830.7 1398.93 1834.31 1398.93 Q1837.94 1398.93 1839.75 1395.39 Q1841.58 1391.83 1841.58 1384.72 Q1841.58 1377.59 1839.75 1374.05 Q1837.94 1370.48 1834.31 1370.48 M1834.31 1366.78 Q1840.12 1366.78 1843.18 1371.39 Q1846.25 1375.97 1846.25 1384.72 Q1846.25 1393.45 1843.18 1398.05 Q1840.12 1402.64 1834.31 1402.64 Q1828.5 1402.64 1825.42 1398.05 Q1822.37 1393.45 1822.37 1384.72 Q1822.37 1375.97 1825.42 1371.39 Q1828.5 1366.78 1834.31 1366.78 Z" fill="#000000" fill-rule="nonzero" fill-opacity="1" /><path clip-path="url(#clip790)" d="M1864.47 1370.48 Q1860.86 1370.48 1859.03 1374.05 Q1857.23 1377.59 1857.23 1384.72 Q1857.23 1391.83 1859.03 1395.39 Q1860.86 1398.93 1864.47 1398.93 Q1868.11 1398.93 1869.91 1395.39 Q1871.74 1391.83 1871.74 1384.72 Q1871.74 1377.59 1869.91 1374.05 Q1868.11 1370.48 1864.47 1370.48 M1864.47 1366.78 Q1870.28 1366.78 1873.34 1371.39 Q1876.42 1375.97 1876.42 1384.72 Q1876.42 1393.45 1873.34 1398.05 Q1870.28 1402.64 1864.47 1402.64 Q1858.66 1402.64 1855.58 1398.05 Q1852.53 1393.45 1852.53 1384.72 Q1852.53 1375.97 1855.58 1371.39 Q1858.66 1366.78 1864.47 1366.78 Z" fill="#000000" fill-rule="nonzero" fill-opacity="1" /><path clip-path="url(#clip790)" d="M1093 1441.82 Q1093 1443.62 1091.87 1444.65 Q1090.74 1445.65 1089.46 1445.65 Q1088.23 1445.65 1087.59 1444.94 Q1086.94 1444.24 1086.94 1443.33 Q1086.94 1442.11 1087.85 1441.05 Q1088.75 1439.98 1090.1 1439.76 Q1088.78 1438.92 1086.82 1438.92 Q1085.53 1438.92 1084.4 1439.6 Q1083.31 1440.27 1082.63 1441.14 Q1081.98 1442.01 1081.41 1443.27 Q1080.86 1444.49 1080.63 1445.23 Q1080.44 1445.94 1080.28 1446.72 L1078.02 1455.73 Q1076.93 1460.02 1076.93 1461.53 Q1076.93 1463.4 1077.83 1464.65 Q1078.73 1465.88 1080.54 1465.88 Q1081.24 1465.88 1082.05 1465.68 Q1082.85 1465.46 1083.89 1464.88 Q1084.95 1464.27 1085.88 1463.37 Q1086.85 1462.43 1087.78 1460.85 Q1088.72 1459.28 1089.33 1457.25 Q1089.52 1456.54 1090.17 1456.54 Q1090.97 1456.54 1090.97 1457.18 Q1090.97 1457.73 1090.52 1458.89 Q1090.1 1460.02 1089.17 1461.5 Q1088.27 1462.95 1087.07 1464.27 Q1085.88 1465.56 1084.11 1466.46 Q1082.34 1467.36 1080.41 1467.36 Q1077.64 1467.36 1075.8 1465.88 Q1073.97 1464.4 1073.29 1462.33 Q1073.13 1462.62 1072.9 1463.01 Q1072.68 1463.4 1072 1464.27 Q1071.36 1465.1 1070.62 1465.75 Q1069.88 1466.36 1068.72 1466.84 Q1067.59 1467.36 1066.37 1467.36 Q1064.82 1467.36 1063.43 1466.91 Q1062.08 1466.46 1061.12 1465.43 Q1060.15 1464.4 1060.15 1462.98 Q1060.15 1461.4 1061.21 1460.31 Q1062.31 1459.18 1063.79 1459.18 Q1064.72 1459.18 1065.46 1459.73 Q1066.24 1460.27 1066.24 1461.47 Q1066.24 1462.79 1065.33 1463.78 Q1064.43 1464.78 1063.14 1465.04 Q1064.46 1465.88 1066.43 1465.88 Q1068.56 1465.88 1070.23 1464.01 Q1071.9 1462.14 1072.71 1459.02 Q1074.71 1451.51 1075.48 1448.16 Q1076.25 1444.78 1076.25 1443.33 Q1076.25 1441.98 1075.9 1441.05 Q1075.54 1440.11 1074.93 1439.69 Q1074.35 1439.24 1073.8 1439.08 Q1073.29 1438.92 1072.71 1438.92 Q1071.74 1438.92 1070.65 1439.31 Q1069.59 1439.69 1068.3 1440.6 Q1067.04 1441.47 1065.85 1443.27 Q1064.66 1445.07 1063.85 1447.55 Q1063.69 1448.29 1062.98 1448.29 Q1062.21 1448.26 1062.21 1447.62 Q1062.21 1447.07 1062.63 1445.94 Q1063.08 1444.78 1063.98 1443.33 Q1064.92 1441.88 1066.11 1440.6 Q1067.33 1439.28 1069.1 1438.37 Q1070.91 1437.47 1072.84 1437.47 Q1073.71 1437.47 1074.55 1437.67 Q1075.41 1437.83 1076.45 1438.31 Q1077.51 1438.79 1078.44 1439.86 Q1079.38 1440.92 1079.96 1442.46 Q1080.34 1441.72 1080.86 1441.01 Q1081.41 1440.31 1082.24 1439.44 Q1083.11 1438.53 1084.3 1438.02 Q1085.53 1437.47 1086.88 1437.47 Q1088.2 1437.47 1089.49 1437.83 Q1090.78 1438.15 1091.87 1439.21 Q1093 1440.24 1093 1441.82 Z" fill="#000000" fill-rule="nonzero" fill-opacity="1" /><polyline clip-path="url(#clip790)" style="stroke:#000000; stroke-linecap:round; stroke-linejoin:round; stroke-width:4; stroke-opacity:1; fill:none" points="284.894,1343.4 284.894,47.2441 "/>
<polyline clip-path="url(#clip790)" style="stroke:#000000; stroke-linecap:round; stroke-linejoin:round; stroke-width:4; stroke-opacity:1; fill:none" points="284.894,1306.72 303.792,1306.72 "/>
<polyline clip-path="url(#clip790)" style="stroke:#000000; stroke-linecap:round; stroke-linejoin:round; stroke-width:4; stroke-opacity:1; fill:none" points="284.894,1118.89 303.792,1118.89 "/>
<polyline clip-path="url(#clip790)" style="stroke:#000000; stroke-linecap:round; stroke-linejoin:round; stroke-width:4; stroke-opacity:1; fill:none" points="284.894,931.069 303.792,931.069 "/>
<polyline clip-path="url(#clip790)" style="stroke:#000000; stroke-linecap:round; stroke-linejoin:round; stroke-width:4; stroke-opacity:1; fill:none" points="284.894,743.244 303.792,743.244 "/>
<polyline clip-path="url(#clip790)" style="stroke:#000000; stroke-linecap:round; stroke-linejoin:round; stroke-width:4; stroke-opacity:1; fill:none" points="284.894,555.418 303.792,555.418 "/>
<polyline clip-path="url(#clip790)" style="stroke:#000000; stroke-linecap:round; stroke-linejoin:round; stroke-width:4; stroke-opacity:1; fill:none" points="284.894,367.592 303.792,367.592 "/>
<polyline clip-path="url(#clip790)" style="stroke:#000000; stroke-linecap:round; stroke-linejoin:round; stroke-width:4; stroke-opacity:1; fill:none" points="284.894,179.767 303.792,179.767 "/>
<path clip-path="url(#clip790)" d="M138.595 1292.52 Q134.984 1292.52 133.155 1296.08 Q131.349 1299.63 131.349 1306.75 Q131.349 1313.86 133.155 1317.43 Q134.984 1320.97 138.595 1320.97 Q142.229 1320.97 144.034 1317.43 Q145.863 1313.86 145.863 1306.75 Q145.863 1299.63 144.034 1296.08 Q142.229 1292.52 138.595 1292.52 M138.595 1288.82 Q144.405 1288.82 147.46 1293.42 Q150.539 1298 150.539 1306.75 Q150.539 1315.48 147.46 1320.09 Q144.405 1324.67 138.595 1324.67 Q132.784 1324.67 129.706 1320.09 Q126.65 1315.48 126.65 1306.75 Q126.65 1298 129.706 1293.42 Q132.784 1288.82 138.595 1288.82 Z" fill="#000000" fill-rule="nonzero" fill-opacity="1" /><path clip-path="url(#clip790)" d="M158.757 1318.12 L163.641 1318.12 L163.641 1324 L158.757 1324 L158.757 1318.12 Z" fill="#000000" fill-rule="nonzero" fill-opacity="1" /><path clip-path="url(#clip790)" d="M183.826 1292.52 Q180.215 1292.52 178.386 1296.08 Q176.581 1299.63 176.581 1306.75 Q176.581 1313.86 178.386 1317.43 Q180.215 1320.97 183.826 1320.97 Q187.46 1320.97 189.266 1317.43 Q191.094 1313.86 191.094 1306.75 Q191.094 1299.63 189.266 1296.08 Q187.46 1292.52 183.826 1292.52 M183.826 1288.82 Q189.636 1288.82 192.692 1293.42 Q195.77 1298 195.77 1306.75 Q195.77 1315.48 192.692 1320.09 Q189.636 1324.67 183.826 1324.67 Q178.016 1324.67 174.937 1320.09 Q171.882 1315.48 171.882 1306.75 Q171.882 1298 174.937 1293.42 Q178.016 1288.82 183.826 1288.82 Z" fill="#000000" fill-rule="nonzero" fill-opacity="1" /><path clip-path="url(#clip790)" d="M213.988 1292.52 Q210.377 1292.52 208.548 1296.08 Q206.742 1299.63 206.742 1306.75 Q206.742 1313.86 208.548 1317.43 Q210.377 1320.97 213.988 1320.97 Q217.622 1320.97 219.428 1317.43 Q221.256 1313.86 221.256 1306.75 Q221.256 1299.63 219.428 1296.08 Q217.622 1292.52 213.988 1292.52 M213.988 1288.82 Q219.798 1288.82 222.853 1293.42 Q225.932 1298 225.932 1306.75 Q225.932 1315.48 222.853 1320.09 Q219.798 1324.67 213.988 1324.67 Q208.178 1324.67 205.099 1320.09 Q202.043 1315.48 202.043 1306.75 Q202.043 1298 205.099 1293.42 Q208.178 1288.82 213.988 1288.82 Z" fill="#000000" fill-rule="nonzero" fill-opacity="1" /><path clip-path="url(#clip790)" d="M244.15 1292.52 Q240.539 1292.52 238.71 1296.08 Q236.904 1299.63 236.904 1306.75 Q236.904 1313.86 238.71 1317.43 Q240.539 1320.97 244.15 1320.97 Q247.784 1320.97 249.589 1317.43 Q251.418 1313.86 251.418 1306.75 Q251.418 1299.63 249.589 1296.08 Q247.784 1292.52 244.15 1292.52 M244.15 1288.82 Q249.96 1288.82 253.015 1293.42 Q256.094 1298 256.094 1306.75 Q256.094 1315.48 253.015 1320.09 Q249.96 1324.67 244.15 1324.67 Q238.339 1324.67 235.261 1320.09 Q232.205 1315.48 232.205 1306.75 Q232.205 1298 235.261 1293.42 Q238.339 1288.82 244.15 1288.82 Z" fill="#000000" fill-rule="nonzero" fill-opacity="1" /><path clip-path="url(#clip790)" d="M140.192 1104.69 Q136.581 1104.69 134.752 1108.26 Q132.947 1111.8 132.947 1118.93 Q132.947 1126.04 134.752 1129.6 Q136.581 1133.14 140.192 1133.14 Q143.826 1133.14 145.632 1129.6 Q147.46 1126.04 147.46 1118.93 Q147.46 1111.8 145.632 1108.26 Q143.826 1104.69 140.192 1104.69 M140.192 1100.99 Q146.002 1100.99 149.058 1105.6 Q152.136 1110.18 152.136 1118.93 Q152.136 1127.66 149.058 1132.26 Q146.002 1136.85 140.192 1136.85 Q134.382 1136.85 131.303 1132.26 Q128.247 1127.66 128.247 1118.93 Q128.247 1110.18 131.303 1105.6 Q134.382 1100.99 140.192 1100.99 Z" fill="#000000" fill-rule="nonzero" fill-opacity="1" /><path clip-path="url(#clip790)" d="M160.354 1130.29 L165.238 1130.29 L165.238 1136.17 L160.354 1136.17 L160.354 1130.29 Z" fill="#000000" fill-rule="nonzero" fill-opacity="1" /><path clip-path="url(#clip790)" d="M185.423 1104.69 Q181.812 1104.69 179.983 1108.26 Q178.178 1111.8 178.178 1118.93 Q178.178 1126.04 179.983 1129.6 Q181.812 1133.14 185.423 1133.14 Q189.057 1133.14 190.863 1129.6 Q192.692 1126.04 192.692 1118.93 Q192.692 1111.8 190.863 1108.26 Q189.057 1104.69 185.423 1104.69 M185.423 1100.99 Q191.233 1100.99 194.289 1105.6 Q197.367 1110.18 197.367 1118.93 Q197.367 1127.66 194.289 1132.26 Q191.233 1136.85 185.423 1136.85 Q179.613 1136.85 176.534 1132.26 Q173.479 1127.66 173.479 1118.93 Q173.479 1110.18 176.534 1105.6 Q179.613 1100.99 185.423 1100.99 Z" fill="#000000" fill-rule="nonzero" fill-opacity="1" /><path clip-path="url(#clip790)" d="M215.585 1104.69 Q211.974 1104.69 210.145 1108.26 Q208.34 1111.8 208.34 1118.93 Q208.34 1126.04 210.145 1129.6 Q211.974 1133.14 215.585 1133.14 Q219.219 1133.14 221.025 1129.6 Q222.853 1126.04 222.853 1118.93 Q222.853 1111.8 221.025 1108.26 Q219.219 1104.69 215.585 1104.69 M215.585 1100.99 Q221.395 1100.99 224.451 1105.6 Q227.529 1110.18 227.529 1118.93 Q227.529 1127.66 224.451 1132.26 Q221.395 1136.85 215.585 1136.85 Q209.775 1136.85 206.696 1132.26 Q203.641 1127.66 203.641 1118.93 Q203.641 1110.18 206.696 1105.6 Q209.775 1100.99 215.585 1100.99 Z" fill="#000000" fill-rule="nonzero" fill-opacity="1" /><path clip-path="url(#clip790)" d="M239.775 1132.24 L256.094 1132.24 L256.094 1136.17 L234.15 1136.17 L234.15 1132.24 Q236.812 1129.48 241.395 1124.86 Q246.001 1120.2 247.182 1118.86 Q249.427 1116.34 250.307 1114.6 Q251.21 1112.84 251.21 1111.15 Q251.21 1108.4 249.265 1106.66 Q247.344 1104.92 244.242 1104.92 Q242.043 1104.92 239.589 1105.69 Q237.159 1106.45 234.381 1108 L234.381 1103.28 Q237.205 1102.15 239.659 1101.57 Q242.113 1100.99 244.15 1100.99 Q249.52 1100.99 252.714 1103.67 Q255.909 1106.36 255.909 1110.85 Q255.909 1112.98 255.099 1114.9 Q254.312 1116.8 252.205 1119.39 Q251.626 1120.06 248.525 1123.28 Q245.423 1126.48 239.775 1132.24 Z" fill="#000000" fill-rule="nonzero" fill-opacity="1" /><path clip-path="url(#clip790)" d="M138.109 916.868 Q134.497 916.868 132.669 920.433 Q130.863 923.974 130.863 931.104 Q130.863 938.21 132.669 941.775 Q134.497 945.317 138.109 945.317 Q141.743 945.317 143.548 941.775 Q145.377 938.21 145.377 931.104 Q145.377 923.974 143.548 920.433 Q141.743 916.868 138.109 916.868 M138.109 913.164 Q143.919 913.164 146.974 917.77 Q150.053 922.354 150.053 931.104 Q150.053 939.831 146.974 944.437 Q143.919 949.02 138.109 949.02 Q132.298 949.02 129.22 944.437 Q126.164 939.831 126.164 931.104 Q126.164 922.354 129.22 917.77 Q132.298 913.164 138.109 913.164 Z" fill="#000000" fill-rule="nonzero" fill-opacity="1" /><path clip-path="url(#clip790)" d="M158.27 942.469 L163.155 942.469 L163.155 948.349 L158.27 948.349 L158.27 942.469 Z" fill="#000000" fill-rule="nonzero" fill-opacity="1" /><path clip-path="url(#clip790)" d="M183.34 916.868 Q179.729 916.868 177.9 920.433 Q176.094 923.974 176.094 931.104 Q176.094 938.21 177.9 941.775 Q179.729 945.317 183.34 945.317 Q186.974 945.317 188.78 941.775 Q190.608 938.21 190.608 931.104 Q190.608 923.974 188.78 920.433 Q186.974 916.868 183.34 916.868 M183.34 913.164 Q189.15 913.164 192.205 917.77 Q195.284 922.354 195.284 931.104 Q195.284 939.831 192.205 944.437 Q189.15 949.02 183.34 949.02 Q177.53 949.02 174.451 944.437 Q171.395 939.831 171.395 931.104 Q171.395 922.354 174.451 917.77 Q177.53 913.164 183.34 913.164 Z" fill="#000000" fill-rule="nonzero" fill-opacity="1" /><path clip-path="url(#clip790)" d="M213.502 916.868 Q209.891 916.868 208.062 920.433 Q206.256 923.974 206.256 931.104 Q206.256 938.21 208.062 941.775 Q209.891 945.317 213.502 945.317 Q217.136 945.317 218.941 941.775 Q220.77 938.21 220.77 931.104 Q220.77 923.974 218.941 920.433 Q217.136 916.868 213.502 916.868 M213.502 913.164 Q219.312 913.164 222.367 917.77 Q225.446 922.354 225.446 931.104 Q225.446 939.831 222.367 944.437 Q219.312 949.02 213.502 949.02 Q207.691 949.02 204.613 944.437 Q201.557 939.831 201.557 931.104 Q201.557 922.354 204.613 917.77 Q207.691 913.164 213.502 913.164 Z" fill="#000000" fill-rule="nonzero" fill-opacity="1" /><path clip-path="url(#clip790)" d="M246.511 917.863 L234.705 936.312 L246.511 936.312 L246.511 917.863 M245.284 913.789 L251.163 913.789 L251.163 936.312 L256.094 936.312 L256.094 940.201 L251.163 940.201 L251.163 948.349 L246.511 948.349 L246.511 940.201 L230.909 940.201 L230.909 935.687 L245.284 913.789 Z" fill="#000000" fill-rule="nonzero" fill-opacity="1" /><path clip-path="url(#clip790)" d="M138.433 729.042 Q134.822 729.042 132.993 732.607 Q131.187 736.149 131.187 743.278 Q131.187 750.385 132.993 753.949 Q134.822 757.491 138.433 757.491 Q142.067 757.491 143.872 753.949 Q145.701 750.385 145.701 743.278 Q145.701 736.149 143.872 732.607 Q142.067 729.042 138.433 729.042 M138.433 725.339 Q144.243 725.339 147.298 729.945 Q150.377 734.528 150.377 743.278 Q150.377 752.005 147.298 756.611 Q144.243 761.195 138.433 761.195 Q132.622 761.195 129.544 756.611 Q126.488 752.005 126.488 743.278 Q126.488 734.528 129.544 729.945 Q132.622 725.339 138.433 725.339 Z" fill="#000000" fill-rule="nonzero" fill-opacity="1" /><path clip-path="url(#clip790)" d="M158.595 754.644 L163.479 754.644 L163.479 760.524 L158.595 760.524 L158.595 754.644 Z" fill="#000000" fill-rule="nonzero" fill-opacity="1" /><path clip-path="url(#clip790)" d="M183.664 729.042 Q180.053 729.042 178.224 732.607 Q176.419 736.149 176.419 743.278 Q176.419 750.385 178.224 753.949 Q180.053 757.491 183.664 757.491 Q187.298 757.491 189.104 753.949 Q190.932 750.385 190.932 743.278 Q190.932 736.149 189.104 732.607 Q187.298 729.042 183.664 729.042 M183.664 725.339 Q189.474 725.339 192.53 729.945 Q195.608 734.528 195.608 743.278 Q195.608 752.005 192.53 756.611 Q189.474 761.195 183.664 761.195 Q177.854 761.195 174.775 756.611 Q171.719 752.005 171.719 743.278 Q171.719 734.528 174.775 729.945 Q177.854 725.339 183.664 725.339 Z" fill="#000000" fill-rule="nonzero" fill-opacity="1" /><path clip-path="url(#clip790)" d="M213.826 729.042 Q210.215 729.042 208.386 732.607 Q206.58 736.149 206.58 743.278 Q206.58 750.385 208.386 753.949 Q210.215 757.491 213.826 757.491 Q217.46 757.491 219.266 753.949 Q221.094 750.385 221.094 743.278 Q221.094 736.149 219.266 732.607 Q217.46 729.042 213.826 729.042 M213.826 725.339 Q219.636 725.339 222.691 729.945 Q225.77 734.528 225.77 743.278 Q225.77 752.005 222.691 756.611 Q219.636 761.195 213.826 761.195 Q208.016 761.195 204.937 756.611 Q201.881 752.005 201.881 743.278 Q201.881 734.528 204.937 729.945 Q208.016 725.339 213.826 725.339 Z" fill="#000000" fill-rule="nonzero" fill-opacity="1" /><path clip-path="url(#clip790)" d="M244.566 741.38 Q241.418 741.38 239.566 743.533 Q237.738 745.686 237.738 749.436 Q237.738 753.162 239.566 755.338 Q241.418 757.491 244.566 757.491 Q247.714 757.491 249.543 755.338 Q251.395 753.162 251.395 749.436 Q251.395 745.686 249.543 743.533 Q247.714 741.38 244.566 741.38 M253.849 726.727 L253.849 730.987 Q252.089 730.153 250.284 729.713 Q248.501 729.274 246.742 729.274 Q242.113 729.274 239.659 732.399 Q237.228 735.524 236.881 741.843 Q238.247 739.829 240.307 738.764 Q242.367 737.676 244.844 737.676 Q250.052 737.676 253.062 740.848 Q256.094 743.996 256.094 749.436 Q256.094 754.76 252.946 757.977 Q249.798 761.195 244.566 761.195 Q238.571 761.195 235.4 756.611 Q232.228 752.005 232.228 743.278 Q232.228 735.084 236.117 730.223 Q240.006 725.339 246.557 725.339 Q248.316 725.339 250.099 725.686 Q251.904 726.033 253.849 726.727 Z" fill="#000000" fill-rule="nonzero" fill-opacity="1" /><path clip-path="url(#clip790)" d="M138.687 541.217 Q135.076 541.217 133.247 544.781 Q131.442 548.323 131.442 555.453 Q131.442 562.559 133.247 566.124 Q135.076 569.666 138.687 569.666 Q142.321 569.666 144.127 566.124 Q145.956 562.559 145.956 555.453 Q145.956 548.323 144.127 544.781 Q142.321 541.217 138.687 541.217 M138.687 537.513 Q144.497 537.513 147.553 542.119 Q150.632 546.703 150.632 555.453 Q150.632 564.18 147.553 568.786 Q144.497 573.369 138.687 573.369 Q132.877 573.369 129.798 568.786 Q126.743 564.18 126.743 555.453 Q126.743 546.703 129.798 542.119 Q132.877 537.513 138.687 537.513 Z" fill="#000000" fill-rule="nonzero" fill-opacity="1" /><path clip-path="url(#clip790)" d="M158.849 566.818 L163.733 566.818 L163.733 572.698 L158.849 572.698 L158.849 566.818 Z" fill="#000000" fill-rule="nonzero" fill-opacity="1" /><path clip-path="url(#clip790)" d="M183.918 541.217 Q180.307 541.217 178.479 544.781 Q176.673 548.323 176.673 555.453 Q176.673 562.559 178.479 566.124 Q180.307 569.666 183.918 569.666 Q187.553 569.666 189.358 566.124 Q191.187 562.559 191.187 555.453 Q191.187 548.323 189.358 544.781 Q187.553 541.217 183.918 541.217 M183.918 537.513 Q189.729 537.513 192.784 542.119 Q195.863 546.703 195.863 555.453 Q195.863 564.18 192.784 568.786 Q189.729 573.369 183.918 573.369 Q178.108 573.369 175.03 568.786 Q171.974 564.18 171.974 555.453 Q171.974 546.703 175.03 542.119 Q178.108 537.513 183.918 537.513 Z" fill="#000000" fill-rule="nonzero" fill-opacity="1" /><path clip-path="url(#clip790)" d="M214.08 541.217 Q210.469 541.217 208.641 544.781 Q206.835 548.323 206.835 555.453 Q206.835 562.559 208.641 566.124 Q210.469 569.666 214.08 569.666 Q217.715 569.666 219.52 566.124 Q221.349 562.559 221.349 555.453 Q221.349 548.323 219.52 544.781 Q217.715 541.217 214.08 541.217 M214.08 537.513 Q219.891 537.513 222.946 542.119 Q226.025 546.703 226.025 555.453 Q226.025 564.18 222.946 568.786 Q219.891 573.369 214.08 573.369 Q208.27 573.369 205.192 568.786 Q202.136 564.18 202.136 555.453 Q202.136 546.703 205.192 542.119 Q208.27 537.513 214.08 537.513 Z" fill="#000000" fill-rule="nonzero" fill-opacity="1" /><path clip-path="url(#clip790)" d="M244.242 556.286 Q240.909 556.286 238.988 558.068 Q237.089 559.851 237.089 562.976 Q237.089 566.101 238.988 567.883 Q240.909 569.666 244.242 569.666 Q247.576 569.666 249.497 567.883 Q251.418 566.078 251.418 562.976 Q251.418 559.851 249.497 558.068 Q247.599 556.286 244.242 556.286 M239.566 554.295 Q236.557 553.555 234.867 551.494 Q233.201 549.434 233.201 546.471 Q233.201 542.328 236.14 539.92 Q239.103 537.513 244.242 537.513 Q249.404 537.513 252.344 539.92 Q255.284 542.328 255.284 546.471 Q255.284 549.434 253.594 551.494 Q251.927 553.555 248.941 554.295 Q252.321 555.082 254.196 557.374 Q256.094 559.666 256.094 562.976 Q256.094 567.999 253.015 570.684 Q249.96 573.369 244.242 573.369 Q238.525 573.369 235.446 570.684 Q232.39 567.999 232.39 562.976 Q232.39 559.666 234.289 557.374 Q236.187 555.082 239.566 554.295 M237.853 546.911 Q237.853 549.596 239.52 551.101 Q241.21 552.606 244.242 552.606 Q247.251 552.606 248.941 551.101 Q250.654 549.596 250.654 546.911 Q250.654 544.226 248.941 542.721 Q247.251 541.217 244.242 541.217 Q241.21 541.217 239.52 542.721 Q237.853 544.226 237.853 546.911 Z" fill="#000000" fill-rule="nonzero" fill-opacity="1" /><path clip-path="url(#clip790)" d="M138.595 353.391 Q134.984 353.391 133.155 356.956 Q131.349 360.498 131.349 367.627 Q131.349 374.734 133.155 378.298 Q134.984 381.84 138.595 381.84 Q142.229 381.84 144.034 378.298 Q145.863 374.734 145.863 367.627 Q145.863 360.498 144.034 356.956 Q142.229 353.391 138.595 353.391 M138.595 349.687 Q144.405 349.687 147.46 354.294 Q150.539 358.877 150.539 367.627 Q150.539 376.354 147.46 380.96 Q144.405 385.544 138.595 385.544 Q132.784 385.544 129.706 380.96 Q126.65 376.354 126.65 367.627 Q126.65 358.877 129.706 354.294 Q132.784 349.687 138.595 349.687 Z" fill="#000000" fill-rule="nonzero" fill-opacity="1" /><path clip-path="url(#clip790)" d="M158.757 378.993 L163.641 378.993 L163.641 384.872 L158.757 384.872 L158.757 378.993 Z" fill="#000000" fill-rule="nonzero" fill-opacity="1" /><path clip-path="url(#clip790)" d="M183.826 353.391 Q180.215 353.391 178.386 356.956 Q176.581 360.498 176.581 367.627 Q176.581 374.734 178.386 378.298 Q180.215 381.84 183.826 381.84 Q187.46 381.84 189.266 378.298 Q191.094 374.734 191.094 367.627 Q191.094 360.498 189.266 356.956 Q187.46 353.391 183.826 353.391 M183.826 349.687 Q189.636 349.687 192.692 354.294 Q195.77 358.877 195.77 367.627 Q195.77 376.354 192.692 380.96 Q189.636 385.544 183.826 385.544 Q178.016 385.544 174.937 380.96 Q171.882 376.354 171.882 367.627 Q171.882 358.877 174.937 354.294 Q178.016 349.687 183.826 349.687 Z" fill="#000000" fill-rule="nonzero" fill-opacity="1" /><path clip-path="url(#clip790)" d="M204.798 380.937 L212.437 380.937 L212.437 354.572 L204.127 356.238 L204.127 351.979 L212.391 350.312 L217.066 350.312 L217.066 380.937 L224.705 380.937 L224.705 384.872 L204.798 384.872 L204.798 380.937 Z" fill="#000000" fill-rule="nonzero" fill-opacity="1" /><path clip-path="url(#clip790)" d="M244.15 353.391 Q240.539 353.391 238.71 356.956 Q236.904 360.498 236.904 367.627 Q236.904 374.734 238.71 378.298 Q240.539 381.84 244.15 381.84 Q247.784 381.84 249.589 378.298 Q251.418 374.734 251.418 367.627 Q251.418 360.498 249.589 356.956 Q247.784 353.391 244.15 353.391 M244.15 349.687 Q249.96 349.687 253.015 354.294 Q256.094 358.877 256.094 367.627 Q256.094 376.354 253.015 380.96 Q249.96 385.544 244.15 385.544 Q238.339 385.544 235.261 380.96 Q232.205 376.354 232.205 367.627 Q232.205 358.877 235.261 354.294 Q238.339 349.687 244.15 349.687 Z" fill="#000000" fill-rule="nonzero" fill-opacity="1" /><path clip-path="url(#clip790)" d="M140.192 165.566 Q136.581 165.566 134.752 169.13 Q132.947 172.672 132.947 179.802 Q132.947 186.908 134.752 190.473 Q136.581 194.015 140.192 194.015 Q143.826 194.015 145.632 190.473 Q147.46 186.908 147.46 179.802 Q147.46 172.672 145.632 169.13 Q143.826 165.566 140.192 165.566 M140.192 161.862 Q146.002 161.862 149.058 166.468 Q152.136 171.052 152.136 179.802 Q152.136 188.528 149.058 193.135 Q146.002 197.718 140.192 197.718 Q134.382 197.718 131.303 193.135 Q128.247 188.528 128.247 179.802 Q128.247 171.052 131.303 166.468 Q134.382 161.862 140.192 161.862 Z" fill="#000000" fill-rule="nonzero" fill-opacity="1" /><path clip-path="url(#clip790)" d="M160.354 191.167 L165.238 191.167 L165.238 197.047 L160.354 197.047 L160.354 191.167 Z" fill="#000000" fill-rule="nonzero" fill-opacity="1" /><path clip-path="url(#clip790)" d="M185.423 165.566 Q181.812 165.566 179.983 169.13 Q178.178 172.672 178.178 179.802 Q178.178 186.908 179.983 190.473 Q181.812 194.015 185.423 194.015 Q189.057 194.015 190.863 190.473 Q192.692 186.908 192.692 179.802 Q192.692 172.672 190.863 169.13 Q189.057 165.566 185.423 165.566 M185.423 161.862 Q191.233 161.862 194.289 166.468 Q197.367 171.052 197.367 179.802 Q197.367 188.528 194.289 193.135 Q191.233 197.718 185.423 197.718 Q179.613 197.718 176.534 193.135 Q173.479 188.528 173.479 179.802 Q173.479 171.052 176.534 166.468 Q179.613 161.862 185.423 161.862 Z" fill="#000000" fill-rule="nonzero" fill-opacity="1" /><path clip-path="url(#clip790)" d="M206.395 193.112 L214.034 193.112 L214.034 166.746 L205.724 168.413 L205.724 164.154 L213.988 162.487 L218.664 162.487 L218.664 193.112 L226.303 193.112 L226.303 197.047 L206.395 197.047 L206.395 193.112 Z" fill="#000000" fill-rule="nonzero" fill-opacity="1" /><path clip-path="url(#clip790)" d="M239.775 193.112 L256.094 193.112 L256.094 197.047 L234.15 197.047 L234.15 193.112 Q236.812 190.357 241.395 185.728 Q246.001 181.075 247.182 179.732 Q249.427 177.209 250.307 175.473 Q251.21 173.714 251.21 172.024 Q251.21 169.269 249.265 167.533 Q247.344 165.797 244.242 165.797 Q242.043 165.797 239.589 166.561 Q237.159 167.325 234.381 168.876 L234.381 164.154 Q237.205 163.019 239.659 162.441 Q242.113 161.862 244.15 161.862 Q249.52 161.862 252.714 164.547 Q255.909 167.232 255.909 171.723 Q255.909 173.853 255.099 175.774 Q254.312 177.672 252.205 180.265 Q251.626 180.936 248.525 184.153 Q245.423 187.348 239.775 193.112 Z" fill="#000000" fill-rule="nonzero" fill-opacity="1" /><path clip-path="url(#clip790)" d="M49.9492 680.886 Q50.4 680.886 51.4628 681.176 L76.6478 687.488 Q82.2516 688.873 86.1808 693.382 Q90.1099 697.858 90.1099 702.947 Q90.1099 706.006 88.4674 707.971 Q86.8571 709.935 84.3772 709.935 Q82.1872 709.935 81.1244 708.776 Q80.0938 707.617 80.0938 706.232 Q80.0938 705.781 80.2227 705.298 Q80.3515 704.815 80.899 704.299 Q81.4465 703.784 82.3805 703.784 Q83.8941 703.784 85.0858 705.105 Q85.6333 705.749 85.7621 706.361 Q85.8909 706.94 85.8909 707.939 Q86.7927 707.552 87.4046 706.844 Q88.0165 706.135 88.2419 705.33 Q88.4996 704.525 88.564 704.01 Q88.6606 703.462 88.6606 702.947 Q88.6606 698.824 84.506 695.668 Q83.25 694.734 81.994 694.058 Q80.7702 693.349 79.2565 692.834 Q77.775 692.319 76.9699 692.093 Q76.1647 691.836 74.329 691.385 Q77.3241 694.38 77.3241 698.051 Q77.3241 699.597 76.9055 700.982 Q76.4868 702.335 75.6172 703.526 Q74.7155 704.718 73.1374 705.427 Q71.5593 706.103 69.4659 706.103 Q67.2437 706.103 64.2164 705.233 Q61.189 704.364 55.6174 702.27 Q52.4934 701.143 50.9797 701.143 Q50.239 701.143 49.7881 701.304 Q49.305 701.465 49.144 701.787 Q48.9508 702.109 48.9186 702.303 Q48.8864 702.464 48.8864 702.786 Q48.8864 704.686 50.8187 706.457 Q52.7511 708.229 57.0667 709.452 Q57.8718 709.71 58.065 709.871 Q58.2583 710.032 58.2583 710.515 Q58.2261 711.32 57.5819 711.32 Q57.3243 711.32 56.3259 711.03 Q55.2953 710.741 53.7817 710.064 Q52.2358 709.356 50.8509 708.39 Q49.4339 707.423 48.4355 705.91 Q47.4371 704.364 47.4371 702.593 Q47.4371 700.177 49.0152 698.696 Q50.5611 697.182 52.8477 697.182 Q53.7817 697.182 54.619 697.44 Q55.4242 697.665 57.5819 698.502 Q66.2775 701.884 70.5287 701.884 Q71.5593 701.884 72.4289 701.723 Q73.2662 701.53 74.1036 701.111 Q74.9087 700.692 75.3918 699.855 Q75.8427 698.985 75.8427 697.794 Q75.8427 696.28 75.1341 694.863 Q74.3934 693.414 73.395 692.512 Q72.3966 691.578 71.5593 691.031 Q70.6897 690.451 70.2389 690.322 L58.3871 687.359 L53.1053 686.039 Q50.239 685.427 49.5305 685.137 Q48.8542 684.75 48.4999 684.074 Q48.1456 683.398 48.1456 682.818 Q48.1456 682.013 48.6287 681.465 Q49.1118 680.886 49.9492 680.886 Z" fill="#000000" fill-rule="nonzero" fill-opacity="1" /><polyline clip-path="url(#clip792)" style="stroke:#009af9; stroke-linecap:round; stroke-linejoin:round; stroke-width:12; stroke-opacity:1; fill:none" points="329.834,1306.72 337.566,1286.52 345.298,1266.33 390.586,1148.53 435.874,1032.4 456.942,979.267 478.01,926.855 506.248,857.919 534.487,790.717 557.821,736.662 581.155,684.076 602.853,636.601 624.552,590.594 651.79,535.054 679.029,482.132 703.462,437.017 727.896,394.241 741.879,370.849 755.863,348.274 769.847,326.531 783.83,305.637 804.736,276.017 825.641,248.377 839.011,231.76 852.38,215.982 865.749,201.053 879.118,186.984 903.523,163.547 927.927,143.055 941.815,132.726 955.702,123.371 969.59,114.999 983.478,107.613 1005.5,97.9404 1027.51,90.7791 1041.19,87.6008 1054.87,85.3986 1068.55,84.1741 1082.22,83.9279 1103.17,85.4479 1124.12,89.2612 1138.89,93.3242 1153.66,98.5207 1168.42,104.847 1183.19,112.297 1205.26,125.515 1227.33,141.209 1252.43,162.03 1277.53,185.969 1302.39,212.695 1327.25,242.366 1340.92,259.918 1354.6,278.329 1368.27,297.585 1381.94,317.674 1402.83,349.936 1423.72,384.053 1450.08,429.666 1476.44,478.019 1500.82,525.068 1525.2,574.238 1550.35,627.047 1575.49,681.852 1600.98,739.293 1626.47,798.48 1653.08,861.967 1679.69,926.98 1700.66,979.134 1721.62,1032 1769.36,1154.48 1817.1,1278.74 1822.46,1292.73 1827.82,1306.72 "/>
<polyline clip-path="url(#clip792)" style="stroke:#e26f46; stroke-linecap:round; stroke-linejoin:round; stroke-width:8; stroke-opacity:1; fill:none" stroke-dasharray="32, 20" points="329.834,1306.72 337.566,1286.52 345.298,1266.33 390.586,1148.53 435.874,1032.4 456.942,979.267 478.01,926.855 506.248,857.919 534.487,790.717 557.821,736.662 581.155,684.076 602.853,636.601 624.552,590.594 651.79,535.054 679.029,482.132 703.462,437.017 727.896,394.241 741.879,370.849 755.863,348.274 769.847,326.531 783.83,305.637 804.736,276.017 825.641,248.377 839.011,231.76 852.38,215.982 865.749,201.053 879.118,186.984 903.523,163.547 927.927,143.055 941.815,132.726 955.702,123.371 969.59,114.999 983.478,107.613 1005.5,97.9404 1027.51,90.7791 1041.19,87.6008 1054.87,85.3986 1068.55,84.1741 1082.22,83.9279 1103.17,85.4479 1124.12,89.2612 1138.89,93.3242 1153.66,98.5207 1168.42,104.847 1183.19,112.297 1205.26,125.515 1227.33,141.209 1252.43,162.03 1277.53,185.969 1302.39,212.695 1327.25,242.366 1340.92,259.918 1354.6,278.329 1368.27,297.585 1381.94,317.674 1402.83,349.936 1423.72,384.053 1450.08,429.666 1476.44,478.019 1500.82,525.068 1525.2,574.238 1550.35,627.047 1575.49,681.852 1600.98,739.293 1626.47,798.48 1653.08,861.967 1679.69,926.98 1700.66,979.134 1721.62,1032 1769.36,1154.48 1817.1,1278.74 1822.46,1292.73 1827.82,1306.72 "/>
<path clip-path="url(#clip790)" d="M1167.69 245.969 L1819.83 245.969 L1819.83 90.4494 L1167.69 90.4494  Z" fill="#ffffff" fill-rule="evenodd" fill-opacity="1"/>
<polyline clip-path="url(#clip790)" style="stroke:#000000; stroke-linecap:round; stroke-linejoin:round; stroke-width:4; stroke-opacity:1; fill:none" points="1167.69,245.969 1819.83,245.969 1819.83,90.4494 1167.69,90.4494 1167.69,245.969 "/>
<polyline clip-path="url(#clip790)" style="stroke:#009af9; stroke-linecap:round; stroke-linejoin:round; stroke-width:12; stroke-opacity:1; fill:none" points="1185.33,142.289 1291.19,142.289 "/>
<path clip-path="url(#clip790)" d="M1322.02 159.569 L1308.83 125.009 L1313.71 125.009 L1324.66 154.106 L1335.64 125.009 L1340.5 125.009 L1327.33 159.569 L1322.02 159.569 Z" fill="#000000" fill-rule="nonzero" fill-opacity="1" /><path clip-path="url(#clip790)" d="M1350.71 121.653 L1355.31 121.653 L1347.77 130.357 L1344.22 130.357 L1350.71 121.653 M1345.36 133.644 L1349.62 133.644 L1349.62 159.569 L1345.36 159.569 L1345.36 133.644 M1347.49 133.019 L1347.49 133.019 Z" fill="#000000" fill-rule="nonzero" fill-opacity="1" /><path clip-path="url(#clip790)" d="M1370.31 146.537 Q1365.15 146.537 1363.16 147.718 Q1361.17 148.898 1361.17 151.745 Q1361.17 154.014 1362.65 155.356 Q1364.15 156.676 1366.72 156.676 Q1370.27 156.676 1372.39 154.176 Q1374.55 151.653 1374.55 147.486 L1374.55 146.537 L1370.31 146.537 M1378.81 144.778 L1378.81 159.569 L1374.55 159.569 L1374.55 155.634 Q1373.09 157.995 1370.91 159.13 Q1368.74 160.241 1365.59 160.241 Q1361.61 160.241 1359.25 158.019 Q1356.91 155.773 1356.91 152.023 Q1356.91 147.648 1359.83 145.426 Q1362.77 143.204 1368.58 143.204 L1374.55 143.204 L1374.55 142.787 Q1374.55 139.847 1372.6 138.25 Q1370.68 136.63 1367.19 136.63 Q1364.96 136.63 1362.86 137.162 Q1360.75 137.695 1358.81 138.759 L1358.81 134.824 Q1361.14 133.921 1363.34 133.482 Q1365.54 133.019 1367.63 133.019 Q1373.25 133.019 1376.03 135.935 Q1378.81 138.852 1378.81 144.778 Z" fill="#000000" fill-rule="nonzero" fill-opacity="1" /><path clip-path="url(#clip790)" d="M1415.77 123.551 L1415.77 127.093 L1411.7 127.093 Q1409.41 127.093 1408.51 128.019 Q1407.63 128.945 1407.63 131.352 L1407.63 133.644 L1414.64 133.644 L1414.64 136.954 L1407.63 136.954 L1407.63 159.569 L1403.34 159.569 L1403.34 136.954 L1399.27 136.954 L1399.27 133.644 L1403.34 133.644 L1403.34 131.838 Q1403.34 127.509 1405.36 125.542 Q1407.37 123.551 1411.75 123.551 L1415.77 123.551 Z" fill="#000000" fill-rule="nonzero" fill-opacity="1" /><path clip-path="url(#clip790)" d="M1418.9 149.338 L1418.9 133.644 L1423.16 133.644 L1423.16 149.176 Q1423.16 152.856 1424.59 154.708 Q1426.03 156.537 1428.9 156.537 Q1432.35 156.537 1434.34 154.338 Q1436.35 152.139 1436.35 148.343 L1436.35 133.644 L1440.61 133.644 L1440.61 159.569 L1436.35 159.569 L1436.35 155.588 Q1434.8 157.949 1432.74 159.106 Q1430.7 160.241 1428 160.241 Q1423.53 160.241 1421.21 157.463 Q1418.9 154.685 1418.9 149.338 M1429.62 133.019 L1429.62 133.019 Z" fill="#000000" fill-rule="nonzero" fill-opacity="1" /><path clip-path="url(#clip790)" d="M1470.94 143.921 L1470.94 159.569 L1466.68 159.569 L1466.68 144.06 Q1466.68 140.38 1465.24 138.551 Q1463.81 136.722 1460.94 136.722 Q1457.49 136.722 1455.5 138.921 Q1453.51 141.12 1453.51 144.917 L1453.51 159.569 L1449.22 159.569 L1449.22 133.644 L1453.51 133.644 L1453.51 137.671 Q1455.03 135.333 1457.09 134.176 Q1459.18 133.019 1461.89 133.019 Q1466.35 133.019 1468.64 135.796 Q1470.94 138.551 1470.94 143.921 Z" fill="#000000" fill-rule="nonzero" fill-opacity="1" /><path clip-path="url(#clip790)" d="M1498.09 134.639 L1498.09 138.62 Q1496.28 137.625 1494.45 137.139 Q1492.65 136.63 1490.8 136.63 Q1486.65 136.63 1484.36 139.269 Q1482.07 141.884 1482.07 146.63 Q1482.07 151.375 1484.36 154.014 Q1486.65 156.63 1490.8 156.63 Q1492.65 156.63 1494.45 156.144 Q1496.28 155.634 1498.09 154.639 L1498.09 158.574 Q1496.31 159.407 1494.38 159.824 Q1492.49 160.241 1490.33 160.241 Q1484.48 160.241 1481.03 156.56 Q1477.58 152.88 1477.58 146.63 Q1477.58 140.287 1481.05 136.653 Q1484.55 133.019 1490.61 133.019 Q1492.58 133.019 1494.45 133.435 Q1496.33 133.829 1498.09 134.639 Z" fill="#000000" fill-rule="nonzero" fill-opacity="1" /><path clip-path="url(#clip790)" d="M1505.5 133.644 L1509.76 133.644 L1509.76 159.569 L1505.5 159.569 L1505.5 133.644 M1505.5 123.551 L1509.76 123.551 L1509.76 128.945 L1505.5 128.945 L1505.5 123.551 Z" fill="#000000" fill-rule="nonzero" fill-opacity="1" /><path clip-path="url(#clip790)" d="M1528.71 136.63 Q1525.29 136.63 1523.3 139.315 Q1521.31 141.977 1521.31 146.63 Q1521.31 151.282 1523.27 153.968 Q1525.26 156.63 1528.71 156.63 Q1532.12 156.63 1534.11 153.944 Q1536.1 151.259 1536.1 146.63 Q1536.1 142.023 1534.11 139.338 Q1532.12 136.63 1528.71 136.63 M1528.71 133.019 Q1534.27 133.019 1537.44 136.63 Q1540.61 140.241 1540.61 146.63 Q1540.61 152.995 1537.44 156.63 Q1534.27 160.241 1528.71 160.241 Q1523.13 160.241 1519.96 156.63 Q1516.82 152.995 1516.82 146.63 Q1516.82 140.241 1519.96 136.63 Q1523.13 133.019 1528.71 133.019 M1531.93 121.653 L1536.54 121.653 L1528.99 130.357 L1525.45 130.357 L1531.93 121.653 Z" fill="#000000" fill-rule="nonzero" fill-opacity="1" /><path clip-path="url(#clip790)" d="M1569.22 143.921 L1569.22 159.569 L1564.96 159.569 L1564.96 144.06 Q1564.96 140.38 1563.53 138.551 Q1562.09 136.722 1559.22 136.722 Q1555.77 136.722 1553.78 138.921 Q1551.79 141.12 1551.79 144.917 L1551.79 159.569 L1547.51 159.569 L1547.51 133.644 L1551.79 133.644 L1551.79 137.671 Q1553.32 135.333 1555.38 134.176 Q1557.46 133.019 1560.17 133.019 Q1564.64 133.019 1566.93 135.796 Q1569.22 138.551 1569.22 143.921 Z" fill="#000000" fill-rule="nonzero" fill-opacity="1" /><path clip-path="url(#clip790)" d="M1609.85 137.579 L1609.85 123.551 L1614.11 123.551 L1614.11 159.569 L1609.85 159.569 L1609.85 155.681 Q1608.5 157.995 1606.44 159.13 Q1604.41 160.241 1601.54 160.241 Q1596.84 160.241 1593.88 156.491 Q1590.94 152.741 1590.94 146.63 Q1590.94 140.519 1593.88 136.769 Q1596.84 133.019 1601.54 133.019 Q1604.41 133.019 1606.44 134.153 Q1608.5 135.264 1609.85 137.579 M1595.33 146.63 Q1595.33 151.329 1597.25 154.014 Q1599.2 156.676 1602.58 156.676 Q1605.96 156.676 1607.9 154.014 Q1609.85 151.329 1609.85 146.63 Q1609.85 141.931 1607.9 139.269 Q1605.96 136.583 1602.58 136.583 Q1599.2 136.583 1597.25 139.269 Q1595.33 141.931 1595.33 146.63 Z" fill="#000000" fill-rule="nonzero" fill-opacity="1" /><path clip-path="url(#clip790)" d="M1645.06 145.542 L1645.06 147.625 L1625.47 147.625 Q1625.75 152.023 1628.11 154.338 Q1630.5 156.63 1634.73 156.63 Q1637.19 156.63 1639.48 156.028 Q1641.79 155.426 1644.06 154.222 L1644.06 158.25 Q1641.77 159.222 1639.36 159.731 Q1636.95 160.241 1634.48 160.241 Q1628.27 160.241 1624.64 156.63 Q1621.03 153.019 1621.03 146.861 Q1621.03 140.495 1624.45 136.769 Q1627.9 133.019 1633.74 133.019 Q1638.97 133.019 1642 136.398 Q1645.06 139.755 1645.06 145.542 M1640.8 144.292 Q1640.75 140.796 1638.83 138.713 Q1636.93 136.63 1633.78 136.63 Q1630.22 136.63 1628.06 138.644 Q1625.94 140.657 1625.61 144.315 L1640.8 144.292 Z" fill="#000000" fill-rule="nonzero" fill-opacity="1" /><path clip-path="url(#clip790)" d="M1690.87 154.639 L1690.87 145.357 L1683.23 145.357 L1683.23 141.514 L1695.5 141.514 L1695.5 156.352 Q1692.79 158.273 1689.52 159.268 Q1686.26 160.241 1682.56 160.241 Q1674.45 160.241 1669.87 155.519 Q1665.31 150.773 1665.31 142.324 Q1665.31 133.852 1669.87 129.13 Q1674.45 124.384 1682.56 124.384 Q1685.93 124.384 1688.97 125.218 Q1692.02 126.051 1694.59 127.671 L1694.59 132.648 Q1692 130.449 1689.08 129.338 Q1686.17 128.227 1682.95 128.227 Q1676.61 128.227 1673.41 131.769 Q1670.24 135.31 1670.24 142.324 Q1670.24 149.315 1673.41 152.856 Q1676.61 156.398 1682.95 156.398 Q1685.43 156.398 1687.37 155.981 Q1689.31 155.542 1690.87 154.639 Z" fill="#000000" fill-rule="nonzero" fill-opacity="1" /><path clip-path="url(#clip790)" d="M1718.87 137.625 Q1718.16 137.208 1717.3 137.023 Q1716.47 136.815 1715.45 136.815 Q1711.84 136.815 1709.89 139.176 Q1707.97 141.514 1707.97 145.912 L1707.97 159.569 L1703.69 159.569 L1703.69 133.644 L1707.97 133.644 L1707.97 137.671 Q1709.31 135.31 1711.47 134.176 Q1713.62 133.019 1716.7 133.019 Q1717.14 133.019 1717.67 133.088 Q1718.2 133.134 1718.85 133.25 L1718.87 137.625 Z" fill="#000000" fill-rule="nonzero" fill-opacity="1" /><path clip-path="url(#clip790)" d="M1744.48 145.542 L1744.48 147.625 L1724.89 147.625 Q1725.17 152.023 1727.53 154.338 Q1729.92 156.63 1734.15 156.63 Q1736.61 156.63 1738.9 156.028 Q1741.21 155.426 1743.48 154.222 L1743.48 158.25 Q1741.19 159.222 1738.78 159.731 Q1736.37 160.241 1733.9 160.241 Q1727.69 160.241 1724.06 156.63 Q1720.45 153.019 1720.45 146.861 Q1720.45 140.495 1723.87 136.769 Q1727.32 133.019 1733.16 133.019 Q1738.39 133.019 1741.42 136.398 Q1744.48 139.755 1744.48 145.542 M1740.22 144.292 Q1740.17 140.796 1738.25 138.713 Q1736.35 136.63 1733.2 136.63 Q1729.64 136.63 1727.49 138.644 Q1725.36 140.657 1725.03 144.315 L1740.22 144.292 Z" fill="#000000" fill-rule="nonzero" fill-opacity="1" /><path clip-path="url(#clip790)" d="M1773.64 145.542 L1773.64 147.625 L1754.06 147.625 Q1754.34 152.023 1756.7 154.338 Q1759.08 156.63 1763.32 156.63 Q1765.77 156.63 1768.06 156.028 Q1770.38 155.426 1772.65 154.222 L1772.65 158.25 Q1770.36 159.222 1767.95 159.731 Q1765.54 160.241 1763.06 160.241 Q1756.86 160.241 1753.23 156.63 Q1749.62 153.019 1749.62 146.861 Q1749.62 140.495 1753.04 136.769 Q1756.49 133.019 1762.32 133.019 Q1767.55 133.019 1770.59 136.398 Q1773.64 139.755 1773.64 145.542 M1769.38 144.292 Q1769.34 140.796 1767.42 138.713 Q1765.52 136.63 1762.37 136.63 Q1758.8 136.63 1756.65 138.644 Q1754.52 140.657 1754.2 144.315 L1769.38 144.292 Z" fill="#000000" fill-rule="nonzero" fill-opacity="1" /><path clip-path="url(#clip790)" d="M1802.18 143.921 L1802.18 159.569 L1797.93 159.569 L1797.93 144.06 Q1797.93 140.38 1796.49 138.551 Q1795.05 136.722 1792.18 136.722 Q1788.74 136.722 1786.74 138.921 Q1784.75 141.12 1784.75 144.917 L1784.75 159.569 L1780.47 159.569 L1780.47 133.644 L1784.75 133.644 L1784.75 137.671 Q1786.28 135.333 1788.34 134.176 Q1790.43 133.019 1793.13 133.019 Q1797.6 133.019 1799.89 135.796 Q1802.18 138.551 1802.18 143.921 Z" fill="#000000" fill-rule="nonzero" fill-opacity="1" /><polyline clip-path="url(#clip790)" style="stroke:#e26f46; stroke-linecap:round; stroke-linejoin:round; stroke-width:8; stroke-opacity:1; fill:none" stroke-dasharray="32, 20" points="1185.33,194.129 1291.19,194.129 "/>
<path clip-path="url(#clip790)" d="M1308.83 176.849 L1330.68 176.849 L1330.68 180.785 L1313.51 180.785 L1313.51 191.016 L1329.96 191.016 L1329.96 194.951 L1313.51 194.951 L1313.51 207.474 L1331.1 207.474 L1331.1 211.409 L1308.83 211.409 L1308.83 176.849 Z" fill="#000000" fill-rule="nonzero" fill-opacity="1" /><path clip-path="url(#clip790)" d="M1360.15 185.484 L1350.77 198.099 L1360.64 211.409 L1355.61 211.409 L1348.07 201.224 L1340.52 211.409 L1335.5 211.409 L1345.57 197.845 L1336.35 185.484 L1341.38 185.484 L1348.25 194.72 L1355.13 185.484 L1360.15 185.484 Z" fill="#000000" fill-rule="nonzero" fill-opacity="1" /><path clip-path="url(#clip790)" d="M1378.44 198.377 Q1373.27 198.377 1371.28 199.558 Q1369.29 200.738 1369.29 203.585 Q1369.29 205.854 1370.77 207.196 Q1372.28 208.516 1374.85 208.516 Q1378.39 208.516 1380.52 206.016 Q1382.67 203.493 1382.67 199.326 L1382.67 198.377 L1378.44 198.377 M1386.93 196.618 L1386.93 211.409 L1382.67 211.409 L1382.67 207.474 Q1381.21 209.835 1379.04 210.97 Q1376.86 212.081 1373.71 212.081 Q1369.73 212.081 1367.37 209.859 Q1365.03 207.613 1365.03 203.863 Q1365.03 199.488 1367.95 197.266 Q1370.89 195.044 1376.7 195.044 L1382.67 195.044 L1382.67 194.627 Q1382.67 191.687 1380.73 190.09 Q1378.81 188.47 1375.31 188.47 Q1373.09 188.47 1370.98 189.002 Q1368.88 189.535 1366.93 190.599 L1366.93 186.664 Q1369.27 185.761 1371.47 185.322 Q1373.67 184.859 1375.75 184.859 Q1381.38 184.859 1384.15 187.775 Q1386.93 190.692 1386.93 196.618 Z" fill="#000000" fill-rule="nonzero" fill-opacity="1" /><path clip-path="url(#clip790)" d="M1414.36 186.479 L1414.36 190.46 Q1412.56 189.465 1410.73 188.979 Q1408.92 188.47 1407.07 188.47 Q1402.93 188.47 1400.64 191.109 Q1398.34 193.724 1398.34 198.47 Q1398.34 203.215 1400.64 205.854 Q1402.93 208.47 1407.07 208.47 Q1408.92 208.47 1410.73 207.984 Q1412.56 207.474 1414.36 206.479 L1414.36 210.414 Q1412.58 211.247 1410.66 211.664 Q1408.76 212.081 1406.61 212.081 Q1400.75 212.081 1397.3 208.4 Q1393.85 204.72 1393.85 198.47 Q1393.85 192.127 1397.33 188.493 Q1400.82 184.859 1406.89 184.859 Q1408.85 184.859 1410.73 185.275 Q1412.6 185.669 1414.36 186.479 Z" fill="#000000" fill-rule="nonzero" fill-opacity="1" /><path clip-path="url(#clip790)" d="M1425.98 178.123 L1425.98 185.484 L1434.76 185.484 L1434.76 188.794 L1425.98 188.794 L1425.98 202.868 Q1425.98 206.039 1426.84 206.942 Q1427.72 207.845 1430.38 207.845 L1434.76 207.845 L1434.76 211.409 L1430.38 211.409 Q1425.45 211.409 1423.58 209.581 Q1421.7 207.729 1421.7 202.868 L1421.7 188.794 L1418.58 188.794 L1418.58 185.484 L1421.7 185.484 L1421.7 178.123 L1425.98 178.123 Z" fill="#000000" fill-rule="nonzero" fill-opacity="1" /><path clip-path="url(#clip790)" d="M1452.14 198.377 Q1446.98 198.377 1444.99 199.558 Q1443 200.738 1443 203.585 Q1443 205.854 1444.48 207.196 Q1445.98 208.516 1448.55 208.516 Q1452.09 208.516 1454.22 206.016 Q1456.38 203.493 1456.38 199.326 L1456.38 198.377 L1452.14 198.377 M1460.64 196.618 L1460.64 211.409 L1456.38 211.409 L1456.38 207.474 Q1454.92 209.835 1452.74 210.97 Q1450.57 212.081 1447.42 212.081 Q1443.44 212.081 1441.08 209.859 Q1438.74 207.613 1438.74 203.863 Q1438.74 199.488 1441.65 197.266 Q1444.59 195.044 1450.4 195.044 L1456.38 195.044 L1456.38 194.627 Q1456.38 191.687 1454.43 190.09 Q1452.51 188.47 1449.01 188.47 Q1446.79 188.47 1444.69 189.002 Q1442.58 189.535 1440.64 190.599 L1440.64 186.664 Q1442.97 185.761 1445.17 185.322 Q1447.37 184.859 1449.45 184.859 Q1455.08 184.859 1457.86 187.775 Q1460.64 190.692 1460.64 196.618 Z" fill="#000000" fill-rule="nonzero" fill-opacity="1" /></svg>
