<?xml version="1.0" encoding="utf-8"?>
<svg xmlns="http://www.w3.org/2000/svg" xmlns:xlink="http://www.w3.org/1999/xlink" width="1650" height="1050" viewBox="0 0 6600 4200">
<defs>
  <clipPath id="clip110">
    <rect x="0" y="0" width="6600" height="4200"/>
  </clipPath>
</defs>
<path clip-path="url(#clip110)" d="M0 4200 L6600 4200 L6600 0 L0 0  Z" fill="#ffffff" fill-rule="evenodd" fill-opacity="1"/>
<defs>
  <clipPath id="clip111">
    <rect x="252" y="120" width="6301" height="3881"/>
  </clipPath>
</defs>
<path clip-path="url(#clip110)" d="M292.604 4000.91 L6552.76 4000.91 L6552.76 47.2441 L292.604 47.2441  Z" fill="#ffffff" fill-rule="evenodd" fill-opacity="1"/>
<defs>
  <clipPath id="clip112">
    <rect x="292" y="47" width="6261" height="3955"/>
  </clipPath>
</defs>
<polyline clip-path="url(#clip112)" style="stroke:#000000; stroke-linecap:round; stroke-linejoin:round; stroke-width:2; stroke-opacity:0.1; fill:none" points="469.778,4000.91 469.778,47.2441 "/>
<polyline clip-path="url(#clip112)" style="stroke:#000000; stroke-linecap:round; stroke-linejoin:round; stroke-width:2; stroke-opacity:0.1; fill:none" points="1946.23,4000.91 1946.23,47.2441 "/>
<polyline clip-path="url(#clip112)" style="stroke:#000000; stroke-linecap:round; stroke-linejoin:round; stroke-width:2; stroke-opacity:0.1; fill:none" points="3422.68,4000.91 3422.68,47.2441 "/>
<polyline clip-path="url(#clip112)" style="stroke:#000000; stroke-linecap:round; stroke-linejoin:round; stroke-width:2; stroke-opacity:0.1; fill:none" points="4899.13,4000.91 4899.13,47.2441 "/>
<polyline clip-path="url(#clip112)" style="stroke:#000000; stroke-linecap:round; stroke-linejoin:round; stroke-width:2; stroke-opacity:0.1; fill:none" points="6375.58,4000.91 6375.58,47.2441 "/>
<polyline clip-path="url(#clip112)" style="stroke:#000000; stroke-linecap:round; stroke-linejoin:round; stroke-width:2; stroke-opacity:0.1; fill:none" points="292.604,3335.79 6552.76,3335.79 "/>
<polyline clip-path="url(#clip112)" style="stroke:#000000; stroke-linecap:round; stroke-linejoin:round; stroke-width:2; stroke-opacity:0.1; fill:none" points="292.604,1618.21 6552.76,1618.21 "/>
<polyline clip-path="url(#clip110)" style="stroke:#000000; stroke-linecap:round; stroke-linejoin:round; stroke-width:4; stroke-opacity:1; fill:none" points="292.604,4000.91 6552.76,4000.91 "/>
<polyline clip-path="url(#clip110)" style="stroke:#000000; stroke-linecap:round; stroke-linejoin:round; stroke-width:4; stroke-opacity:1; fill:none" points="469.778,4000.91 469.778,3982.01 "/>
<polyline clip-path="url(#clip110)" style="stroke:#000000; stroke-linecap:round; stroke-linejoin:round; stroke-width:4; stroke-opacity:1; fill:none" points="1946.23,4000.91 1946.23,3982.01 "/>
<polyline clip-path="url(#clip110)" style="stroke:#000000; stroke-linecap:round; stroke-linejoin:round; stroke-width:4; stroke-opacity:1; fill:none" points="3422.68,4000.91 3422.68,3982.01 "/>
<polyline clip-path="url(#clip110)" style="stroke:#000000; stroke-linecap:round; stroke-linejoin:round; stroke-width:4; stroke-opacity:1; fill:none" points="4899.13,4000.91 4899.13,3982.01 "/>
<polyline clip-path="url(#clip110)" style="stroke:#000000; stroke-linecap:round; stroke-linejoin:round; stroke-width:4; stroke-opacity:1; fill:none" points="6375.58,4000.91 6375.58,3982.01 "/>
<path clip-path="url(#clip110)" d="M469.778 4065.43 Q466.167 4065.43 464.338 4068.99 Q462.533 4072.54 462.533 4079.67 Q462.533 4086.77 464.338 4090.34 Q466.167 4093.88 469.778 4093.88 Q473.412 4093.88 475.218 4090.34 Q477.047 4086.77 477.047 4079.67 Q477.047 4072.54 475.218 4068.99 Q473.412 4065.43 469.778 4065.43 M469.778 4061.73 Q475.588 4061.73 478.644 4066.33 Q481.722 4070.92 481.722 4079.67 Q481.722 4088.39 478.644 4093 Q475.588 4097.58 469.778 4097.58 Q463.968 4097.58 460.889 4093 Q457.834 4088.39 457.834 4079.67 Q457.834 4070.92 460.889 4066.33 Q463.968 4061.73 469.778 4061.73 Z" fill="#000000" fill-rule="nonzero" fill-opacity="1" /><path clip-path="url(#clip110)" d="M1936.51 4062.35 L1954.86 4062.35 L1954.86 4066.29 L1940.79 4066.29 L1940.79 4074.76 Q1941.81 4074.41 1942.83 4074.25 Q1943.84 4074.06 1944.86 4074.06 Q1950.65 4074.06 1954.03 4077.23 Q1957.41 4080.41 1957.41 4085.82 Q1957.41 4091.4 1953.94 4094.5 Q1950.47 4097.58 1944.15 4097.58 Q1941.97 4097.58 1939.7 4097.21 Q1937.46 4096.84 1935.05 4096.1 L1935.05 4091.4 Q1937.13 4092.54 1939.35 4093.09 Q1941.58 4093.65 1944.05 4093.65 Q1948.06 4093.65 1950.4 4091.54 Q1952.73 4089.43 1952.73 4085.82 Q1952.73 4082.21 1950.4 4080.11 Q1948.06 4078 1944.05 4078 Q1942.18 4078 1940.3 4078.42 Q1938.45 4078.83 1936.51 4079.71 L1936.51 4062.35 Z" fill="#000000" fill-rule="nonzero" fill-opacity="1" /><path clip-path="url(#clip110)" d="M3397.37 4092.98 L3405.01 4092.98 L3405.01 4066.61 L3396.7 4068.28 L3396.7 4064.02 L3404.96 4062.35 L3409.64 4062.35 L3409.64 4092.98 L3417.27 4092.98 L3417.27 4096.91 L3397.37 4096.91 L3397.37 4092.98 Z" fill="#000000" fill-rule="nonzero" fill-opacity="1" /><path clip-path="url(#clip110)" d="M3436.72 4065.43 Q3433.11 4065.43 3431.28 4068.99 Q3429.47 4072.54 3429.47 4079.67 Q3429.47 4086.77 3431.28 4090.34 Q3433.11 4093.88 3436.72 4093.88 Q3440.35 4093.88 3442.16 4090.34 Q3443.99 4086.77 3443.99 4079.67 Q3443.99 4072.54 3442.16 4068.99 Q3440.35 4065.43 3436.72 4065.43 M3436.72 4061.73 Q3442.53 4061.73 3445.58 4066.33 Q3448.66 4070.92 3448.66 4079.67 Q3448.66 4088.39 3445.58 4093 Q3442.53 4097.58 3436.72 4097.58 Q3430.91 4097.58 3427.83 4093 Q3424.77 4088.39 3424.77 4079.67 Q3424.77 4070.92 3427.83 4066.33 Q3430.91 4061.73 3436.72 4061.73 Z" fill="#000000" fill-rule="nonzero" fill-opacity="1" /><path clip-path="url(#clip110)" d="M4874.32 4092.98 L4881.96 4092.98 L4881.96 4066.61 L4873.64 4068.28 L4873.64 4064.02 L4881.91 4062.35 L4886.58 4062.35 L4886.58 4092.98 L4894.22 4092.98 L4894.22 4096.91 L4874.32 4096.91 L4874.32 4092.98 Z" fill="#000000" fill-rule="nonzero" fill-opacity="1" /><path clip-path="url(#clip110)" d="M4903.71 4062.35 L4922.07 4062.35 L4922.07 4066.29 L4908 4066.29 L4908 4074.76 Q4909.02 4074.41 4910.03 4074.25 Q4911.05 4074.06 4912.07 4074.06 Q4917.86 4074.06 4921.24 4077.23 Q4924.62 4080.41 4924.62 4085.82 Q4924.62 4091.4 4921.14 4094.5 Q4917.67 4097.58 4911.35 4097.58 Q4909.18 4097.58 4906.91 4097.21 Q4904.66 4096.84 4902.26 4096.1 L4902.26 4091.4 Q4904.34 4092.54 4906.56 4093.09 Q4908.78 4093.65 4911.26 4093.65 Q4915.27 4093.65 4917.6 4091.54 Q4919.94 4089.43 4919.94 4085.82 Q4919.94 4082.21 4917.6 4080.11 Q4915.27 4078 4911.26 4078 Q4909.39 4078 4907.51 4078.42 Q4905.66 4078.83 4903.71 4079.71 L4903.71 4062.35 Z" fill="#000000" fill-rule="nonzero" fill-opacity="1" /><path clip-path="url(#clip110)" d="M6354.36 4092.98 L6370.67 4092.98 L6370.67 4096.91 L6348.73 4096.91 L6348.73 4092.98 Q6351.39 4090.22 6355.98 4085.59 Q6360.58 4080.94 6361.76 4079.6 Q6364.01 4077.07 6364.89 4075.34 Q6365.79 4073.58 6365.79 4071.89 Q6365.79 4069.13 6363.85 4067.4 Q6361.92 4065.66 6358.82 4065.66 Q6356.62 4065.66 6354.17 4066.42 Q6351.74 4067.19 6348.96 4068.74 L6348.96 4064.02 Q6351.79 4062.88 6354.24 4062.3 Q6356.69 4061.73 6358.73 4061.73 Q6364.1 4061.73 6367.29 4064.41 Q6370.49 4067.1 6370.49 4071.59 Q6370.49 4073.72 6369.68 4075.64 Q6368.89 4077.54 6366.79 4080.13 Q6366.21 4080.8 6363.11 4084.02 Q6360 4087.21 6354.36 4092.98 Z" fill="#000000" fill-rule="nonzero" fill-opacity="1" /><path clip-path="url(#clip110)" d="M6390.49 4065.43 Q6386.88 4065.43 6385.05 4068.99 Q6383.24 4072.54 6383.24 4079.67 Q6383.24 4086.77 6385.05 4090.34 Q6386.88 4093.88 6390.49 4093.88 Q6394.12 4093.88 6395.93 4090.34 Q6397.76 4086.77 6397.76 4079.67 Q6397.76 4072.54 6395.93 4068.99 Q6394.12 4065.43 6390.49 4065.43 M6390.49 4061.73 Q6396.3 4061.73 6399.35 4066.33 Q6402.43 4070.92 6402.43 4079.67 Q6402.43 4088.39 6399.35 4093 Q6396.3 4097.58 6390.49 4097.58 Q6384.68 4097.58 6381.6 4093 Q6378.54 4088.39 6378.54 4079.67 Q6378.54 4070.92 6381.6 4066.33 Q6384.68 4061.73 6390.49 4061.73 Z" fill="#000000" fill-rule="nonzero" fill-opacity="1" /><path clip-path="url(#clip110)" d="M3431.15 4172.63 Q3431.15 4173.53 3430.74 4173.76 Q3430.32 4173.95 3429.16 4173.95 L3422.97 4173.95 L3418.08 4193.4 Q3417.69 4195.11 3417.69 4196.56 Q3417.69 4198.17 3418.17 4198.88 Q3418.69 4199.59 3419.75 4199.59 Q3421.85 4199.59 3424.1 4197.69 Q3426.39 4195.79 3428.32 4191.15 Q3428.58 4190.54 3428.71 4190.41 Q3428.87 4190.25 3429.29 4190.25 Q3430.09 4190.25 3430.09 4190.89 Q3430.09 4191.12 3429.64 4192.15 Q3429.22 4193.18 3428.29 4194.69 Q3427.39 4196.21 3426.19 4197.62 Q3425.03 4199.04 3423.26 4200.07 Q3421.49 4201.07 3419.59 4201.07 Q3416.92 4201.07 3415.21 4199.36 Q3413.54 4197.66 3413.54 4194.98 Q3413.54 4194.11 3414.21 4191.34 Q3414.89 4188.54 3418.56 4173.95 L3412.73 4173.95 Q3411.93 4173.95 3411.6 4173.92 Q3411.31 4173.89 3411.09 4173.73 Q3410.9 4173.53 3410.9 4173.15 Q3410.9 4172.54 3411.15 4172.28 Q3411.41 4171.99 3411.73 4171.96 Q3412.09 4171.89 3412.89 4171.89 L3419.08 4171.89 L3421.65 4161.42 Q3421.91 4160.39 3422.55 4159.81 Q3423.23 4159.2 3423.62 4159.14 Q3424 4159.04 3424.29 4159.04 Q3425.16 4159.04 3425.68 4159.52 Q3426.19 4159.98 3426.19 4160.81 Q3426.19 4161.26 3423.49 4171.89 L3429.29 4171.89 Q3430.03 4171.89 3430.32 4171.92 Q3430.64 4171.96 3430.9 4172.12 Q3431.15 4172.28 3431.15 4172.63 Z" fill="#000000" fill-rule="nonzero" fill-opacity="1" /><polyline clip-path="url(#clip110)" style="stroke:#000000; stroke-linecap:round; stroke-linejoin:round; stroke-width:4; stroke-opacity:1; fill:none" points="292.604,4000.91 292.604,47.2441 "/>
<polyline clip-path="url(#clip110)" style="stroke:#000000; stroke-linecap:round; stroke-linejoin:round; stroke-width:4; stroke-opacity:1; fill:none" points="292.604,3335.79 311.502,3335.79 "/>
<polyline clip-path="url(#clip110)" style="stroke:#000000; stroke-linecap:round; stroke-linejoin:round; stroke-width:4; stroke-opacity:1; fill:none" points="292.604,1618.21 311.502,1618.21 "/>
<path clip-path="url(#clip110)" d="M91.7715 3355.59 L99.4103 3355.59 L99.4103 3329.22 L91.1002 3330.89 L91.1002 3326.63 L99.364 3324.96 L104.04 3324.96 L104.04 3355.59 L111.679 3355.59 L111.679 3359.52 L91.7715 3359.52 L91.7715 3355.59 Z" fill="#000000" fill-rule="nonzero" fill-opacity="1" /><path clip-path="url(#clip110)" d="M131.123 3328.04 Q127.512 3328.04 125.683 3331.6 Q123.878 3335.15 123.878 3342.28 Q123.878 3349.38 125.683 3352.95 Q127.512 3356.49 131.123 3356.49 Q134.757 3356.49 136.563 3352.95 Q138.392 3349.38 138.392 3342.28 Q138.392 3335.15 136.563 3331.6 Q134.757 3328.04 131.123 3328.04 M131.123 3324.34 Q136.933 3324.34 139.989 3328.94 Q143.067 3333.53 143.067 3342.28 Q143.067 3351 139.989 3355.61 Q136.933 3360.19 131.123 3360.19 Q125.313 3360.19 122.234 3355.61 Q119.179 3351 119.179 3342.28 Q119.179 3333.53 122.234 3328.94 Q125.313 3324.34 131.123 3324.34 Z" fill="#000000" fill-rule="nonzero" fill-opacity="1" /><path clip-path="url(#clip110)" d="M143.067 3318.44 L167.179 3318.44 L167.179 3321.63 L143.067 3321.63 L143.067 3318.44 Z" fill="#000000" fill-rule="nonzero" fill-opacity="1" /><path clip-path="url(#clip110)" d="M185.818 3307.34 L176.226 3322.33 L185.818 3322.33 L185.818 3307.34 M184.821 3304.03 L189.598 3304.03 L189.598 3322.33 L193.604 3322.33 L193.604 3325.49 L189.598 3325.49 L189.598 3332.11 L185.818 3332.11 L185.818 3325.49 L173.141 3325.49 L173.141 3321.82 L184.821 3304.03 Z" fill="#000000" fill-rule="nonzero" fill-opacity="1" /><path clip-path="url(#clip110)" d="M93.4641 1638 L101.103 1638 L101.103 1611.63 L92.7929 1613.3 L92.7929 1609.04 L101.057 1607.37 L105.733 1607.37 L105.733 1638 L113.371 1638 L113.371 1641.93 L93.4641 1641.93 L93.4641 1638 Z" fill="#000000" fill-rule="nonzero" fill-opacity="1" /><path clip-path="url(#clip110)" d="M132.816 1610.45 Q129.205 1610.45 127.376 1614.02 Q125.57 1617.56 125.57 1624.69 Q125.57 1631.79 127.376 1635.36 Q129.205 1638.9 132.816 1638.9 Q136.45 1638.9 138.256 1635.36 Q140.084 1631.79 140.084 1624.69 Q140.084 1617.56 138.256 1614.02 Q136.45 1610.45 132.816 1610.45 M132.816 1606.75 Q138.626 1606.75 141.681 1611.35 Q144.76 1615.94 144.76 1624.69 Q144.76 1633.41 141.681 1638.02 Q138.626 1642.6 132.816 1642.6 Q127.006 1642.6 123.927 1638.02 Q120.871 1633.41 120.871 1624.69 Q120.871 1615.94 123.927 1611.35 Q127.006 1606.75 132.816 1606.75 Z" fill="#000000" fill-rule="nonzero" fill-opacity="1" /><path clip-path="url(#clip110)" d="M144.76 1600.85 L168.872 1600.85 L168.872 1604.05 L144.76 1604.05 L144.76 1600.85 Z" fill="#000000" fill-rule="nonzero" fill-opacity="1" /><path clip-path="url(#clip110)" d="M180.344 1611.33 L193.604 1611.33 L193.604 1614.52 L175.774 1614.52 L175.774 1611.33 Q177.937 1609.09 181.661 1605.33 Q185.404 1601.55 186.363 1600.45 Q188.187 1598.4 188.902 1596.99 Q189.636 1595.56 189.636 1594.19 Q189.636 1591.95 188.056 1590.54 Q186.495 1589.13 183.974 1589.13 Q182.188 1589.13 180.194 1589.75 Q178.219 1590.37 175.962 1591.63 L175.962 1587.8 Q178.257 1586.88 180.25 1586.41 Q182.244 1585.93 183.899 1585.93 Q188.263 1585.93 190.858 1588.12 Q193.453 1590.3 193.453 1593.95 Q193.453 1595.68 192.795 1597.24 Q192.156 1598.78 190.444 1600.89 Q189.974 1601.43 187.454 1604.05 Q184.934 1606.64 180.344 1611.33 Z" fill="#000000" fill-rule="nonzero" fill-opacity="1" /><path clip-path="url(#clip110)" d="M-64.0769 2049.74 Q-63.5938 2049.74 -62.8853 2050.1 Q-62.2412 2050.42 -61.8225 2051.1 Q-61.436 2051.74 -61.436 2052.45 Q-61.436 2052.68 -61.5649 2053.19 Q-61.9513 2054.06 -62.8209 2055.41 Q-63.6905 2056.77 -64.238 2057.99 Q-64.8177 2059.18 -64.8821 2060.5 Q-64.8821 2061.66 -64.4634 2062.63 Q-63.9803 2063.5 -62.9497 2064.08 Q-62.531 2064.33 -61.8225 2064.33 Q-60.8241 2064.33 -59.5037 2063.79 Q-58.1833 2063.24 -56.4763 2062.11 Q-54.7694 2060.95 -53.61 2060.11 Q-52.4828 2059.28 -50.6149 2057.83 Q-50.4538 2057.7 -50.3572 2057.63 Q-50.2928 2057.57 -50.1318 2057.47 Q-50.003 2057.38 -49.9063 2057.28 Q-46.0738 2054.22 -41.8549 2053.45 Q-40.3734 2053.25 -38.8275 2053.25 Q-35.7358 2053.25 -32.0965 2054.19 Q-28.7793 2054.99 -25.913 2056.7 Q-23.0789 2058.41 -21.2109 2060.98 Q-19.343 2063.53 -19.343 2066.3 Q-19.343 2069.04 -20.5346 2071.29 Q-21.7584 2073.54 -23.8518 2074.9 Q-26.6215 2076.73 -30.454 2076.73 Q-32.6118 2076.73 -34.4475 2076.22 Q-37.3783 2075.51 -40.0836 2073.83 Q-42.7888 2072.16 -44.8822 2069.74 Q-47.974 2066.07 -48.8436 2062.08 Q-52.3862 2063.95 -55.1237 2065.04 Q-57.8934 2066.1 -60.2444 2066.1 Q-62.3056 2066.1 -63.626 2065.33 Q-65.0431 2064.66 -65.8482 2063.27 Q-66.5568 2062.11 -66.911 2060.44 Q-67.0399 2059.41 -67.0399 2058.73 Q-67.0399 2056.44 -65.7838 2051.13 Q-65.4618 2049.74 -64.0769 2049.74 M-36.1866 2057.8 Q-38.1512 2057.8 -39.4716 2058.12 Q-42.6922 2058.73 -47.1366 2061.18 L-47.4587 2061.37 Q-46.5569 2064.49 -43.8194 2067.04 Q-40.47 2070.23 -34.1255 2071.84 Q-30.5828 2072.71 -28.5861 2072.71 Q-26.4283 2072.71 -24.5603 2071.9 Q-22.8212 2071.13 -21.8228 2069.68 Q-20.8245 2068.2 -20.8245 2066.23 Q-20.8245 2064.75 -21.6618 2063.46 Q-22.5314 2062.18 -24.045 2061.24 Q-25.5587 2060.31 -27.2012 2059.66 Q-28.8759 2058.99 -30.8405 2058.47 Q-33.4814 2057.8 -36.1866 2057.8 Z" fill="#000000" fill-rule="nonzero" fill-opacity="1" /><path clip-path="url(#clip110)" d="M-36.5731 2042.46 Q-47.7163 2042.46 -56.7018 2038.31 Q-60.4699 2036.54 -63.626 2034.06 Q-66.7822 2031.58 -68.1671 2029.94 Q-69.5519 2028.29 -69.5519 2027.84 Q-69.5519 2027.2 -68.9078 2027.17 Q-68.5857 2027.17 -67.7806 2028.04 Q-56.9594 2038.66 -36.5731 2038.63 Q-16.1224 2038.63 -5.7199 2028.29 Q-4.5927 2027.17 -4.23843 2027.17 Q-3.59432 2027.17 -3.59432 2027.84 Q-3.59432 2028.29 -4.91476 2029.87 Q-6.2352 2031.45 -9.26255 2033.9 Q-12.2899 2036.34 -15.9936 2038.12 Q-24.979 2042.46 -36.5731 2042.46 Z" fill="#000000" fill-rule="nonzero" fill-opacity="1" /><path clip-path="url(#clip110)" d="M-47.7808 2001.9 Q-46.879 2001.9 -46.6536 2002.32 Q-46.4603 2002.74 -46.4603 2003.9 L-46.4603 2010.08 L-27.008 2014.98 Q-25.3011 2015.36 -23.8518 2015.36 Q-22.2415 2015.36 -21.533 2014.88 Q-20.8245 2014.36 -20.8245 2013.3 Q-20.8245 2011.21 -22.7246 2008.95 Q-24.6247 2006.67 -29.2624 2004.74 Q-29.8743 2004.48 -30.0031 2004.35 Q-30.1642 2004.19 -30.1642 2003.77 Q-30.1642 2002.96 -29.52 2002.96 Q-29.2946 2002.96 -28.264 2003.41 Q-27.2334 2003.83 -25.7197 2004.77 Q-24.2061 2005.67 -22.789 2006.86 Q-21.372 2008.02 -20.3414 2009.79 Q-19.343 2011.56 -19.343 2013.46 Q-19.343 2016.14 -21.0499 2017.84 Q-22.7568 2019.52 -25.4299 2019.52 Q-26.2994 2019.52 -29.0692 2018.84 Q-31.8711 2018.17 -46.4603 2014.49 L-46.4603 2020.32 Q-46.4603 2021.13 -46.4925 2021.45 Q-46.5247 2021.74 -46.6858 2021.97 Q-46.879 2022.16 -47.2655 2022.16 Q-47.8774 2022.16 -48.135 2021.9 Q-48.4249 2021.64 -48.4571 2021.32 Q-48.5215 2020.97 -48.5215 2020.16 L-48.5215 2013.98 L-58.9884 2011.4 Q-60.019 2011.14 -60.5987 2010.5 Q-61.2106 2009.82 -61.275 2009.44 Q-61.3716 2009.05 -61.3716 2008.76 Q-61.3716 2007.89 -60.8885 2007.38 Q-60.4377 2006.86 -59.6003 2006.86 Q-59.1494 2006.86 -48.5215 2009.57 L-48.5215 2003.77 Q-48.5215 2003.03 -48.4893 2002.74 Q-48.4571 2002.42 -48.2961 2002.16 Q-48.135 2001.9 -47.7808 2001.9 Z" fill="#000000" fill-rule="nonzero" fill-opacity="1" /><path clip-path="url(#clip110)" d="M-4.23843 1996.74 Q-4.56049 1996.74 -5.36564 1995.91 Q-16.1868 1985.28 -36.5731 1985.28 Q-57.0238 1985.28 -67.3619 1995.49 Q-68.5535 1996.74 -68.9078 1996.74 Q-69.5519 1996.74 -69.5519 1996.1 Q-69.5519 1995.65 -68.2315 1994.07 Q-66.911 1992.46 -63.8837 1990.04 Q-60.8563 1987.6 -57.1527 1985.79 Q-48.1672 1981.45 -36.5731 1981.45 Q-25.4299 1981.45 -16.4445 1985.6 Q-12.6764 1987.37 -9.5202 1989.85 Q-6.36402 1992.33 -4.97917 1993.97 Q-3.59432 1995.62 -3.59432 1996.1 Q-3.59432 1996.74 -4.23843 1996.74 Z" fill="#000000" fill-rule="nonzero" fill-opacity="1" /><polyline clip-path="url(#clip112)" style="stroke:#009af9; stroke-linecap:round; stroke-linejoin:round; stroke-width:8; stroke-opacity:1; fill:none" points="469.778,159.14 484.543,168.465 499.307,177.789 514.072,187.113 528.836,196.437 543.601,205.761 558.365,215.086 573.13,224.41 587.894,233.734 602.659,243.058 617.423,252.383 632.188,261.707 646.952,271.031 661.717,280.356 676.481,289.68 691.246,299.004 706.01,308.328 720.775,317.652 735.539,326.977 750.304,336.302 765.068,345.626 779.833,354.95 794.597,364.274 809.362,373.597 824.126,382.922 838.891,392.247 853.655,401.573 868.42,410.898 883.184,420.221 897.949,429.545 912.713,438.868 927.478,448.191 942.242,457.515 957.007,466.84 971.771,476.167 986.536,485.493 1001.3,494.819 1016.06,504.142 1030.83,513.465 1045.59,522.787 1060.36,532.11 1075.12,541.433 1089.89,550.758 1104.65,560.083 1119.42,569.411 1134.18,578.737 1148.95,588.062 1163.71,597.385 1178.47,606.708 1193.24,616.029 1208,625.352 1222.77,634.675 1237.53,644 1252.3,653.325 1267.06,662.655 1281.83,671.984 1296.59,681.311 1311.36,690.635 1326.12,699.957 1340.88,709.277 1355.65,718.597 1370.41,727.919 1385.18,737.242 1399.94,746.567 1414.71,755.892 1429.47,765.223 1444.24,774.554 1459,783.883 1473.76,793.208 1488.53,802.53 1503.29,811.85 1518.06,821.169 1532.82,830.488 1547.59,839.809 1562.35,849.133 1577.12,858.458 1591.88,867.784 1606.65,877.116 1621.41,886.448 1636.17,895.777 1650.94,905.102 1665.7,914.424 1680.47,923.744 1695.23,933.062 1710,942.381 1724.76,951.701 1739.53,961.024 1754.29,970.35 1769.05,979.676 1783.82,989.009 1798.58,998.344 1813.35,1007.68 1828.11,1017 1842.88,1026.32 1857.64,1035.64 1872.41,1044.96 1887.17,1054.28 1901.94,1063.6 1916.7,1072.92 1931.46,1082.24 1946.23,1091.57 1960.99,1100.89 1975.76,1110.23 1990.52,1119.57 2005.29,1128.9 2020.05,1138.23 2034.82,1147.55 2049.58,1156.87 2064.35,1166.19 2079.11,1175.5 2093.87,1184.82 2108.64,1194.14 2123.4,1203.46 2138.17,1212.79 2152.93,1222.11 2167.7,1231.45 2182.46,1240.78 2197.23,1250.11 2211.99,1259.44 2226.75,1268.77 2241.52,1278.09 2256.28,1287.4 2271.05,1296.72 2285.81,1306.04 2300.58,1315.36 2315.34,1324.68 2330.11,1334 2344.87,1343.33 2359.64,1352.66 2374.4,1362 2389.16,1371.34 2403.93,1380.67 2418.69,1390 2433.46,1399.32 2448.22,1408.64 2462.99,1417.95 2477.75,1427.27 2492.52,1436.58 2507.28,1445.9 2522.04,1455.22 2536.81,1464.55 2551.57,1473.88 2566.34,1483.21 2581.1,1492.55 2595.87,1501.88 2610.63,1511.21 2625.4,1520.54 2640.16,1529.86 2654.93,1539.18 2669.69,1548.49 2684.45,1557.81 2699.22,1567.12 2713.98,1576.44 2728.75,1585.77 2743.51,1595.09 2758.28,1604.42 2773.04,1613.76 2787.81,1623.1 2802.57,1632.43 2817.34,1641.76 2832.1,1651.09 2846.86,1660.41 2861.63,1669.73 2876.39,1679.04 2891.16,1688.35 2905.92,1697.67 2920.69,1706.99 2935.45,1716.31 2950.22,1725.64 2964.98,1734.97 2979.74,1744.3 2994.51,1753.64 3009.27,1762.98 3024.04,1772.32 3038.8,1781.64 3053.57,1790.96 3068.33,1800.28 3083.1,1809.59 3097.86,1818.9 3112.63,1828.22 3127.39,1837.53 3142.15,1846.86 3156.92,1856.18 3171.68,1865.51 3186.45,1874.84 3201.21,1884.19 3215.98,1893.53 3230.74,1902.86 3245.51,1912.19 3260.27,1921.51 3275.03,1930.82 3289.8,1940.14 3304.56,1949.45 3319.33,1958.76 3334.09,1968.08 3348.86,1977.4 3363.62,1986.73 3378.39,1996.06 3393.15,2005.39 3407.92,2014.73 3422.68,2024.08 3437.44,2033.41 3452.21,2042.75 3466.97,2052.07 3481.74,2061.39 3496.5,2070.7 3511.27,2080.01 3526.03,2089.32 3540.8,2098.63 3555.56,2107.95 3570.33,2117.27 3585.09,2126.6 3599.85,2135.93 3614.62,2145.26 3629.38,2154.61 3644.15,2163.95 3658.91,2173.29 3673.68,2182.61 3688.44,2191.93 3703.21,2201.25 3717.97,2210.56 3732.73,2219.87 3747.5,2229.18 3762.26,2238.49 3777.03,2247.82 3791.79,2257.14 3806.56,2266.47 3821.32,2275.8 3836.09,2285.15 3850.85,2294.5 3865.62,2303.85 3880.38,2313.18 3895.14,2322.51 3909.91,2331.82 3924.67,2341.13 3939.44,2350.44 3954.2,2359.74 3968.97,2369.05 3983.73,2378.37 3998.5,2387.69 4013.26,2397.01 4028.02,2406.35 4042.79,2415.68 4057.55,2425.02 4072.32,2434.37 4087.08,2443.71 4101.85,2453.05 4116.61,2462.37 4131.38,2471.69 4146.14,2480.99 4160.91,2490.3 4175.67,2499.61 4190.43,2508.92 4205.2,2518.23 4219.96,2527.55 4234.73,2536.88 4249.49,2546.22 4264.26,2555.55 4279.02,2564.9 4293.79,2574.26 4308.55,2583.61 4323.31,2592.95 4338.08,2602.27 4352.84,2611.58 4367.61,2620.89 4382.37,2630.19 4397.14,2639.49 4411.9,2648.79 4426.67,2658.1 4441.43,2667.42 4456.2,2676.74 4470.96,2686.08 4485.72,2695.42 4500.49,2704.75 4515.25,2714.11 4530.02,2723.47 4544.78,2732.82 4559.55,2742.15 4574.31,2751.47 4589.08,2760.77 4603.84,2770.07 4618.61,2779.36 4633.37,2788.66 4648.13,2797.97 4662.9,2807.28 4677.66,2816.6 4692.43,2825.94 4707.19,2835.28 4721.96,2844.62 4736.72,2853.97 4751.49,2863.34 4766.25,2872.71 4781.01,2882.06 4795.78,2891.39 4810.54,2900.69 4825.31,2909.99 4840.07,2919.27 4854.84,2928.55 4869.6,2937.84 4884.37,2947.14 4899.13,2956.45 4913.9,2965.77 4928.66,2975.11 4943.42,2984.46 4958.19,2993.81 4972.95,3003.16 4987.72,3012.53 5002.48,3021.91 5017.25,3031.28 5032.01,3040.61 5046.78,3049.92 5061.54,3059.21 5076.3,3068.49 5091.07,3077.76 5105.83,3087.04 5120.6,3096.32 5135.36,3105.62 5150.13,3114.94 5164.89,3124.28 5179.66,3133.63 5194.42,3142.98 5209.19,3152.34 5223.95,3161.72 5238.71,3171.11 5253.48,3180.51 5268.24,3189.88 5283.01,3199.21 5297.77,3208.5 5312.54,3217.77 5327.3,3227.03 5342.07,3236.27 5356.83,3245.52 5371.6,3254.79 5386.36,3264.08 5401.12,3273.4 5415.89,3282.74 5430.65,3292.1 5445.42,3301.47 5460.18,3310.84 5474.95,3320.22 5489.71,3329.63 5504.48,3339.03 5519.24,3348.44 5534,3357.8 5548.77,3367.12 5563.53,3376.39 5578.3,3385.63 5593.06,3394.86 5607.83,3404.08 5622.59,3413.31 5637.36,3422.57 5652.12,3431.86 5666.89,3441.18 5681.65,3450.53 5696.41,3459.91 5711.18,3469.28 5725.94,3478.67 5740.71,3488.1 5755.47,3497.54 5770.24,3506.97 5785,3516.4 5799.77,3525.8 5814.53,3535.13 5829.29,3544.4 5844.06,3553.62 5858.82,3562.8 5873.59,3571.97 5888.35,3581.15 5903.12,3590.36 5917.88,3599.6 5932.65,3608.88 5947.41,3618.22 5962.18,3627.6 5976.94,3637 5991.7,3646.4 6006.47,3655.82 6021.23,3665.28 6036,3674.76 6050.76,3684.22 6065.53,3693.65 6080.29,3703.06 6095.06,3712.45 6109.82,3721.77 6124.59,3731.01 6139.35,3740.2 6154.11,3749.37 6168.88,3758.53 6183.64,3767.71 6198.41,3776.91 6213.17,3786.17 6227.94,3795.47 6242.7,3804.83 6257.47,3814.23 6272.23,3823.64 6286.99,3833.02 6301.76,3842.39 6316.52,3851.75 6331.29,3861.08 6346.05,3870.4 6360.82,3879.7 6375.58,3889.01 "/>
<path clip-path="url(#clip110)" d="M5200.92 282.713 L6344.08 282.713 L6344.08 179.033 L5200.92 179.033  Z" fill="#ffffff" fill-rule="evenodd" fill-opacity="1"/>
<polyline clip-path="url(#clip110)" style="stroke:#000000; stroke-linecap:round; stroke-linejoin:round; stroke-width:4; stroke-opacity:1; fill:none" points="5200.92,282.713 6344.08,282.713 6344.08,179.033 5200.92,179.033 5200.92,282.713 "/>
<polyline clip-path="url(#clip110)" style="stroke:#009af9; stroke-linecap:round; stroke-linejoin:round; stroke-width:8; stroke-opacity:1; fill:none" points="5270.48,230.873 5687.82,230.873 "/>
<path clip-path="url(#clip110)" d="M5779.62 214.727 L5779.62 219.287 Q5776.96 218.014 5774.6 217.389 Q5772.24 216.764 5770.04 216.764 Q5766.22 216.764 5764.14 218.246 Q5762.08 219.727 5762.08 222.459 Q5762.08 224.75 5763.44 225.931 Q5764.83 227.088 5768.67 227.806 L5771.5 228.385 Q5776.73 229.38 5779.21 231.903 Q5781.71 234.403 5781.71 238.616 Q5781.71 243.639 5778.33 246.232 Q5774.97 248.824 5768.46 248.824 Q5766.01 248.824 5763.23 248.269 Q5760.48 247.713 5757.52 246.625 L5757.52 241.81 Q5760.36 243.408 5763.09 244.218 Q5765.83 245.028 5768.46 245.028 Q5772.47 245.028 5774.65 243.454 Q5776.82 241.88 5776.82 238.963 Q5776.82 236.417 5775.25 234.982 Q5773.7 233.547 5770.13 232.829 L5767.28 232.273 Q5762.05 231.232 5759.71 229.01 Q5757.38 226.787 5757.38 222.829 Q5757.38 218.246 5760.59 215.607 Q5763.84 212.968 5769.51 212.968 Q5771.94 212.968 5774.46 213.408 Q5776.98 213.848 5779.62 214.727 Z" fill="#000000" fill-rule="nonzero" fill-opacity="1" /><path clip-path="url(#clip110)" d="M5788.81 222.227 L5793.07 222.227 L5793.07 248.153 L5788.81 248.153 L5788.81 222.227 M5788.81 212.135 L5793.07 212.135 L5793.07 217.528 L5788.81 217.528 L5788.81 212.135 Z" fill="#000000" fill-rule="nonzero" fill-opacity="1" /><path clip-path="url(#clip110)" d="M5818.51 222.991 L5818.51 227.019 Q5816.71 226.093 5814.76 225.63 Q5812.82 225.167 5810.73 225.167 Q5807.56 225.167 5805.96 226.139 Q5804.39 227.111 5804.39 229.056 Q5804.39 230.537 5805.52 231.394 Q5806.66 232.227 5810.08 232.991 L5811.54 233.315 Q5816.08 234.287 5817.98 236.07 Q5819.9 237.829 5819.9 241 Q5819.9 244.611 5817.03 246.718 Q5814.18 248.824 5809.18 248.824 Q5807.1 248.824 5804.83 248.408 Q5802.59 248.014 5800.09 247.204 L5800.09 242.806 Q5802.45 244.033 5804.74 244.658 Q5807.03 245.259 5809.27 245.259 Q5812.28 245.259 5813.9 244.241 Q5815.52 243.199 5815.52 241.324 Q5815.52 239.588 5814.34 238.662 Q5813.19 237.736 5809.23 236.88 L5807.75 236.533 Q5803.79 235.699 5802.03 233.986 Q5800.27 232.25 5800.27 229.241 Q5800.27 225.584 5802.86 223.593 Q5805.46 221.602 5810.22 221.602 Q5812.58 221.602 5814.67 221.949 Q5816.75 222.297 5818.51 222.991 Z" fill="#000000" fill-rule="nonzero" fill-opacity="1" /><path clip-path="url(#clip110)" d="M5830.9 214.866 L5830.9 222.227 L5839.67 222.227 L5839.67 225.537 L5830.9 225.537 L5830.9 239.611 Q5830.9 242.783 5831.75 243.685 Q5832.63 244.588 5835.29 244.588 L5839.67 244.588 L5839.67 248.153 L5835.29 248.153 Q5830.36 248.153 5828.49 246.324 Q5826.61 244.472 5826.61 239.611 L5826.61 225.537 L5823.49 225.537 L5823.49 222.227 L5826.61 222.227 L5826.61 214.866 L5830.9 214.866 Z" fill="#000000" fill-rule="nonzero" fill-opacity="1" /><path clip-path="url(#clip110)" d="M5867.45 234.125 L5867.45 236.209 L5847.86 236.209 Q5848.14 240.607 5850.5 242.922 Q5852.89 245.213 5857.12 245.213 Q5859.58 245.213 5861.87 244.611 Q5864.18 244.009 5866.45 242.806 L5866.45 246.834 Q5864.16 247.806 5861.75 248.315 Q5859.34 248.824 5856.87 248.824 Q5850.66 248.824 5847.03 245.213 Q5843.42 241.602 5843.42 235.445 Q5843.42 229.079 5846.84 225.352 Q5850.29 221.602 5856.13 221.602 Q5861.36 221.602 5864.39 224.982 Q5867.45 228.338 5867.45 234.125 M5863.19 232.875 Q5863.14 229.38 5861.22 227.297 Q5859.32 225.213 5856.17 225.213 Q5852.61 225.213 5850.46 227.227 Q5848.33 229.241 5848 232.898 L5863.19 232.875 Z" fill="#000000" fill-rule="nonzero" fill-opacity="1" /><path clip-path="url(#clip110)" d="M5894.62 227.204 Q5896.22 224.334 5898.44 222.968 Q5900.66 221.602 5903.67 221.602 Q5907.72 221.602 5909.92 224.449 Q5912.12 227.273 5912.12 232.505 L5912.12 248.153 L5907.84 248.153 L5907.84 232.644 Q5907.84 228.917 5906.52 227.111 Q5905.2 225.306 5902.49 225.306 Q5899.18 225.306 5897.26 227.505 Q5895.34 229.704 5895.34 233.5 L5895.34 248.153 L5891.06 248.153 L5891.06 232.644 Q5891.06 228.894 5889.74 227.111 Q5888.42 225.306 5885.66 225.306 Q5882.4 225.306 5880.48 227.528 Q5878.56 229.727 5878.56 233.5 L5878.56 248.153 L5874.27 248.153 L5874.27 222.227 L5878.56 222.227 L5878.56 226.255 Q5880.02 223.871 5882.05 222.736 Q5884.09 221.602 5886.89 221.602 Q5889.71 221.602 5891.68 223.037 Q5893.67 224.473 5894.62 227.204 Z" fill="#000000" fill-rule="nonzero" fill-opacity="1" /><path clip-path="url(#clip110)" d="M5932.4 235.121 Q5927.24 235.121 5925.25 236.301 Q5923.26 237.482 5923.26 240.329 Q5923.26 242.597 5924.74 243.94 Q5926.24 245.259 5928.81 245.259 Q5932.35 245.259 5934.48 242.759 Q5936.64 240.236 5936.64 236.07 L5936.64 235.121 L5932.4 235.121 M5940.89 233.361 L5940.89 248.153 L5936.64 248.153 L5936.64 244.218 Q5935.18 246.579 5933 247.713 Q5930.83 248.824 5927.68 248.824 Q5923.7 248.824 5921.33 246.602 Q5919 244.357 5919 240.607 Q5919 236.232 5921.91 234.01 Q5924.85 231.787 5930.66 231.787 L5936.64 231.787 L5936.64 231.371 Q5936.64 228.431 5934.69 226.834 Q5932.77 225.213 5929.27 225.213 Q5927.05 225.213 5924.95 225.746 Q5922.84 226.278 5920.89 227.343 L5920.89 223.408 Q5923.23 222.505 5925.43 222.065 Q5927.63 221.602 5929.71 221.602 Q5935.34 221.602 5938.12 224.519 Q5940.89 227.436 5940.89 233.361 Z" fill="#000000" fill-rule="nonzero" fill-opacity="1" /><path clip-path="url(#clip110)" d="M5964.74 212.135 L5969 212.135 L5969 248.153 L5964.74 248.153 L5964.74 212.135 Z" fill="#000000" fill-rule="nonzero" fill-opacity="1" /><path clip-path="url(#clip110)" d="M5977.91 222.227 L5982.17 222.227 L5982.17 248.153 L5977.91 248.153 L5977.91 222.227 M5977.91 212.135 L5982.17 212.135 L5982.17 217.528 L5977.91 217.528 L5977.91 212.135 Z" fill="#000000" fill-rule="nonzero" fill-opacity="1" /><path clip-path="url(#clip110)" d="M6012.63 232.505 L6012.63 248.153 L6008.37 248.153 L6008.37 232.644 Q6008.37 228.963 6006.94 227.135 Q6005.5 225.306 6002.63 225.306 Q5999.18 225.306 5997.19 227.505 Q5995.2 229.704 5995.2 233.5 L5995.2 248.153 L5990.92 248.153 L5990.92 222.227 L5995.2 222.227 L5995.2 226.255 Q5996.73 223.917 5998.79 222.76 Q6000.87 221.602 6003.58 221.602 Q6008.05 221.602 6010.34 224.38 Q6012.63 227.135 6012.63 232.505 Z" fill="#000000" fill-rule="nonzero" fill-opacity="1" /><path clip-path="url(#clip110)" d="M6043.3 234.125 L6043.3 236.209 L6023.72 236.209 Q6024 240.607 6026.36 242.922 Q6028.74 245.213 6032.98 245.213 Q6035.43 245.213 6037.72 244.611 Q6040.04 244.009 6042.31 242.806 L6042.31 246.834 Q6040.01 247.806 6037.61 248.315 Q6035.2 248.824 6032.72 248.824 Q6026.52 248.824 6022.88 245.213 Q6019.27 241.602 6019.27 235.445 Q6019.27 229.079 6022.7 225.352 Q6026.15 221.602 6031.98 221.602 Q6037.21 221.602 6040.25 224.982 Q6043.3 228.338 6043.3 234.125 M6039.04 232.875 Q6039 229.38 6037.07 227.297 Q6035.18 225.213 6032.03 225.213 Q6028.46 225.213 6026.31 227.227 Q6024.18 229.241 6023.86 232.898 L6039.04 232.875 Z" fill="#000000" fill-rule="nonzero" fill-opacity="1" /><path clip-path="url(#clip110)" d="M6062.07 235.121 Q6056.91 235.121 6054.92 236.301 Q6052.93 237.482 6052.93 240.329 Q6052.93 242.597 6054.41 243.94 Q6055.92 245.259 6058.49 245.259 Q6062.03 245.259 6064.16 242.759 Q6066.31 240.236 6066.31 236.07 L6066.31 235.121 L6062.07 235.121 M6070.57 233.361 L6070.57 248.153 L6066.31 248.153 L6066.31 244.218 Q6064.85 246.579 6062.68 247.713 Q6060.5 248.824 6057.35 248.824 Q6053.37 248.824 6051.01 246.602 Q6048.67 244.357 6048.67 240.607 Q6048.67 236.232 6051.59 234.01 Q6054.53 231.787 6060.34 231.787 L6066.31 231.787 L6066.31 231.371 Q6066.31 228.431 6064.37 226.834 Q6062.44 225.213 6058.95 225.213 Q6056.73 225.213 6054.62 225.746 Q6052.51 226.278 6050.57 227.343 L6050.57 223.408 Q6052.91 222.505 6055.11 222.065 Q6057.31 221.602 6059.39 221.602 Q6065.01 221.602 6067.79 224.519 Q6070.57 227.436 6070.57 233.361 Z" fill="#000000" fill-rule="nonzero" fill-opacity="1" /><path clip-path="url(#clip110)" d="M6079.34 212.135 L6083.6 212.135 L6083.6 248.153 L6079.34 248.153 L6079.34 212.135 Z" fill="#000000" fill-rule="nonzero" fill-opacity="1" /><path clip-path="url(#clip110)" d="M6129.76 234.125 L6129.76 236.209 L6110.18 236.209 Q6110.45 240.607 6112.81 242.922 Q6115.2 245.213 6119.44 245.213 Q6121.89 245.213 6124.18 244.611 Q6126.5 244.009 6128.76 242.806 L6128.76 246.834 Q6126.47 247.806 6124.06 248.315 Q6121.66 248.824 6119.18 248.824 Q6112.98 248.824 6109.34 245.213 Q6105.73 241.602 6105.73 235.445 Q6105.73 229.079 6109.16 225.352 Q6112.61 221.602 6118.44 221.602 Q6123.67 221.602 6126.7 224.982 Q6129.76 228.338 6129.76 234.125 M6125.5 232.875 Q6125.45 229.38 6123.53 227.297 Q6121.63 225.213 6118.49 225.213 Q6114.92 225.213 6112.77 227.227 Q6110.64 229.241 6110.31 232.898 L6125.5 232.875 Z" fill="#000000" fill-rule="nonzero" fill-opacity="1" /><path clip-path="url(#clip110)" d="M6153.28 222.991 L6153.28 227.019 Q6151.47 226.093 6149.53 225.63 Q6147.58 225.167 6145.5 225.167 Q6142.33 225.167 6140.73 226.139 Q6139.16 227.111 6139.16 229.056 Q6139.16 230.537 6140.29 231.394 Q6141.43 232.227 6144.85 232.991 L6146.31 233.315 Q6150.85 234.287 6152.75 236.07 Q6154.67 237.829 6154.67 241 Q6154.67 244.611 6151.8 246.718 Q6148.95 248.824 6143.95 248.824 Q6141.87 248.824 6139.6 248.408 Q6137.35 248.014 6134.85 247.204 L6134.85 242.806 Q6137.21 244.033 6139.5 244.658 Q6141.8 245.259 6144.04 245.259 Q6147.05 245.259 6148.67 244.241 Q6150.29 243.199 6150.29 241.324 Q6150.29 239.588 6149.11 238.662 Q6147.95 237.736 6144 236.88 L6142.51 236.533 Q6138.56 235.699 6136.8 233.986 Q6135.04 232.25 6135.04 229.241 Q6135.04 225.584 6137.63 223.593 Q6140.22 221.602 6144.99 221.602 Q6147.35 221.602 6149.44 221.949 Q6151.52 222.297 6153.28 222.991 Z" fill="#000000" fill-rule="nonzero" fill-opacity="1" /><path clip-path="url(#clip110)" d="M6165.66 214.866 L6165.66 222.227 L6174.43 222.227 L6174.43 225.537 L6165.66 225.537 L6165.66 239.611 Q6165.66 242.783 6166.52 243.685 Q6167.4 244.588 6170.06 244.588 L6174.43 244.588 L6174.43 248.153 L6170.06 248.153 Q6165.13 248.153 6163.25 246.324 Q6161.38 244.472 6161.38 239.611 L6161.38 225.537 L6158.25 225.537 L6158.25 222.227 L6161.38 222.227 L6161.38 214.866 L6165.66 214.866 Z" fill="#000000" fill-rule="nonzero" fill-opacity="1" /><path clip-path="url(#clip110)" d="M6191.82 235.121 Q6186.66 235.121 6184.67 236.301 Q6182.68 237.482 6182.68 240.329 Q6182.68 242.597 6184.16 243.94 Q6185.66 245.259 6188.23 245.259 Q6191.77 245.259 6193.9 242.759 Q6196.06 240.236 6196.06 236.07 L6196.06 235.121 L6191.82 235.121 M6200.31 233.361 L6200.31 248.153 L6196.06 248.153 L6196.06 244.218 Q6194.6 246.579 6192.42 247.713 Q6190.24 248.824 6187.1 248.824 Q6183.12 248.824 6180.75 246.602 Q6178.42 244.357 6178.42 240.607 Q6178.42 236.232 6181.33 234.01 Q6184.27 231.787 6190.08 231.787 L6196.06 231.787 L6196.06 231.371 Q6196.06 228.431 6194.11 226.834 Q6192.19 225.213 6188.69 225.213 Q6186.47 225.213 6184.37 225.746 Q6182.26 226.278 6180.31 227.343 L6180.31 223.408 Q6182.65 222.505 6184.85 222.065 Q6187.05 221.602 6189.13 221.602 Q6194.76 221.602 6197.54 224.519 Q6200.31 227.436 6200.31 233.361 Z" fill="#000000" fill-rule="nonzero" fill-opacity="1" /><path clip-path="url(#clip110)" d="M6227.7 235.213 Q6227.7 230.514 6225.75 227.852 Q6223.83 225.167 6220.45 225.167 Q6217.07 225.167 6215.13 227.852 Q6213.21 230.514 6213.21 235.213 Q6213.21 239.912 6215.13 242.597 Q6217.07 245.259 6220.45 245.259 Q6223.83 245.259 6225.75 242.597 Q6227.7 239.912 6227.7 235.213 M6213.21 226.162 Q6214.55 223.848 6216.59 222.736 Q6218.65 221.602 6221.49 221.602 Q6226.22 221.602 6229.16 225.352 Q6232.12 229.102 6232.12 235.213 Q6232.12 241.324 6229.16 245.074 Q6226.22 248.824 6221.49 248.824 Q6218.65 248.824 6216.59 247.713 Q6214.55 246.579 6213.21 244.264 L6213.21 248.153 L6208.93 248.153 L6208.93 212.135 L6213.21 212.135 L6213.21 226.162 Z" fill="#000000" fill-rule="nonzero" fill-opacity="1" /><path clip-path="url(#clip110)" d="M6239.18 212.135 L6243.44 212.135 L6243.44 248.153 L6239.18 248.153 L6239.18 212.135 Z" fill="#000000" fill-rule="nonzero" fill-opacity="1" /><path clip-path="url(#clip110)" d="M6274.53 234.125 L6274.53 236.209 L6254.94 236.209 Q6255.22 240.607 6257.58 242.922 Q6259.97 245.213 6264.2 245.213 Q6266.66 245.213 6268.95 244.611 Q6271.26 244.009 6273.53 242.806 L6273.53 246.834 Q6271.24 247.806 6268.83 248.315 Q6266.43 248.824 6263.95 248.824 Q6257.74 248.824 6254.11 245.213 Q6250.5 241.602 6250.5 235.445 Q6250.5 229.079 6253.93 225.352 Q6257.37 221.602 6263.21 221.602 Q6268.44 221.602 6271.47 224.982 Q6274.53 228.338 6274.53 234.125 M6270.27 232.875 Q6270.22 229.38 6268.3 227.297 Q6266.4 225.213 6263.25 225.213 Q6259.69 225.213 6257.54 227.227 Q6255.41 229.241 6255.08 232.898 L6270.27 232.875 Z" fill="#000000" fill-rule="nonzero" fill-opacity="1" /></svg>
