<?xml version="1.0" encoding="utf-8"?>
<svg xmlns="http://www.w3.org/2000/svg" xmlns:xlink="http://www.w3.org/1999/xlink" width="1650" height="1050" viewBox="0 0 6600 4200">
<defs>
  <clipPath id="clip380">
    <rect x="0" y="0" width="6600" height="4200"/>
  </clipPath>
</defs>
<path clip-path="url(#clip380)" d="M0 4200 L6600 4200 L6600 0 L0 0  Z" fill="#ffffff" fill-rule="evenodd" fill-opacity="1"/>
<defs>
  <clipPath id="clip381">
    <rect x="243" y="47" width="6310" height="3955"/>
  </clipPath>
</defs>
<path clip-path="url(#clip380)" d="M251.165 4000.91 L6552.76 4000.91 L6552.76 47.2441 L251.165 47.2441  Z" fill="#ffffff" fill-rule="evenodd" fill-opacity="1"/>
<defs>
  <clipPath id="clip382">
    <rect x="251" y="47" width="6303" height="3955"/>
  </clipPath>
</defs>
<polyline clip-path="url(#clip382)" style="stroke:#000000; stroke-linecap:round; stroke-linejoin:round; stroke-width:2; stroke-opacity:0.1; fill:none" points="601.066,4000.91 601.066,47.2441 "/>
<polyline clip-path="url(#clip382)" style="stroke:#000000; stroke-linecap:round; stroke-linejoin:round; stroke-width:2; stroke-opacity:0.1; fill:none" points="1551.11,4000.91 1551.11,47.2441 "/>
<polyline clip-path="url(#clip382)" style="stroke:#000000; stroke-linecap:round; stroke-linejoin:round; stroke-width:2; stroke-opacity:0.1; fill:none" points="2501.15,4000.91 2501.15,47.2441 "/>
<polyline clip-path="url(#clip382)" style="stroke:#000000; stroke-linecap:round; stroke-linejoin:round; stroke-width:2; stroke-opacity:0.1; fill:none" points="3451.19,4000.91 3451.19,47.2441 "/>
<polyline clip-path="url(#clip382)" style="stroke:#000000; stroke-linecap:round; stroke-linejoin:round; stroke-width:2; stroke-opacity:0.1; fill:none" points="4401.23,4000.91 4401.23,47.2441 "/>
<polyline clip-path="url(#clip382)" style="stroke:#000000; stroke-linecap:round; stroke-linejoin:round; stroke-width:2; stroke-opacity:0.1; fill:none" points="5351.27,4000.91 5351.27,47.2441 "/>
<polyline clip-path="url(#clip382)" style="stroke:#000000; stroke-linecap:round; stroke-linejoin:round; stroke-width:2; stroke-opacity:0.1; fill:none" points="6301.31,4000.91 6301.31,47.2441 "/>
<polyline clip-path="url(#clip382)" style="stroke:#000000; stroke-linecap:round; stroke-linejoin:round; stroke-width:2; stroke-opacity:0.1; fill:none" points="251.165,3402.49 6552.76,3402.49 "/>
<polyline clip-path="url(#clip382)" style="stroke:#000000; stroke-linecap:round; stroke-linejoin:round; stroke-width:2; stroke-opacity:0.1; fill:none" points="251.165,2797.6 6552.76,2797.6 "/>
<polyline clip-path="url(#clip382)" style="stroke:#000000; stroke-linecap:round; stroke-linejoin:round; stroke-width:2; stroke-opacity:0.1; fill:none" points="251.165,2192.71 6552.76,2192.71 "/>
<polyline clip-path="url(#clip382)" style="stroke:#000000; stroke-linecap:round; stroke-linejoin:round; stroke-width:2; stroke-opacity:0.1; fill:none" points="251.165,1587.83 6552.76,1587.83 "/>
<polyline clip-path="url(#clip382)" style="stroke:#000000; stroke-linecap:round; stroke-linejoin:round; stroke-width:2; stroke-opacity:0.1; fill:none" points="251.165,982.943 6552.76,982.943 "/>
<polyline clip-path="url(#clip382)" style="stroke:#000000; stroke-linecap:round; stroke-linejoin:round; stroke-width:2; stroke-opacity:0.1; fill:none" points="251.165,378.057 6552.76,378.057 "/>
<polyline clip-path="url(#clip380)" style="stroke:#000000; stroke-linecap:round; stroke-linejoin:round; stroke-width:4; stroke-opacity:1; fill:none" points="251.165,4000.91 6552.76,4000.91 "/>
<polyline clip-path="url(#clip380)" style="stroke:#000000; stroke-linecap:round; stroke-linejoin:round; stroke-width:4; stroke-opacity:1; fill:none" points="601.066,4000.91 601.066,3982.01 "/>
<polyline clip-path="url(#clip380)" style="stroke:#000000; stroke-linecap:round; stroke-linejoin:round; stroke-width:4; stroke-opacity:1; fill:none" points="1551.11,4000.91 1551.11,3982.01 "/>
<polyline clip-path="url(#clip380)" style="stroke:#000000; stroke-linecap:round; stroke-linejoin:round; stroke-width:4; stroke-opacity:1; fill:none" points="2501.15,4000.91 2501.15,3982.01 "/>
<polyline clip-path="url(#clip380)" style="stroke:#000000; stroke-linecap:round; stroke-linejoin:round; stroke-width:4; stroke-opacity:1; fill:none" points="3451.19,4000.91 3451.19,3982.01 "/>
<polyline clip-path="url(#clip380)" style="stroke:#000000; stroke-linecap:round; stroke-linejoin:round; stroke-width:4; stroke-opacity:1; fill:none" points="4401.23,4000.91 4401.23,3982.01 "/>
<polyline clip-path="url(#clip380)" style="stroke:#000000; stroke-linecap:round; stroke-linejoin:round; stroke-width:4; stroke-opacity:1; fill:none" points="5351.27,4000.91 5351.27,3982.01 "/>
<polyline clip-path="url(#clip380)" style="stroke:#000000; stroke-linecap:round; stroke-linejoin:round; stroke-width:4; stroke-opacity:1; fill:none" points="6301.31,4000.91 6301.31,3982.01 "/>
<path clip-path="url(#clip380)" d="M570.707 4080.08 L600.383 4080.08 L600.383 4084.02 L570.707 4084.02 L570.707 4080.08 Z" fill="#000000" fill-rule="nonzero" fill-opacity="1" /><path clip-path="url(#clip380)" d="M610.522 4062.35 L628.878 4062.35 L628.878 4066.29 L614.804 4066.29 L614.804 4074.76 Q615.823 4074.41 616.841 4074.25 Q617.86 4074.06 618.878 4074.06 Q624.665 4074.06 628.045 4077.23 Q631.425 4080.41 631.425 4085.82 Q631.425 4091.4 627.952 4094.5 Q624.48 4097.58 618.161 4097.58 Q615.985 4097.58 613.716 4097.21 Q611.471 4096.84 609.064 4096.1 L609.064 4091.4 Q611.147 4092.54 613.369 4093.09 Q615.591 4093.65 618.068 4093.65 Q622.073 4093.65 624.411 4091.54 Q626.749 4089.43 626.749 4085.82 Q626.749 4082.21 624.411 4080.11 Q622.073 4078 618.068 4078 Q616.193 4078 614.318 4078.42 Q612.466 4078.83 610.522 4079.71 L610.522 4062.35 Z" fill="#000000" fill-rule="nonzero" fill-opacity="1" /><path clip-path="url(#clip380)" d="M1520.01 4080.08 L1549.68 4080.08 L1549.68 4084.02 L1520.01 4084.02 L1520.01 4080.08 Z" fill="#000000" fill-rule="nonzero" fill-opacity="1" /><path clip-path="url(#clip380)" d="M1572.62 4066.42 L1560.82 4084.87 L1572.62 4084.87 L1572.62 4066.42 M1571.4 4062.35 L1577.28 4062.35 L1577.28 4084.87 L1582.21 4084.87 L1582.21 4088.76 L1577.28 4088.76 L1577.28 4096.91 L1572.62 4096.91 L1572.62 4088.76 L1557.02 4088.76 L1557.02 4084.25 L1571.4 4062.35 Z" fill="#000000" fill-rule="nonzero" fill-opacity="1" /><path clip-path="url(#clip380)" d="M2470.62 4080.08 L2500.29 4080.08 L2500.29 4084.02 L2470.62 4084.02 L2470.62 4080.08 Z" fill="#000000" fill-rule="nonzero" fill-opacity="1" /><path clip-path="url(#clip380)" d="M2524.55 4078.28 Q2527.91 4078.99 2529.78 4081.26 Q2531.68 4083.53 2531.68 4086.86 Q2531.68 4091.98 2528.16 4094.78 Q2524.64 4097.58 2518.16 4097.58 Q2515.99 4097.58 2513.67 4097.14 Q2511.38 4096.73 2508.93 4095.87 L2508.93 4091.36 Q2510.87 4092.49 2513.18 4093.07 Q2515.5 4093.65 2518.02 4093.65 Q2522.42 4093.65 2524.71 4091.91 Q2527.03 4090.17 2527.03 4086.86 Q2527.03 4083.81 2524.87 4082.1 Q2522.75 4080.36 2518.93 4080.36 L2514.9 4080.36 L2514.9 4076.52 L2519.11 4076.52 Q2522.56 4076.52 2524.39 4075.15 Q2526.22 4073.76 2526.22 4071.17 Q2526.22 4068.51 2524.32 4067.1 Q2522.44 4065.66 2518.93 4065.66 Q2517 4065.66 2514.81 4066.08 Q2512.61 4066.49 2509.97 4067.37 L2509.97 4063.21 Q2512.63 4062.47 2514.94 4062.1 Q2517.28 4061.73 2519.34 4061.73 Q2524.67 4061.73 2527.77 4064.16 Q2530.87 4066.56 2530.87 4070.68 Q2530.87 4073.55 2529.23 4075.55 Q2527.58 4077.51 2524.55 4078.28 Z" fill="#000000" fill-rule="nonzero" fill-opacity="1" /><path clip-path="url(#clip380)" d="M3421.13 4080.08 L3450.81 4080.08 L3450.81 4084.02 L3421.13 4084.02 L3421.13 4080.08 Z" fill="#000000" fill-rule="nonzero" fill-opacity="1" /><path clip-path="url(#clip380)" d="M3464.93 4092.98 L3481.25 4092.98 L3481.25 4096.91 L3459.3 4096.91 L3459.3 4092.98 Q3461.96 4090.22 3466.55 4085.59 Q3471.15 4080.94 3472.33 4079.6 Q3474.58 4077.07 3475.46 4075.34 Q3476.36 4073.58 3476.36 4071.89 Q3476.36 4069.13 3474.42 4067.4 Q3472.5 4065.66 3469.39 4065.66 Q3467.2 4065.66 3464.74 4066.42 Q3462.31 4067.19 3459.53 4068.74 L3459.53 4064.02 Q3462.36 4062.88 3464.81 4062.3 Q3467.27 4061.73 3469.3 4061.73 Q3474.67 4061.73 3477.87 4064.41 Q3481.06 4067.1 3481.06 4071.59 Q3481.06 4073.72 3480.25 4075.64 Q3479.46 4077.54 3477.36 4080.13 Q3476.78 4080.8 3473.68 4084.02 Q3470.58 4087.21 3464.93 4092.98 Z" fill="#000000" fill-rule="nonzero" fill-opacity="1" /><path clip-path="url(#clip380)" d="M4370.99 4080.08 L4400.66 4080.08 L4400.66 4084.02 L4370.99 4084.02 L4370.99 4080.08 Z" fill="#000000" fill-rule="nonzero" fill-opacity="1" /><path clip-path="url(#clip380)" d="M4411.57 4092.98 L4419.2 4092.98 L4419.2 4066.61 L4410.89 4068.28 L4410.89 4064.02 L4419.16 4062.35 L4423.83 4062.35 L4423.83 4092.98 L4431.47 4092.98 L4431.47 4096.91 L4411.57 4096.91 L4411.57 4092.98 Z" fill="#000000" fill-rule="nonzero" fill-opacity="1" /><path clip-path="url(#clip380)" d="M5351.27 4065.43 Q5347.66 4065.43 5345.83 4068.99 Q5344.03 4072.54 5344.03 4079.67 Q5344.03 4086.77 5345.83 4090.34 Q5347.66 4093.88 5351.27 4093.88 Q5354.91 4093.88 5356.71 4090.34 Q5358.54 4086.77 5358.54 4079.67 Q5358.54 4072.54 5356.71 4068.99 Q5354.91 4065.43 5351.27 4065.43 M5351.27 4061.73 Q5357.08 4061.73 5360.14 4066.33 Q5363.22 4070.92 5363.22 4079.67 Q5363.22 4088.39 5360.14 4093 Q5357.08 4097.58 5351.27 4097.58 Q5345.46 4097.58 5342.38 4093 Q5339.33 4088.39 5339.33 4079.67 Q5339.33 4070.92 5342.38 4066.33 Q5345.46 4061.73 5351.27 4061.73 Z" fill="#000000" fill-rule="nonzero" fill-opacity="1" /><path clip-path="url(#clip380)" d="M6291.69 4092.98 L6299.33 4092.98 L6299.33 4066.61 L6291.02 4068.28 L6291.02 4064.02 L6299.29 4062.35 L6303.96 4062.35 L6303.96 4092.98 L6311.6 4092.98 L6311.6 4096.91 L6291.69 4096.91 L6291.69 4092.98 Z" fill="#000000" fill-rule="nonzero" fill-opacity="1" /><path clip-path="url(#clip380)" d="M3403.97 4160.4 Q3403.97 4162.21 3402.84 4163.24 Q3401.72 4164.24 3400.43 4164.24 Q3399.21 4164.24 3398.56 4163.53 Q3397.92 4162.82 3397.92 4161.92 Q3397.92 4160.69 3398.82 4159.63 Q3399.72 4158.57 3401.07 4158.34 Q3399.75 4157.51 3397.79 4157.51 Q3396.5 4157.51 3395.37 4158.18 Q3394.28 4158.86 3393.6 4159.73 Q3392.96 4160.6 3392.38 4161.85 Q3391.83 4163.08 3391.6 4163.82 Q3391.41 4164.53 3391.25 4165.3 L3389 4174.32 Q3387.9 4178.6 3387.9 4180.11 Q3387.9 4181.98 3388.8 4183.24 Q3389.7 4184.46 3391.51 4184.46 Q3392.22 4184.46 3393.02 4184.27 Q3393.83 4184.04 3394.86 4183.46 Q3395.92 4182.85 3396.85 4181.95 Q3397.82 4181.02 3398.75 4179.44 Q3399.69 4177.86 3400.3 4175.83 Q3400.49 4175.12 3401.14 4175.12 Q3401.94 4175.12 3401.94 4175.77 Q3401.94 4176.31 3401.49 4177.47 Q3401.07 4178.6 3400.14 4180.08 Q3399.24 4181.53 3398.05 4182.85 Q3396.85 4184.14 3395.08 4185.04 Q3393.31 4185.94 3391.38 4185.94 Q3388.61 4185.94 3386.77 4184.46 Q3384.94 4182.98 3384.26 4180.92 Q3384.1 4181.21 3383.88 4181.6 Q3383.65 4181.98 3382.97 4182.85 Q3382.33 4183.69 3381.59 4184.33 Q3380.85 4184.95 3379.69 4185.43 Q3378.56 4185.94 3377.34 4185.94 Q3375.79 4185.94 3374.41 4185.49 Q3373.05 4185.04 3372.09 4184.01 Q3371.12 4182.98 3371.12 4181.56 Q3371.12 4179.99 3372.18 4178.89 Q3373.28 4177.76 3374.76 4177.76 Q3375.7 4177.76 3376.44 4178.31 Q3377.21 4178.86 3377.21 4180.05 Q3377.21 4181.37 3376.31 4182.37 Q3375.41 4183.37 3374.12 4183.63 Q3375.44 4184.46 3377.4 4184.46 Q3379.53 4184.46 3381.2 4182.59 Q3382.88 4180.73 3383.68 4177.6 Q3385.68 4170.1 3386.45 4166.75 Q3387.22 4163.37 3387.22 4161.92 Q3387.22 4160.57 3386.87 4159.63 Q3386.52 4158.7 3385.9 4158.28 Q3385.32 4157.83 3384.78 4157.67 Q3384.26 4157.51 3383.68 4157.51 Q3382.72 4157.51 3381.62 4157.89 Q3380.56 4158.28 3379.27 4159.18 Q3378.01 4160.05 3376.82 4161.85 Q3375.63 4163.66 3374.83 4166.14 Q3374.66 4166.88 3373.96 4166.88 Q3373.18 4166.85 3373.18 4166.2 Q3373.18 4165.65 3373.6 4164.53 Q3374.05 4163.37 3374.95 4161.92 Q3375.89 4160.47 3377.08 4159.18 Q3378.3 4157.86 3380.08 4156.96 Q3381.88 4156.06 3383.81 4156.06 Q3384.68 4156.06 3385.52 4156.25 Q3386.39 4156.41 3387.42 4156.89 Q3388.48 4157.38 3389.41 4158.44 Q3390.35 4159.5 3390.93 4161.05 Q3391.32 4160.31 3391.83 4159.6 Q3392.38 4158.89 3393.22 4158.02 Q3394.08 4157.12 3395.28 4156.6 Q3396.5 4156.06 3397.85 4156.06 Q3399.17 4156.06 3400.46 4156.41 Q3401.75 4156.73 3402.84 4157.8 Q3403.97 4158.83 3403.97 4160.4 Z" fill="#000000" fill-rule="nonzero" fill-opacity="1" /><path clip-path="url(#clip380)" d="M3410.69 4177.84 L3410.69 4176.4 Q3416.24 4176.4 3419.1 4173.45 Q3419.89 4173.45 3420.02 4173.63 Q3420.16 4173.81 3420.16 4174.64 L3420.16 4200.55 Q3420.16 4201.92 3420.83 4202.35 Q3421.51 4202.78 3424.46 4202.78 L3425.93 4202.78 L3425.93 4204.2 Q3424.31 4204.06 3418.44 4204.06 Q3412.58 4204.06 3410.98 4204.2 L3410.98 4202.78 L3412.45 4202.78 Q3415.36 4202.78 3416.05 4202.37 Q3416.75 4201.94 3416.75 4200.55 L3416.75 4176.63 Q3414.34 4177.84 3410.69 4177.84 Z" fill="#000000" fill-rule="nonzero" fill-opacity="1" /><polyline clip-path="url(#clip380)" style="stroke:#000000; stroke-linecap:round; stroke-linejoin:round; stroke-width:4; stroke-opacity:1; fill:none" points="251.165,4000.91 251.165,47.2441 "/>
<polyline clip-path="url(#clip380)" style="stroke:#000000; stroke-linecap:round; stroke-linejoin:round; stroke-width:4; stroke-opacity:1; fill:none" points="251.165,3402.49 270.062,3402.49 "/>
<polyline clip-path="url(#clip380)" style="stroke:#000000; stroke-linecap:round; stroke-linejoin:round; stroke-width:4; stroke-opacity:1; fill:none" points="251.165,2797.6 270.062,2797.6 "/>
<polyline clip-path="url(#clip380)" style="stroke:#000000; stroke-linecap:round; stroke-linejoin:round; stroke-width:4; stroke-opacity:1; fill:none" points="251.165,2192.71 270.062,2192.71 "/>
<polyline clip-path="url(#clip380)" style="stroke:#000000; stroke-linecap:round; stroke-linejoin:round; stroke-width:4; stroke-opacity:1; fill:none" points="251.165,1587.83 270.062,1587.83 "/>
<polyline clip-path="url(#clip380)" style="stroke:#000000; stroke-linecap:round; stroke-linejoin:round; stroke-width:4; stroke-opacity:1; fill:none" points="251.165,982.943 270.062,982.943 "/>
<polyline clip-path="url(#clip380)" style="stroke:#000000; stroke-linecap:round; stroke-linejoin:round; stroke-width:4; stroke-opacity:1; fill:none" points="251.165,378.057 270.062,378.057 "/>
<path clip-path="url(#clip380)" d="M91.1002 3402.94 L120.776 3402.94 L120.776 3406.87 L91.1002 3406.87 L91.1002 3402.94 Z" fill="#000000" fill-rule="nonzero" fill-opacity="1" /><path clip-path="url(#clip380)" d="M145.035 3401.13 Q148.392 3401.85 150.267 3404.12 Q152.165 3406.39 152.165 3409.72 Q152.165 3414.84 148.646 3417.64 Q145.128 3420.44 138.646 3420.44 Q136.47 3420.44 134.155 3420 Q131.864 3419.58 129.41 3418.72 L129.41 3414.21 Q131.355 3415.34 133.669 3415.92 Q135.984 3416.5 138.507 3416.5 Q142.905 3416.5 145.197 3414.77 Q147.512 3413.03 147.512 3409.72 Q147.512 3406.66 145.359 3404.95 Q143.23 3403.22 139.41 3403.22 L135.382 3403.22 L135.382 3399.37 L139.595 3399.37 Q143.044 3399.37 144.873 3398.01 Q146.702 3396.62 146.702 3394.03 Q146.702 3391.36 144.804 3389.95 Q142.929 3388.52 139.41 3388.52 Q137.489 3388.52 135.29 3388.93 Q133.091 3389.35 130.452 3390.23 L130.452 3386.06 Q133.114 3385.32 135.429 3384.95 Q137.767 3384.58 139.827 3384.58 Q145.151 3384.58 148.253 3387.01 Q151.354 3389.42 151.354 3393.54 Q151.354 3396.41 149.711 3398.4 Q148.067 3400.37 145.035 3401.13 Z" fill="#000000" fill-rule="nonzero" fill-opacity="1" /><path clip-path="url(#clip380)" d="M92.0492 2798.05 L121.725 2798.05 L121.725 2801.99 L92.0492 2801.99 L92.0492 2798.05 Z" fill="#000000" fill-rule="nonzero" fill-opacity="1" /><path clip-path="url(#clip380)" d="M135.845 2810.95 L152.165 2810.95 L152.165 2814.88 L130.22 2814.88 L130.22 2810.95 Q132.882 2808.19 137.466 2803.56 Q142.072 2798.91 143.253 2797.57 Q145.498 2795.04 146.378 2793.31 Q147.28 2791.55 147.28 2789.86 Q147.28 2787.1 145.336 2785.37 Q143.415 2783.63 140.313 2783.63 Q138.114 2783.63 135.66 2784.39 Q133.23 2785.16 130.452 2786.71 L130.452 2781.99 Q133.276 2780.85 135.73 2780.27 Q138.183 2779.7 140.22 2779.7 Q145.591 2779.7 148.785 2782.38 Q151.979 2785.07 151.979 2789.56 Q151.979 2791.69 151.169 2793.61 Q150.382 2795.51 148.276 2798.1 Q147.697 2798.77 144.595 2801.99 Q141.493 2805.18 135.845 2810.95 Z" fill="#000000" fill-rule="nonzero" fill-opacity="1" /><path clip-path="url(#clip380)" d="M91.6789 2193.17 L121.355 2193.17 L121.355 2197.1 L91.6789 2197.1 L91.6789 2193.17 Z" fill="#000000" fill-rule="nonzero" fill-opacity="1" /><path clip-path="url(#clip380)" d="M132.257 2206.06 L139.896 2206.06 L139.896 2179.69 L131.586 2181.36 L131.586 2177.1 L139.85 2175.43 L144.526 2175.43 L144.526 2206.06 L152.165 2206.06 L152.165 2209.99 L132.257 2209.99 L132.257 2206.06 Z" fill="#000000" fill-rule="nonzero" fill-opacity="1" /><path clip-path="url(#clip380)" d="M140.22 1573.63 Q136.609 1573.63 134.78 1577.19 Q132.975 1580.73 132.975 1587.86 Q132.975 1594.97 134.78 1598.53 Q136.609 1602.08 140.22 1602.08 Q143.855 1602.08 145.66 1598.53 Q147.489 1594.97 147.489 1587.86 Q147.489 1580.73 145.66 1577.19 Q143.855 1573.63 140.22 1573.63 M140.22 1569.92 Q146.03 1569.92 149.086 1574.53 Q152.165 1579.11 152.165 1587.86 Q152.165 1596.59 149.086 1601.2 Q146.03 1605.78 140.22 1605.78 Q134.41 1605.78 131.331 1601.2 Q128.276 1596.59 128.276 1587.86 Q128.276 1579.11 131.331 1574.53 Q134.41 1569.92 140.22 1569.92 Z" fill="#000000" fill-rule="nonzero" fill-opacity="1" /><path clip-path="url(#clip380)" d="M132.257 996.288 L139.896 996.288 L139.896 969.922 L131.586 971.589 L131.586 967.33 L139.85 965.663 L144.526 965.663 L144.526 996.288 L152.165 996.288 L152.165 1000.22 L132.257 1000.22 L132.257 996.288 Z" fill="#000000" fill-rule="nonzero" fill-opacity="1" /><path clip-path="url(#clip380)" d="M135.845 391.402 L152.165 391.402 L152.165 395.337 L130.22 395.337 L130.22 391.402 Q132.882 388.648 137.466 384.018 Q142.072 379.365 143.253 378.023 Q145.498 375.5 146.378 373.763 Q147.28 372.004 147.28 370.314 Q147.28 367.56 145.336 365.824 Q143.415 364.088 140.313 364.088 Q138.114 364.088 135.66 364.851 Q133.23 365.615 130.452 367.166 L130.452 362.444 Q133.276 361.31 135.73 360.731 Q138.183 360.152 140.22 360.152 Q145.591 360.152 148.785 362.838 Q151.979 365.523 151.979 370.013 Q151.979 372.143 151.169 374.064 Q150.382 375.962 148.276 378.555 Q147.697 379.226 144.595 382.444 Q141.493 385.638 135.845 391.402 Z" fill="#000000" fill-rule="nonzero" fill-opacity="1" /><path clip-path="url(#clip380)" d="M-56.2698 2023.66 Q-54.4663 2023.66 -53.4357 2024.79 Q-52.4373 2025.91 -52.4373 2027.2 Q-52.4373 2028.43 -53.1458 2029.07 Q-53.8544 2029.71 -54.7561 2029.71 Q-55.98 2029.71 -57.0427 2028.81 Q-58.1055 2027.91 -58.331 2026.56 Q-59.1683 2027.88 -59.1683 2029.84 Q-59.1683 2031.13 -58.492 2032.26 Q-57.8157 2033.35 -56.9461 2034.03 Q-56.0766 2034.67 -54.8205 2035.25 Q-53.5967 2035.8 -52.856 2036.03 Q-52.1475 2036.22 -51.3745 2036.38 L-42.3569 2038.64 Q-38.0735 2039.73 -36.5598 2039.73 Q-34.6919 2039.73 -33.4359 2038.83 Q-32.212 2037.93 -32.212 2036.12 Q-32.212 2035.41 -32.4053 2034.61 Q-32.6307 2033.8 -33.2104 2032.77 Q-33.8223 2031.71 -34.7241 2030.78 Q-35.6581 2029.81 -37.2361 2028.88 Q-38.8142 2027.94 -40.8432 2027.33 Q-41.5517 2027.14 -41.5517 2026.49 Q-41.5517 2025.69 -40.9076 2025.69 Q-40.3601 2025.69 -39.2007 2026.14 Q-38.0735 2026.56 -36.592 2027.49 Q-35.1428 2028.39 -33.8223 2029.59 Q-32.5341 2030.78 -31.6323 2032.55 Q-30.7306 2034.32 -30.7306 2036.25 Q-30.7306 2039.02 -32.212 2040.86 Q-33.6935 2042.69 -35.7547 2043.37 Q-35.4648 2043.53 -35.0784 2043.76 Q-34.6919 2043.98 -33.8223 2044.66 Q-32.985 2045.3 -32.3409 2046.04 Q-31.7289 2046.78 -31.2459 2047.94 Q-30.7306 2049.07 -30.7306 2050.29 Q-30.7306 2051.84 -31.1814 2053.22 Q-31.6323 2054.58 -32.6629 2055.54 Q-33.6935 2056.51 -35.1106 2056.51 Q-36.6886 2056.51 -37.7836 2055.45 Q-38.9108 2054.35 -38.9108 2052.87 Q-38.9108 2051.94 -38.3633 2051.2 Q-37.8159 2050.42 -36.6242 2050.42 Q-35.3038 2050.42 -34.3054 2051.32 Q-33.307 2052.23 -33.0494 2053.51 Q-32.212 2052.19 -32.212 2050.23 Q-32.212 2048.1 -34.08 2046.43 Q-35.9479 2044.75 -39.0719 2043.95 Q-46.5758 2041.95 -49.9253 2041.18 Q-53.3069 2040.41 -54.7561 2040.41 Q-56.1088 2040.41 -57.0427 2040.76 Q-57.9767 2041.12 -58.3954 2041.73 Q-58.8463 2042.31 -59.0073 2042.85 Q-59.1683 2043.37 -59.1683 2043.95 Q-59.1683 2044.92 -58.7819 2046.01 Q-58.3954 2047.07 -57.4936 2048.36 Q-56.6241 2049.62 -54.8205 2050.81 Q-53.017 2052 -50.5372 2052.81 Q-49.7964 2052.97 -49.7964 2053.68 Q-49.8286 2054.45 -50.4728 2054.45 Q-51.0203 2054.45 -52.1475 2054.03 Q-53.3069 2053.58 -54.7561 2052.68 Q-56.2054 2051.74 -57.4936 2050.55 Q-58.8141 2049.33 -59.7158 2047.56 Q-60.6176 2045.75 -60.6176 2043.82 Q-60.6176 2042.95 -60.4244 2042.11 Q-60.2633 2041.24 -59.7802 2040.21 Q-59.2972 2039.15 -58.2344 2038.22 Q-57.1716 2037.28 -55.6257 2036.7 Q-56.3664 2036.32 -57.075 2035.8 Q-57.7835 2035.25 -58.653 2034.42 Q-59.5548 2033.55 -60.0701 2032.36 Q-60.6176 2031.13 -60.6176 2029.78 Q-60.6176 2028.46 -60.2633 2027.17 Q-59.9413 2025.88 -58.8785 2024.79 Q-57.8479 2023.66 -56.2698 2023.66 Z" fill="#000000" fill-rule="nonzero" fill-opacity="1" /><path clip-path="url(#clip380)" d="M-12.4774 2016.94 Q-13.3115 2016.94 -13.5595 2016.87 Q-13.8075 2016.78 -14.1907 2016.42 L-24.0651 2007.56 Q-29.5207 2002.72 -34.2775 2002.72 Q-37.3661 2002.72 -39.5754 2004.34 Q-41.7847 2005.94 -41.7847 2008.89 Q-41.7847 2010.92 -40.5448 2012.64 Q-39.3049 2014.35 -37.0955 2015.14 Q-37.1406 2015 -37.1406 2014.53 Q-37.1406 2013.38 -36.4192 2012.75 Q-35.6978 2012.1 -34.7284 2012.1 Q-33.4885 2012.1 -32.8798 2012.91 Q-32.2937 2013.7 -32.2937 2014.49 Q-32.2937 2014.8 -32.3613 2015.23 Q-32.4289 2015.63 -33.0602 2016.29 Q-33.7139 2016.94 -34.8637 2016.94 Q-38.0875 2016.94 -40.6575 2014.51 Q-43.2275 2012.05 -43.2275 2008.31 Q-43.2275 2004.07 -40.7026 2001.3 Q-38.2002 1998.5 -34.2775 1998.5 Q-32.9023 1998.5 -31.6399 1998.93 Q-30.4 1999.34 -29.4306 1999.9 Q-28.4612 2000.44 -26.9056 2001.93 Q-25.3501 2003.42 -24.2454 2004.61 Q-23.1408 2005.81 -20.7962 2008.49 L-16.0394 2013.38 L-16.0394 2005.06 Q-16.0394 2001 -16.4001 2000.69 Q-17.0538 2000.24 -20.5031 1999.67 L-20.5031 1998.5 L-12.4774 1999.81 L-12.4774 2016.94 Z" fill="#000000" fill-rule="nonzero" fill-opacity="1" /><polyline clip-path="url(#clip382)" style="stroke:#009af9; stroke-linecap:round; stroke-linejoin:round; stroke-width:8; stroke-opacity:1; fill:none" points="6301.31,982.943 6310.48,1001.06 6318.99,1019.1 6326.86,1037.08 6334.09,1054.96 6340.68,1072.76 6346.66,1090.46 6352.03,1108.06 6356.79,1125.54 6360.96,1142.91 6364.55,1160.15 6367.57,1177.27 6370.02,1194.24 6371.92,1211.08 6373.28,1227.77 6374.11,1244.31 6374.41,1260.69 6374.2,1276.91 6373.49,1292.96 6372.28,1308.84 6370.6,1324.54 6368.44,1340.06 6365.82,1355.4 6362.76,1370.55 6359.25,1385.5 6355.31,1400.26 6350.95,1414.82 6346.19,1429.18 6341.03,1443.33 6335.48,1457.28 6329.55,1471.01 6323.25,1484.53 6316.6,1497.83 6309.6,1510.91 6302.27,1523.77 6294.61,1536.41 6286.64,1548.83 6278.36,1561.01 6269.78,1572.97 6260.92,1584.7 6251.79,1596.2 6242.39,1607.47 6232.74,1618.5 6222.84,1629.3 6212.7,1639.87 6202.34,1650.2 6191.77,1660.3 6180.98,1670.16 6170,1679.78 6158.83,1689.17 6147.49,1698.32 6135.97,1707.24 6124.3,1715.92 6112.47,1724.36 6100.5,1732.57 6088.39,1740.55 6076.16,1748.29 6063.82,1755.8 6051.36,1763.08 6038.81,1770.13 6026.16,1776.94 6013.43,1783.53 6000.62,1789.89 5987.75,1796.03 5974.82,1801.94 5961.83,1807.63 5948.8,1813.1 5935.73,1818.34 5922.63,1823.37 5909.51,1828.18 5896.37,1832.78 5883.22,1837.17 5870.07,1841.34 5856.92,1845.31 5843.78,1849.07 5830.66,1852.63 5817.56,1855.98 5804.49,1859.14 5791.45,1862.1 5778.45,1864.87 5765.5,1867.44 5752.6,1869.82 5739.76,1872.02 5726.98,1874.03 5714.27,1875.87 5701.62,1877.52 5689.06,1879 5676.58,1880.3 5664.18,1881.43 5651.88,1882.4 5639.67,1883.2 5627.56,1883.84 5615.55,1884.32 5603.65,1884.64 5591.86,1884.81 5580.18,1884.83 5568.62,1884.7 5557.18,1884.43 5545.87,1884.01 5534.68,1883.46 5523.63,1882.77 5512.71,1881.95 5501.92,1881 5491.28,1879.92 5480.77,1878.72 5470.41,1877.4 5460.2,1875.97 5450.13,1874.42 5440.21,1872.75 5430.45,1870.98 5420.84,1869.11 5411.39,1867.13 5402.09,1865.06 5392.96,1862.88 5383.98,1860.62 5375.16,1858.26 5366.51,1855.82 5358.03,1853.29 5349.7,1850.68 5341.54,1848 5333.55,1845.23 5325.73,1842.4 5318.07,1839.49 5310.58,1836.52 5303.26,1833.48 5296.11,1830.38 5289.13,1827.23 5282.31,1824.01 5275.67,1820.75 5269.19,1817.43 5262.88,1814.06 5256.75,1810.65 5250.78,1807.2 5244.97,1803.71 5239.34,1800.17 5233.87,1796.61 5228.57,1793.01 5223.43,1789.38 5218.46,1785.72 5213.65,1782.04 5209.01,1778.34 5204.53,1774.61 5200.21,1770.87 5196.05,1767.11 5192.05,1763.33 5188.21,1759.54 5184.53,1755.75 5181,1751.94 5177.62,1748.13 5174.4,1744.31 5171.33,1740.5 5168.41,1736.68 5165.64,1732.86 5163.01,1729.05 5160.53,1725.24 5158.19,1721.44 5156,1717.65 5153.94,1713.87 5152.03,1710.1 5150.25,1706.35 5148.6,1702.61 5147.09,1698.89 5145.71,1695.19 5144.45,1691.51 5143.33,1687.85 5142.33,1684.22 5141.45,1680.6 5140.69,1677.02 5140.05,1673.46 5139.53,1669.93 5139.13,1666.43 5138.84,1662.95 5138.66,1659.51 5138.59,1656.11 5138.62,1652.73 5138.76,1649.39 5139,1646.09 5139.35,1642.82 5139.79,1639.59 5140.32,1636.4 5140.95,1633.25 5141.68,1630.14 5142.49,1627.07 5143.39,1624.04 5144.37,1621.05 5145.44,1618.1 5146.59,1615.2 5147.82,1612.34 5149.12,1609.53 5150.5,1606.76 5151.95,1604.03 5153.46,1601.36 5155.05,1598.73 5156.7,1596.14 5158.42,1593.6 5160.2,1591.11 5162.03,1588.67 5163.93,1586.28 5165.87,1583.93 5167.88,1581.63 5169.93,1579.39 5172.03,1577.19 5174.18,1575.04 5176.37,1572.93 5178.61,1570.88 5180.89,1568.88 5183.21,1566.92 5185.56,1565.02 5187.95,1563.16 5190.38,1561.35 5192.84,1559.59 5195.32,1557.88 5197.84,1556.22 5200.38,1554.6 5202.94,1553.04 5205.53,1551.52 5208.14,1550.05 5210.77,1548.63 5213.42,1547.26 5216.08,1545.93 5218.75,1544.65 5221.44,1543.42 5224.14,1542.24 5226.85,1541.09 5229.56,1540 5232.29,1538.95 5235.01,1537.95 5237.74,1536.99 5240.48,1536.07 5243.21,1535.2 5245.94,1534.37 5248.67,1533.59 5251.4,1532.84 5254.12,1532.14 5256.84,1531.48 5259.55,1530.87 5262.25,1530.29 5264.94,1529.75 5267.62,1529.25 5270.29,1528.79 5272.95,1528.37 5275.59,1527.99 5278.22,1527.64 5280.84,1527.33 5283.43,1527.06 5286.01,1526.82 5288.57,1526.61 5291.11,1526.45 5293.63,1526.31 5296.13,1526.21 5298.61,1526.14 5301.06,1526.1 5303.49,1526.09 5305.9,1526.12 5308.28,1526.17 5310.63,1526.26 5312.96,1526.37 5315.26,1526.51 5317.53,1526.68 5319.77,1526.87 5321.99,1527.09 5324.17,1527.34 5326.33,1527.61 5328.46,1527.91 5330.55,1528.23 5332.61,1528.57 5334.64,1528.94 5336.64,1529.33 5338.61,1529.74 5340.54,1530.17 5342.45,1530.62 5344.31,1531.08 5346.15,1531.57 5347.95,1532.08 5349.72,1532.6 5351.45,1533.14 5353.15,1533.7 5354.81,1534.28 5356.44,1534.86 5358.04,1535.47 5359.6,1536.08 5361.12,1536.71 5362.61,1537.36 5364.07,1538.01 5365.49,1538.68 5366.87,1539.36 5368.22,1540.05 5369.53,1540.75 5370.81,1541.45 5372.06,1542.17 5373.27,1542.9 5374.44,1543.63 5375.58,1544.37 5376.69,1545.12 5377.76,1545.87 5378.79,1546.63 5379.79,1547.4 5380.76,1548.16 5381.7,1548.94 5382.6,1549.72 5383.46,1550.5 5384.3,1551.28 5385.1,1552.07 5385.87,1552.86 5386.6,1553.65 5387.31,1554.44 5387.98,1555.23 5388.62,1556.03 5389.23,1556.82 5389.81,1557.61 5390.36,1558.41 5390.87,1559.2 5391.36,1559.99 5391.82,1560.78 5392.25,1561.56 5392.65,1562.35 5393.02,1563.13 5393.37,1563.9 5393.68,1564.68 5393.97,1565.45 5394.24,1566.21 5394.47,1566.97 5394.68,1567.73 5394.87,1568.48 5395.03,1569.23 5395.16,1569.97 5395.27,1570.7 5395.36,1571.43 5395.42,1572.15 5395.46,1572.87 5395.48,1573.58 5395.47,1574.28 5395.45,1574.97 5395.4,1575.66 5395.33,1576.34 5395.24,1577.01 5395.13,1577.68 5395,1578.33 5394.85,1578.98 5394.68,1579.62 5394.5,1580.25 5394.3,1580.87 5394.07,1581.48 5393.84,1582.09 5393.58,1582.68 5393.31,1583.27 5393.03,1583.84 5392.73,1584.41 5392.41,1584.97 5392.08,1585.52 5391.74,1586.05 5391.39,1586.58 5391.02,1587.1 5390.64,1587.61 5390.24,1588.11 5389.84,1588.6 5389.42,1589.08 5389,1589.54 5388.56,1590 5388.12,1590.45 5387.66,1590.89 5387.2,1591.32 5386.72,1591.73 5386.24,1592.14 5385.75,1592.54 5385.26,1592.92 5384.76,1593.3 5384.25,1593.67 5383.73,1594.02 5383.21,1594.37 5382.68,1594.71 5382.15,1595.03 5381.61,1595.35 5381.07,1595.65 5380.52,1595.95 5379.97,1596.24 5379.42,1596.51 5378.87,1596.78 5378.31,1597.04 5377.75,1597.28 5377.18,1597.52 5376.62,1597.75 5376.05,1597.97 5375.49,1598.18 5374.92,1598.38 5374.35,1598.57 5373.78,1598.75 5373.21,1598.92 5372.64,1599.09 5372.08,1599.24 5371.51,1599.39 5370.95,1599.53 5370.38,1599.66 5369.82,1599.78 5369.26,1599.89 5368.7,1600 5368.15,1600.09 5367.6,1600.18 5367.05,1600.26 5366.5,1600.33 5365.96,1600.4 5365.42,1600.46 5364.88,1600.51 5364.35,1600.55 5363.82,1600.58 5363.3,1600.61 5362.78,1600.64 5362.26,1600.65 5361.75,1600.66 5361.25,1600.66 5360.75,1600.66 5360.25,1600.65 5359.76,1600.63 5359.28,1600.61 5358.8,1600.58 5358.33,1600.54 5357.86,1600.5 5357.4,1600.46 5356.94,1600.41 5356.5,1600.35 5356.05,1600.29 5355.62,1600.22 5355.19,1600.15 5354.76,1600.07 5354.35,1599.99 5353.94,1599.91 5353.54,1599.82 5353.14,1599.73 5352.75,1599.63 5352.37,1599.53 5351.99,1599.42 5351.62,1599.32 5351.26,1599.2 5350.91,1599.09 5350.56,1598.97 5350.23,1598.85 5349.89,1598.72 5349.57,1598.6 5349.25,1598.46 5348.94,1598.33 5348.64,1598.2 5348.34,1598.06 5348.05,1597.92 5347.77,1597.77 5347.5,1597.63 5347.23,1597.48 5346.97,1597.33 5346.72,1597.18 5346.48,1597.03 5346.24,1596.88 5346.01,1596.72 5345.79,1596.56 5345.57,1596.41 5345.36,1596.25 5345.16,1596.09 5344.97,1595.93 5344.78,1595.76 5344.6,1595.6 5344.42,1595.44 5344.26,1595.28 5344.1,1595.11 5343.94,1594.95 5343.79,1594.78 5343.65,1594.62 5343.52,1594.45 5343.39,1594.29 5343.27,1594.12 5343.16,1593.96 5343.05,1593.79 5342.95,1593.63 5342.85,1593.47 5342.76,1593.3 5342.68,1593.14 5342.6,1592.98 5342.53,1592.82 5342.46,1592.66 5342.4,1592.5 5342.35,1592.34 5342.3,1592.18 5342.25,1592.02 5342.21,1591.86 5342.18,1591.71 5342.15,1591.56 5342.13,1591.4 5342.11,1591.25 5342.1,1591.1 5342.09,1590.95 5342.08,1590.8 5342.08,1590.66 5342.09,1590.51 5342.1,1590.37 5342.11,1590.23 5342.13,1590.09 5342.15,1589.95 5342.18,1589.82 5342.21,1589.68 5342.24,1589.55 5342.28,1589.42 5342.32,1589.29 5342.37,1589.16 5342.42,1589.03 "/>
<polyline clip-path="url(#clip382)" style="stroke:#e26f46; stroke-linecap:round; stroke-linejoin:round; stroke-width:8; stroke-opacity:1; fill:none" points="6301.31,982.943 6291.48,964.768 6280.97,946.54 6269.78,928.267 6257.9,909.959 6245.32,891.623 6232.04,873.268 6218.04,854.903 6203.33,836.538 6187.88,818.181 6171.71,799.841 6154.79,781.53 6137.12,763.255 6118.7,745.028 6099.52,726.858 6079.57,708.756 6058.85,690.732 6037.36,672.797 6015.09,654.962 5992.03,637.237 5968.18,619.635 5943.54,602.166 5918.1,584.842 5891.86,567.674 5864.82,550.675 5836.97,533.856 5808.32,517.23 5778.85,500.809 5748.58,484.604 5717.49,468.63 5685.59,452.898 5652.88,437.421 5619.35,422.213 5585.01,407.286 5549.86,392.653 5513.89,378.329 5477.12,364.326 5439.55,350.658 5401.17,337.339 5361.98,324.382 5322.01,311.802 5281.24,299.612 5239.68,287.827 5197.33,276.459 5154.21,265.525 5110.32,255.037 5065.66,245.01 5020.25,235.459 4974.08,226.398 4927.18,217.841 4879.54,209.803 4831.17,202.299 4782.09,195.343 4732.31,188.949 4681.83,183.133 4630.68,177.909 4578.85,173.291 4526.37,169.295 4473.24,165.935 4419.48,163.225 4365.11,161.179 4310.13,159.813 4254.58,159.14 4198.45,159.175 4141.77,159.933 4084.56,161.426 4026.83,163.669 3968.6,166.677 3909.9,170.463 3850.73,175.042 3791.13,180.426 3731.12,186.631 3670.71,193.668 3609.93,201.55 3548.8,210.292 3487.35,219.907 3425.6,230.407 3363.57,241.805 3301.29,254.113 3238.79,267.344 3176.1,281.51 3113.24,296.622 3050.23,312.691 2987.12,329.73 2923.92,347.747 2860.67,366.754 2797.4,386.762 2734.15,407.78 2670.93,429.817 2607.79,452.884 2544.77,476.99 2481.88,502.143 2419.18,528.352 2356.69,555.626 2294.44,583.972 2232.49,613.398 2170.86,643.912 2109.59,675.518 2048.73,708.223 1988.3,742.032 1928.35,776.951 1868.92,812.986 1810.04,850.141 1751.77,888.42 1694.14,927.825 1637.19,968.361 1580.96,1010.03 1525.5,1052.83 1470.86,1096.77 1417.07,1141.84 1364.17,1188.05 1312.22,1235.39 1261.26,1283.87 1211.34,1333.48 1162.5,1384.22 1114.78,1436.08 1068.24,1489.08 1022.92,1543.19 978.868,1598.41 936.137,1654.75 894.775,1712.19 854.83,1770.73 816.35,1830.36 779.383,1891.07 743.978,1952.85 710.185,2015.69 678.055,2079.59 647.636,2144.53 618.981,2210.51 592.137,2277.5 567.155,2345.5 544.086,2414.49 522.978,2484.45 503.882,2555.38 486.848,2627.25 471.925,2700.05 459.163,2773.76 448.612,2848.36 440.322,2923.83 434.342,3000.15 430.722,3077.3 429.512,3155.25 430.761,3233.99 434.519,3313.49 440.835,3393.72 449.76,3474.65 461.343,3556.27 475.632,3638.55 492.677,3721.45 512.52,3804.95 535.207,3889.01 "/>
<circle clip-path="url(#clip382)" cx="6301.31" cy="982.943" r="14.4" fill="#ff0000" fill-rule="evenodd" fill-opacity="1" stroke="#000000" stroke-opacity="1" stroke-width="8.4"/>
<path clip-path="url(#clip380)" d="M5363.33 3869.12 L6342.7 3869.12 L6342.7 3661.76 L5363.33 3661.76  Z" fill="#ffffff" fill-rule="evenodd" fill-opacity="1"/>
<polyline clip-path="url(#clip380)" style="stroke:#000000; stroke-linecap:round; stroke-linejoin:round; stroke-width:4; stroke-opacity:1; fill:none" points="5363.33,3869.12 6342.7,3869.12 6342.7,3661.76 5363.33,3661.76 5363.33,3869.12 "/>
<polyline clip-path="url(#clip380)" style="stroke:#009af9; stroke-linecap:round; stroke-linejoin:round; stroke-width:8; stroke-opacity:1; fill:none" points="5433.35,3713.6 5853.46,3713.6 "/>
<path clip-path="url(#clip380)" d="M5923.47 3696.32 L5928.15 3696.32 L5928.15 3710.49 L5945.14 3710.49 L5945.14 3696.32 L5949.82 3696.32 L5949.82 3730.88 L5945.14 3730.88 L5945.14 3714.42 L5928.15 3714.42 L5928.15 3730.88 L5923.47 3730.88 L5923.47 3696.32 Z" fill="#000000" fill-rule="nonzero" fill-opacity="1" /><path clip-path="url(#clip380)" d="M5970.72 3717.85 Q5965.56 3717.85 5963.57 3719.03 Q5961.58 3720.21 5961.58 3723.06 Q5961.58 3725.33 5963.06 3726.67 Q5964.56 3727.99 5967.13 3727.99 Q5970.67 3727.99 5972.8 3725.49 Q5974.96 3722.97 5974.96 3718.8 L5974.96 3717.85 L5970.72 3717.85 M5979.21 3716.09 L5979.21 3730.88 L5974.96 3730.88 L5974.96 3726.95 Q5973.5 3729.31 5971.32 3730.44 Q5969.15 3731.55 5966 3731.55 Q5962.02 3731.55 5959.65 3729.33 Q5957.32 3727.09 5957.32 3723.34 Q5957.32 3718.96 5960.23 3716.74 Q5963.17 3714.52 5968.98 3714.52 L5974.96 3714.52 L5974.96 3714.1 Q5974.96 3711.16 5973.01 3709.56 Q5971.09 3707.94 5967.59 3707.94 Q5965.37 3707.94 5963.27 3708.47 Q5961.16 3709.01 5959.21 3710.07 L5959.21 3706.14 Q5961.55 3705.23 5963.75 3704.79 Q5965.95 3704.33 5968.03 3704.33 Q5973.66 3704.33 5976.44 3707.25 Q5979.21 3710.16 5979.21 3716.09 Z" fill="#000000" fill-rule="nonzero" fill-opacity="1" /><path clip-path="url(#clip380)" d="M6006.64 3705.95 L6006.64 3709.93 Q6004.84 3708.94 6003.01 3708.45 Q6001.21 3707.94 5999.35 3707.94 Q5995.21 3707.94 5992.92 3710.58 Q5990.63 3713.2 5990.63 3717.94 Q5990.63 3722.69 5992.92 3725.33 Q5995.21 3727.94 5999.35 3727.94 Q6001.21 3727.94 6003.01 3727.46 Q6004.84 3726.95 6006.64 3725.95 L6006.64 3729.89 Q6004.86 3730.72 6002.94 3731.14 Q6001.04 3731.55 5998.89 3731.55 Q5993.03 3731.55 5989.58 3727.87 Q5986.14 3724.19 5986.14 3717.94 Q5986.14 3711.6 5989.61 3707.97 Q5993.1 3704.33 5999.17 3704.33 Q6001.14 3704.33 6003.01 3704.75 Q6004.89 3705.14 6006.64 3705.95 Z" fill="#000000" fill-rule="nonzero" fill-opacity="1" /><path clip-path="url(#clip380)" d="M6014.05 3704.96 L6018.31 3704.96 L6018.31 3730.88 L6014.05 3730.88 L6014.05 3704.96 M6014.05 3694.86 L6018.31 3694.86 L6018.31 3700.26 L6014.05 3700.26 L6014.05 3694.86 Z" fill="#000000" fill-rule="nonzero" fill-opacity="1" /><path clip-path="url(#clip380)" d="M6039.01 3717.85 Q6033.84 3717.85 6031.85 3719.03 Q6029.86 3720.21 6029.86 3723.06 Q6029.86 3725.33 6031.34 3726.67 Q6032.85 3727.99 6035.42 3727.99 Q6038.96 3727.99 6041.09 3725.49 Q6043.24 3722.97 6043.24 3718.8 L6043.24 3717.85 L6039.01 3717.85 M6047.5 3716.09 L6047.5 3730.88 L6043.24 3730.88 L6043.24 3726.95 Q6041.78 3729.31 6039.61 3730.44 Q6037.43 3731.55 6034.28 3731.55 Q6030.3 3731.55 6027.94 3729.33 Q6025.6 3727.09 6025.6 3723.34 Q6025.6 3718.96 6028.52 3716.74 Q6031.46 3714.52 6037.27 3714.52 L6043.24 3714.52 L6043.24 3714.1 Q6043.24 3711.16 6041.3 3709.56 Q6039.38 3707.94 6035.88 3707.94 Q6033.66 3707.94 6031.55 3708.47 Q6029.45 3709.01 6027.5 3710.07 L6027.5 3706.14 Q6029.84 3705.23 6032.04 3704.79 Q6034.24 3704.33 6036.32 3704.33 Q6041.95 3704.33 6044.72 3707.25 Q6047.5 3710.16 6047.5 3716.09 Z" fill="#000000" fill-rule="nonzero" fill-opacity="1" /><path clip-path="url(#clip380)" d="M6083.13 3717.85 Q6077.96 3717.85 6075.97 3719.03 Q6073.98 3720.21 6073.98 3723.06 Q6073.98 3725.33 6075.46 3726.67 Q6076.97 3727.99 6079.54 3727.99 Q6083.08 3727.99 6085.21 3725.49 Q6087.36 3722.97 6087.36 3718.8 L6087.36 3717.85 L6083.13 3717.85 M6091.62 3716.09 L6091.62 3730.88 L6087.36 3730.88 L6087.36 3726.95 Q6085.9 3729.31 6083.73 3730.44 Q6081.55 3731.55 6078.4 3731.55 Q6074.42 3731.55 6072.06 3729.33 Q6069.72 3727.09 6069.72 3723.34 Q6069.72 3718.96 6072.64 3716.74 Q6075.58 3714.52 6081.39 3714.52 L6087.36 3714.52 L6087.36 3714.1 Q6087.36 3711.16 6085.42 3709.56 Q6083.5 3707.94 6080 3707.94 Q6077.78 3707.94 6075.67 3708.47 Q6073.57 3709.01 6071.62 3710.07 L6071.62 3706.14 Q6073.96 3705.23 6076.16 3704.79 Q6078.36 3704.33 6080.44 3704.33 Q6086.07 3704.33 6088.84 3707.25 Q6091.62 3710.16 6091.62 3716.09 Z" fill="#000000" fill-rule="nonzero" fill-opacity="1" /><path clip-path="url(#clip380)" d="M6117.45 3708.89 L6117.45 3694.86 L6121.71 3694.86 L6121.71 3730.88 L6117.45 3730.88 L6117.45 3726.99 Q6116.11 3729.31 6114.05 3730.44 Q6112.01 3731.55 6109.14 3731.55 Q6104.45 3731.55 6101.48 3727.8 Q6098.54 3724.05 6098.54 3717.94 Q6098.54 3711.83 6101.48 3708.08 Q6104.45 3704.33 6109.14 3704.33 Q6112.01 3704.33 6114.05 3705.47 Q6116.11 3706.58 6117.45 3708.89 M6102.94 3717.94 Q6102.94 3722.64 6104.86 3725.33 Q6106.81 3727.99 6110.19 3727.99 Q6113.57 3727.99 6115.51 3725.33 Q6117.45 3722.64 6117.45 3717.94 Q6117.45 3713.24 6115.51 3710.58 Q6113.57 3707.9 6110.19 3707.9 Q6106.81 3707.9 6104.86 3710.58 Q6102.94 3713.24 6102.94 3717.94 Z" fill="#000000" fill-rule="nonzero" fill-opacity="1" /><path clip-path="url(#clip380)" d="M6152.66 3716.85 L6152.66 3718.94 L6133.08 3718.94 Q6133.36 3723.34 6135.72 3725.65 Q6138.1 3727.94 6142.34 3727.94 Q6144.79 3727.94 6147.08 3727.34 Q6149.4 3726.74 6151.67 3725.53 L6151.67 3729.56 Q6149.38 3730.53 6146.97 3731.04 Q6144.56 3731.55 6142.08 3731.55 Q6135.88 3731.55 6132.25 3727.94 Q6128.64 3724.33 6128.64 3718.17 Q6128.64 3711.81 6132.06 3708.08 Q6135.51 3704.33 6141.34 3704.33 Q6146.57 3704.33 6149.61 3707.71 Q6152.66 3711.07 6152.66 3716.85 M6148.4 3715.6 Q6148.36 3712.11 6146.44 3710.03 Q6144.54 3707.94 6141.39 3707.94 Q6137.82 3707.94 6135.67 3709.96 Q6133.54 3711.97 6133.22 3715.63 L6148.4 3715.6 Z" fill="#000000" fill-rule="nonzero" fill-opacity="1" /><path clip-path="url(#clip380)" d="M6159.65 3694.86 L6163.91 3694.86 L6163.91 3730.88 L6159.65 3730.88 L6159.65 3694.86 Z" fill="#000000" fill-rule="nonzero" fill-opacity="1" /><path clip-path="url(#clip380)" d="M6184.61 3717.85 Q6179.44 3717.85 6177.45 3719.03 Q6175.46 3720.21 6175.46 3723.06 Q6175.46 3725.33 6176.94 3726.67 Q6178.45 3727.99 6181.02 3727.99 Q6184.56 3727.99 6186.69 3725.49 Q6188.84 3722.97 6188.84 3718.8 L6188.84 3717.85 L6184.61 3717.85 M6193.1 3716.09 L6193.1 3730.88 L6188.84 3730.88 L6188.84 3726.95 Q6187.38 3729.31 6185.21 3730.44 Q6183.03 3731.55 6179.88 3731.55 Q6175.9 3731.55 6173.54 3729.33 Q6171.2 3727.09 6171.2 3723.34 Q6171.2 3718.96 6174.12 3716.74 Q6177.06 3714.52 6182.87 3714.52 L6188.84 3714.52 L6188.84 3714.1 Q6188.84 3711.16 6186.9 3709.56 Q6184.98 3707.94 6181.48 3707.94 Q6179.26 3707.94 6177.15 3708.47 Q6175.05 3709.01 6173.1 3710.07 L6173.1 3706.14 Q6175.44 3705.23 6177.64 3704.79 Q6179.84 3704.33 6181.92 3704.33 Q6187.55 3704.33 6190.32 3707.25 Q6193.1 3710.16 6193.1 3716.09 Z" fill="#000000" fill-rule="nonzero" fill-opacity="1" /><path clip-path="url(#clip380)" d="M6223.43 3715.23 L6223.43 3730.88 L6219.17 3730.88 L6219.17 3715.37 Q6219.17 3711.69 6217.73 3709.86 Q6216.3 3708.03 6213.43 3708.03 Q6209.98 3708.03 6207.99 3710.23 Q6206 3712.43 6206 3716.23 L6206 3730.88 L6201.71 3730.88 L6201.71 3704.96 L6206 3704.96 L6206 3708.98 Q6207.52 3706.65 6209.58 3705.49 Q6211.67 3704.33 6214.38 3704.33 Q6218.84 3704.33 6221.13 3707.11 Q6223.43 3709.86 6223.43 3715.23 Z" fill="#000000" fill-rule="nonzero" fill-opacity="1" /><path clip-path="url(#clip380)" d="M6236.13 3697.6 L6236.13 3704.96 L6244.91 3704.96 L6244.91 3708.27 L6236.13 3708.27 L6236.13 3722.34 Q6236.13 3725.51 6236.99 3726.41 Q6237.87 3727.32 6240.53 3727.32 L6244.91 3727.32 L6244.91 3730.88 L6240.53 3730.88 Q6235.6 3730.88 6233.73 3729.05 Q6231.85 3727.2 6231.85 3722.34 L6231.85 3708.27 L6228.73 3708.27 L6228.73 3704.96 L6231.85 3704.96 L6231.85 3697.6 L6236.13 3697.6 Z" fill="#000000" fill-rule="nonzero" fill-opacity="1" /><path clip-path="url(#clip380)" d="M6272.69 3716.85 L6272.69 3718.94 L6253.1 3718.94 Q6253.38 3723.34 6255.74 3725.65 Q6258.13 3727.94 6262.36 3727.94 Q6264.81 3727.94 6267.11 3727.34 Q6269.42 3726.74 6271.69 3725.53 L6271.69 3729.56 Q6269.4 3730.53 6266.99 3731.04 Q6264.58 3731.55 6262.11 3731.55 Q6255.9 3731.55 6252.27 3727.94 Q6248.66 3724.33 6248.66 3718.17 Q6248.66 3711.81 6252.08 3708.08 Q6255.53 3704.33 6261.37 3704.33 Q6266.6 3704.33 6269.63 3707.71 Q6272.69 3711.07 6272.69 3716.85 M6268.43 3715.6 Q6268.38 3712.11 6266.46 3710.03 Q6264.56 3707.94 6261.41 3707.94 Q6257.85 3707.94 6255.69 3709.96 Q6253.56 3711.97 6253.24 3715.63 L6268.43 3715.6 Z" fill="#000000" fill-rule="nonzero" fill-opacity="1" /><polyline clip-path="url(#clip380)" style="stroke:#e26f46; stroke-linecap:round; stroke-linejoin:round; stroke-width:8; stroke-opacity:1; fill:none" points="5433.35,3765.44 5853.46,3765.44 "/>
<path clip-path="url(#clip380)" d="M5923.47 3748.16 L5928.15 3748.16 L5928.15 3762.33 L5945.14 3762.33 L5945.14 3748.16 L5949.82 3748.16 L5949.82 3782.72 L5945.14 3782.72 L5945.14 3766.26 L5928.15 3766.26 L5928.15 3782.72 L5923.47 3782.72 L5923.47 3748.16 Z" fill="#000000" fill-rule="nonzero" fill-opacity="1" /><path clip-path="url(#clip380)" d="M5970.72 3769.69 Q5965.56 3769.69 5963.57 3770.87 Q5961.58 3772.05 5961.58 3774.9 Q5961.58 3777.17 5963.06 3778.51 Q5964.56 3779.83 5967.13 3779.83 Q5970.67 3779.83 5972.8 3777.33 Q5974.96 3774.81 5974.96 3770.64 L5974.96 3769.69 L5970.72 3769.69 M5979.21 3767.93 L5979.21 3782.72 L5974.96 3782.72 L5974.96 3778.79 Q5973.5 3781.15 5971.32 3782.28 Q5969.15 3783.39 5966 3783.39 Q5962.02 3783.39 5959.65 3781.17 Q5957.32 3778.93 5957.32 3775.18 Q5957.32 3770.8 5960.23 3768.58 Q5963.17 3766.36 5968.98 3766.36 L5974.96 3766.36 L5974.96 3765.94 Q5974.96 3763 5973.01 3761.4 Q5971.09 3759.78 5967.59 3759.78 Q5965.37 3759.78 5963.27 3760.31 Q5961.16 3760.85 5959.21 3761.91 L5959.21 3757.98 Q5961.55 3757.07 5963.75 3756.63 Q5965.95 3756.17 5968.03 3756.17 Q5973.66 3756.17 5976.44 3759.09 Q5979.21 3762 5979.21 3767.93 Z" fill="#000000" fill-rule="nonzero" fill-opacity="1" /><path clip-path="url(#clip380)" d="M6006.64 3757.79 L6006.64 3761.77 Q6004.84 3760.78 6003.01 3760.29 Q6001.21 3759.78 5999.35 3759.78 Q5995.21 3759.78 5992.92 3762.42 Q5990.63 3765.04 5990.63 3769.78 Q5990.63 3774.53 5992.92 3777.17 Q5995.21 3779.78 5999.35 3779.78 Q6001.21 3779.78 6003.01 3779.3 Q6004.84 3778.79 6006.64 3777.79 L6006.64 3781.73 Q6004.86 3782.56 6002.94 3782.98 Q6001.04 3783.39 5998.89 3783.39 Q5993.03 3783.39 5989.58 3779.71 Q5986.14 3776.03 5986.14 3769.78 Q5986.14 3763.44 5989.61 3759.81 Q5993.1 3756.17 5999.17 3756.17 Q6001.14 3756.17 6003.01 3756.59 Q6004.89 3756.98 6006.64 3757.79 Z" fill="#000000" fill-rule="nonzero" fill-opacity="1" /><path clip-path="url(#clip380)" d="M6014.05 3756.8 L6018.31 3756.8 L6018.31 3782.72 L6014.05 3782.72 L6014.05 3756.8 M6014.05 3746.7 L6018.31 3746.7 L6018.31 3752.1 L6014.05 3752.1 L6014.05 3746.7 Z" fill="#000000" fill-rule="nonzero" fill-opacity="1" /><path clip-path="url(#clip380)" d="M6039.01 3769.69 Q6033.84 3769.69 6031.85 3770.87 Q6029.86 3772.05 6029.86 3774.9 Q6029.86 3777.17 6031.34 3778.51 Q6032.85 3779.83 6035.42 3779.83 Q6038.96 3779.83 6041.09 3777.33 Q6043.24 3774.81 6043.24 3770.64 L6043.24 3769.69 L6039.01 3769.69 M6047.5 3767.93 L6047.5 3782.72 L6043.24 3782.72 L6043.24 3778.79 Q6041.78 3781.15 6039.61 3782.28 Q6037.43 3783.39 6034.28 3783.39 Q6030.3 3783.39 6027.94 3781.17 Q6025.6 3778.93 6025.6 3775.18 Q6025.6 3770.8 6028.52 3768.58 Q6031.46 3766.36 6037.27 3766.36 L6043.24 3766.36 L6043.24 3765.94 Q6043.24 3763 6041.3 3761.4 Q6039.38 3759.78 6035.88 3759.78 Q6033.66 3759.78 6031.55 3760.31 Q6029.45 3760.85 6027.5 3761.91 L6027.5 3757.98 Q6029.84 3757.07 6032.04 3756.63 Q6034.24 3756.17 6036.32 3756.17 Q6041.95 3756.17 6044.72 3759.09 Q6047.5 3762 6047.5 3767.93 Z" fill="#000000" fill-rule="nonzero" fill-opacity="1" /><path clip-path="url(#clip380)" d="M6083.13 3769.69 Q6077.96 3769.69 6075.97 3770.87 Q6073.98 3772.05 6073.98 3774.9 Q6073.98 3777.17 6075.46 3778.51 Q6076.97 3779.83 6079.54 3779.83 Q6083.08 3779.83 6085.21 3777.33 Q6087.36 3774.81 6087.36 3770.64 L6087.36 3769.69 L6083.13 3769.69 M6091.62 3767.93 L6091.62 3782.72 L6087.36 3782.72 L6087.36 3778.79 Q6085.9 3781.15 6083.73 3782.28 Q6081.55 3783.39 6078.4 3783.39 Q6074.42 3783.39 6072.06 3781.17 Q6069.72 3778.93 6069.72 3775.18 Q6069.72 3770.8 6072.64 3768.58 Q6075.58 3766.36 6081.39 3766.36 L6087.36 3766.36 L6087.36 3765.94 Q6087.36 3763 6085.42 3761.4 Q6083.5 3759.78 6080 3759.78 Q6077.78 3759.78 6075.67 3760.31 Q6073.57 3760.85 6071.62 3761.91 L6071.62 3757.98 Q6073.96 3757.07 6076.16 3756.63 Q6078.36 3756.17 6080.44 3756.17 Q6086.07 3756.17 6088.84 3759.09 Q6091.62 3762 6091.62 3767.93 Z" fill="#000000" fill-rule="nonzero" fill-opacity="1" /><path clip-path="url(#clip380)" d="M6104.61 3749.44 L6104.61 3756.8 L6113.38 3756.8 L6113.38 3760.11 L6104.61 3760.11 L6104.61 3774.18 Q6104.61 3777.35 6105.46 3778.25 Q6106.34 3779.16 6109.01 3779.16 L6113.38 3779.16 L6113.38 3782.72 L6109.01 3782.72 Q6104.07 3782.72 6102.2 3780.89 Q6100.32 3779.04 6100.32 3774.18 L6100.32 3760.11 L6097.2 3760.11 L6097.2 3756.8 L6100.32 3756.8 L6100.32 3749.44 L6104.61 3749.44 Z" fill="#000000" fill-rule="nonzero" fill-opacity="1" /><path clip-path="url(#clip380)" d="M6134.01 3760.78 Q6133.29 3760.36 6132.43 3760.18 Q6131.6 3759.97 6130.58 3759.97 Q6126.97 3759.97 6125.02 3762.33 Q6123.1 3764.67 6123.1 3769.06 L6123.1 3782.72 L6118.82 3782.72 L6118.82 3756.8 L6123.1 3756.8 L6123.1 3760.82 Q6124.45 3758.46 6126.6 3757.33 Q6128.75 3756.17 6131.83 3756.17 Q6132.27 3756.17 6132.8 3756.24 Q6133.33 3756.29 6133.98 3756.4 L6134.01 3760.78 Z" fill="#000000" fill-rule="nonzero" fill-opacity="1" /><path clip-path="url(#clip380)" d="M6150.26 3769.69 Q6145.09 3769.69 6143.1 3770.87 Q6141.11 3772.05 6141.11 3774.9 Q6141.11 3777.17 6142.59 3778.51 Q6144.1 3779.83 6146.67 3779.83 Q6150.21 3779.83 6152.34 3777.33 Q6154.49 3774.81 6154.49 3770.64 L6154.49 3769.69 L6150.26 3769.69 M6158.75 3767.93 L6158.75 3782.72 L6154.49 3782.72 L6154.49 3778.79 Q6153.03 3781.15 6150.86 3782.28 Q6148.68 3783.39 6145.53 3783.39 Q6141.55 3783.39 6139.19 3781.17 Q6136.85 3778.93 6136.85 3775.18 Q6136.85 3770.8 6139.77 3768.58 Q6142.71 3766.36 6148.52 3766.36 L6154.49 3766.36 L6154.49 3765.94 Q6154.49 3763 6152.55 3761.4 Q6150.63 3759.78 6147.13 3759.78 Q6144.91 3759.78 6142.8 3760.31 Q6140.7 3760.85 6138.75 3761.91 L6138.75 3757.98 Q6141.09 3757.07 6143.29 3756.63 Q6145.49 3756.17 6147.57 3756.17 Q6153.2 3756.17 6155.97 3759.09 Q6158.75 3762 6158.75 3767.93 M6150.97 3744.81 L6155.58 3744.81 L6148.03 3753.51 L6144.49 3753.51 L6150.97 3744.81 Z" fill="#000000" fill-rule="nonzero" fill-opacity="1" /><path clip-path="url(#clip380)" d="M6184.05 3757.56 L6184.05 3761.59 Q6182.25 3760.66 6180.3 3760.2 Q6178.36 3759.74 6176.27 3759.74 Q6173.1 3759.74 6171.51 3760.71 Q6169.93 3761.68 6169.93 3763.62 Q6169.93 3765.11 6171.07 3765.96 Q6172.2 3766.8 6175.63 3767.56 L6177.08 3767.88 Q6181.62 3768.86 6183.52 3770.64 Q6185.44 3772.4 6185.44 3775.57 Q6185.44 3779.18 6182.57 3781.29 Q6179.72 3783.39 6174.72 3783.39 Q6172.64 3783.39 6170.37 3782.98 Q6168.13 3782.58 6165.63 3781.77 L6165.63 3777.37 Q6167.99 3778.6 6170.28 3779.23 Q6172.57 3779.83 6174.82 3779.83 Q6177.82 3779.83 6179.44 3778.81 Q6181.07 3777.77 6181.07 3775.89 Q6181.07 3774.16 6179.88 3773.23 Q6178.73 3772.31 6174.77 3771.45 L6173.29 3771.1 Q6169.33 3770.27 6167.57 3768.56 Q6165.81 3766.82 6165.81 3763.81 Q6165.81 3760.15 6168.4 3758.16 Q6171 3756.17 6175.76 3756.17 Q6178.13 3756.17 6180.21 3756.52 Q6182.29 3756.87 6184.05 3757.56 Z" fill="#000000" fill-rule="nonzero" fill-opacity="1" /><circle clip-path="url(#clip380)" cx="5643.4" cy="3817.28" r="20.48" fill="#ff0000" fill-rule="evenodd" fill-opacity="1" stroke="#000000" stroke-opacity="1" stroke-width="11.9467"/>
<path clip-path="url(#clip380)" d="M5923.47 3817.17 Q5923.47 3809.07 5926.5 3802.53 Q5927.78 3799.79 5929.59 3797.5 Q5931.39 3795.2 5932.59 3794.19 Q5933.78 3793.19 5934.11 3793.19 Q5934.58 3793.19 5934.6 3793.65 Q5934.6 3793.89 5933.97 3794.47 Q5926.24 3802.34 5926.26 3817.17 Q5926.26 3832.04 5933.78 3839.61 Q5934.6 3840.43 5934.6 3840.69 Q5934.6 3841.16 5934.11 3841.16 Q5933.78 3841.16 5932.63 3840.19 Q5931.48 3839.23 5929.7 3837.03 Q5927.92 3834.83 5926.64 3832.14 Q5923.47 3825.6 5923.47 3817.17 Z" fill="#000000" fill-rule="nonzero" fill-opacity="1" /><path clip-path="url(#clip380)" d="M5940.92 3801.78 L5940.92 3800.28 Q5946.68 3800.28 5949.66 3797.21 Q5950.48 3797.21 5950.62 3797.4 Q5950.76 3797.59 5950.76 3798.46 L5950.76 3825.37 Q5950.76 3826.8 5951.46 3827.24 Q5952.16 3827.69 5955.23 3827.69 L5956.76 3827.69 L5956.76 3829.16 Q5955.07 3829.02 5948.98 3829.02 Q5942.89 3829.02 5941.23 3829.16 L5941.23 3827.69 L5942.75 3827.69 Q5945.77 3827.69 5946.5 3827.27 Q5947.22 3826.82 5947.22 3825.37 L5947.22 3800.52 Q5944.72 3801.78 5940.92 3801.78 Z" fill="#000000" fill-rule="nonzero" fill-opacity="1" /><path clip-path="url(#clip380)" d="M5965.34 3828.39 Q5964.66 3827.62 5964.66 3826.61 Q5964.66 3825.6 5965.32 3824.85 Q5966 3824.08 5967.22 3824.08 Q5968.64 3824.08 5969.46 3825.46 Q5970.28 3826.82 5970.28 3829.12 Q5970.28 3831.6 5969.28 3833.89 Q5968.27 3836.21 5967.29 3837.31 Q5966.3 3838.41 5965.9 3838.41 Q5965.44 3838.41 5965.44 3837.9 Q5965.44 3837.71 5965.76 3837.36 Q5969.21 3833.66 5969.23 3829.12 Q5969.23 3828.39 5969.14 3828.39 L5969.02 3828.48 Q5968.2 3829.16 5967.22 3829.16 Q5966.02 3829.16 5965.34 3828.39 Z" fill="#000000" fill-rule="nonzero" fill-opacity="1" /><path clip-path="url(#clip380)" d="M5985.41 3801.78 L5985.41 3800.28 Q5991.17 3800.28 5994.15 3797.21 Q5994.97 3797.21 5995.11 3797.4 Q5995.25 3797.59 5995.25 3798.46 L5995.25 3825.37 Q5995.25 3826.8 5995.95 3827.24 Q5996.66 3827.69 5999.72 3827.69 L6001.25 3827.69 L6001.25 3829.16 Q5999.56 3829.02 5993.47 3829.02 Q5987.38 3829.02 5985.72 3829.16 L5985.72 3827.69 L5987.24 3827.69 Q5990.26 3827.69 5990.99 3827.27 Q5991.71 3826.82 5991.71 3825.37 L5991.71 3800.52 Q5989.21 3801.78 5985.41 3801.78 Z" fill="#000000" fill-rule="nonzero" fill-opacity="1" /><path clip-path="url(#clip380)" d="M6008.38 3840.69 Q6008.38 3840.45 6008.99 3839.87 Q6016.72 3832 6016.72 3817.17 Q6016.72 3802.3 6009.3 3794.78 Q6008.38 3793.91 6008.38 3793.65 Q6008.38 3793.19 6008.85 3793.19 Q6009.18 3793.19 6010.33 3794.15 Q6011.5 3795.11 6013.26 3797.31 Q6015.04 3799.51 6016.35 3802.2 Q6019.51 3808.74 6019.51 3817.17 Q6019.51 3825.27 6016.49 3831.81 Q6015.2 3834.55 6013.4 3836.85 Q6011.59 3839.14 6010.4 3840.15 Q6009.2 3841.16 6008.85 3841.16 Q6008.38 3841.16 6008.38 3840.69 Z" fill="#000000" fill-rule="nonzero" fill-opacity="1" /></svg>
